<svg id="Layer_1" data-name="Layer 1" xmlns="http://www.w3.org/2000/svg" viewBox="0 0 512 512"><defs><style>.cls-1{fill:#37474f;}</style></defs><title>Apple</title><path class="cls-1" d="M352.57,252c0-19.5,9.24-37,23.83-48.78-17.89-19.45-44.35-31.75-73.87-31.75a102.89,102.89,0,0,0-35.77,6.35,37.6,37.6,0,0,1-26,0A102.89,102.89,0,0,0,205,171.45c-53.89,0-97.58,41-97.58,91.61S151.07,434.71,205,434.71a102.89,102.89,0,0,0,35.77-6.35,37.6,37.6,0,0,1,26,0,102.89,102.89,0,0,0,35.77,6.35c40.58,0,75.37-68.64,90.08-124.16C369,300.38,352.57,278,352.57,252Z"/><path class="cls-1" d="M313.95,65.29c-18.88,3.35-38.68,18.27-51.37,41s-15.05,47.36-8,65.21c18.88-3.35,38.68-18.27,51.37-41S321,83.13,313.95,65.29Z"/></svg>