<svg id="Layer_1" data-name="Layer 1" xmlns="http://www.w3.org/2000/svg" viewBox="0 0 512 512"><defs><style>.cls-1{fill:#f44336;}.cls-2{fill:#03a9f4;}.cls-3{fill:#ffeb3b;}.cls-4{fill:#455a64;}</style></defs><title>Brochure</title><polygon class="cls-1" points="112.42 410.66 206.07 352.64 206.07 116.84 112.42 148.65 112.42 410.66"/><polygon class="cls-2" points="206.07 116.84 306.38 126.25 306.38 348.79 306.38 361.67 206.07 352.25 206.07 116.84"/><polygon class="cls-3" points="306.38 361.5 387.58 324.46 387.58 89.34 306.38 126.39 306.38 361.5"/><path class="cls-4" d="M136.75,187.21l43.8-19a3,3,0,0,1,4.19,2.75V220.2a5,5,0,0,1-2.91,4.54L138,244.94a3,3,0,0,1-4.26-2.72V191.79A5,5,0,0,1,136.75,187.21Z"/><path class="cls-4" d="M127.23,271.9l63.15-32.1a5,5,0,0,1,7.27,4.46v2.46a5,5,0,0,1-2.75,4.46l-64.6,32.6a4,4,0,0,1-5.8-3.57v-3.86A5,5,0,0,1,127.23,271.9Z"/><path class="cls-4" d="M127.18,298.19l66-33a2,2,0,0,1,2.89,1.79v.77a2,2,0,0,1-1.12,1.79l-66,32.53a2,2,0,0,1-2.88-1.79V300A2,2,0,0,1,127.18,298.19Z"/><path class="cls-4" d="M127.18,314.19l66-33a2,2,0,0,1,2.89,1.79v.77a2,2,0,0,1-1.12,1.79l-66,32.53a2,2,0,0,1-2.88-1.79V316A2,2,0,0,1,127.18,314.19Z"/><path class="cls-4" d="M127.18,333.19l66-33a2,2,0,0,1,2.89,1.79v.77a2,2,0,0,1-1.12,1.79l-66,32.53a2,2,0,0,1-2.88-1.79V335A2,2,0,0,1,127.18,333.19Z"/><path class="cls-4" d="M129.23,351.3l65.89-33.21a2,2,0,0,1,2.9,1.78v.77a2,2,0,0,1-1.11,1.8L131,355.18a2,2,0,0,1-2.89-1.78v-.3A2,2,0,0,1,129.23,351.3Z"/><path class="cls-4" d="M224.49,267.33l62.74,8.13a6,6,0,0,1,5.23,6V328a4,4,0,0,1-4.51,4l-64.48-8.36a4,4,0,0,1-3.49-4V271.3A4,4,0,0,1,224.49,267.33Z"/><path class="cls-4" d="M223.34,258.5l65.43,8.61a1.27,1.27,0,0,0,1.44-1.26v-3a1.27,1.27,0,0,0-1.12-1.27l-65.43-7.77a1.27,1.27,0,0,0-1.43,1.27v2.14A1.27,1.27,0,0,0,223.34,258.5Z"/><path class="cls-4" d="M223.34,216.5l65.43,8.61a1.27,1.27,0,0,0,1.44-1.26v-3a1.27,1.27,0,0,0-1.12-1.27l-65.43-7.77a1.27,1.27,0,0,0-1.43,1.27v2.14A1.27,1.27,0,0,0,223.34,216.5Z"/><path class="cls-4" d="M223.34,203.5l65.43,8.61a1.27,1.27,0,0,0,1.44-1.26v-3a1.27,1.27,0,0,0-1.12-1.27l-65.43-7.77a1.27,1.27,0,0,0-1.43,1.27v2.14A1.27,1.27,0,0,0,223.34,203.5Z"/><path class="cls-4" d="M225.47,166.25l60.54,8a3.72,3.72,0,0,0,4.21-3.69v-.19c0-.55-.34-1-.8-6a4,4,0,0,0-3.51-3.62l-59.19-7a3,3,0,0,0-3.33,2.6c-.66,5.11-1.15,5.64-1.15,6.29h0A3.72,3.72,0,0,0,225.47,166.25Z"/><polygon class="cls-4" points="319.7 188.34 376.4 160.32 377.13 264.98 320.84 290.88 319.7 188.34"/></svg>