<svg id="Layer_1" data-name="Layer 1" xmlns="http://www.w3.org/2000/svg" viewBox="0 0 512 512"><defs><style>.cls-1{fill:#37474f;}.cls-2{fill:#9acd32;}.cls-3{fill:none;stroke:#9acd32;stroke-miterlimit:10;stroke-width:3px;}</style></defs><title>cross platfrom</title><path class="cls-1" d="M215.75,247.77a32,32,0,0,1,12.53-25.09,53.2,53.2,0,0,0-38.85-16.33,55.2,55.2,0,0,0-18.81,3.27,20.19,20.19,0,0,1-13.7,0,55.2,55.2,0,0,0-18.81-3.27c-28.34,0-51.31,21.09-51.31,47.12s23,88.28,51.31,88.28a55.2,55.2,0,0,0,18.81-3.27,20.19,20.19,0,0,1,13.7,0,55.2,55.2,0,0,0,18.81,3.27c21.34,0,39.64-35.3,47.37-63.85C224.38,272.65,215.75,261.14,215.75,247.77Z"/><path class="cls-1" d="M195.43,151.74c-9.93,1.73-20.34,9.4-27,21.06s-7.91,24.36-4.22,33.54c9.93-1.73,20.34-9.4,27-21.06S199.12,160.92,195.43,151.74Z"/><rect class="cls-2" x="290.3" y="220.16" width="95.7" height="84.24" rx="5" ry="5"/><rect class="cls-2" x="300.52" y="295.35" width="20.95" height="52.91" rx="9.03" ry="9.03"/><rect class="cls-2" x="355.36" y="295.35" width="20.03" height="52.91" rx="9.03" ry="9.03"/><rect class="cls-2" x="263.2" y="219.94" width="21.1" height="64.24" rx="10.07" ry="10.07"/><rect class="cls-2" x="392.09" y="219.94" width="21.1" height="64.24" rx="10.07" ry="10.07"/><path class="cls-2" d="M338.14,175.61c-26.43,0-47.85,17.77-47.85,39.68H386C386,193.37,364.57,175.61,338.14,175.61ZM322.5,206.87a6.85,6.85,0,1,1,6.92-6.85A6.89,6.89,0,0,1,322.5,206.87Zm32.86,0a6.85,6.85,0,1,1,6.92-6.85A6.89,6.89,0,0,1,355.36,206.87Z"/><line class="cls-3" x1="362.28" y1="182.14" x2="373.96" y2="158.26"/><line class="cls-3" x1="318.79" y1="185.46" x2="303.19" y2="160.69"/></svg>