<svg id="Layer_1" data-name="Layer 1" xmlns="http://www.w3.org/2000/svg" viewBox="0 0 512 512"><defs><style>.cls-1{fill:#37474f;}.cls-2{fill:#9acd32;}.cls-3{fill:none;stroke:#9acd32;stroke-miterlimit:10;stroke-width:3px;}</style></defs><title>crossplatform</title><path class="cls-1" d="M210.51,251.68a54.18,54.18,0,0,1,19.08-41.27,78.72,78.72,0,0,0-87.81-21.49,28.61,28.61,0,0,1-20.86,0,78.51,78.51,0,0,0-28.65-5.37c-43.16,0-78.15,34.7-78.15,77.5s35,145.22,78.15,145.22a78.51,78.51,0,0,0,28.65-5.37,28.61,28.61,0,0,1,20.86,0,78.51,78.51,0,0,0,28.65,5.37c32.5,0,60.37-58.07,72.15-105A54.48,54.48,0,0,1,210.51,251.68Z"/><path class="cls-1" d="M179.57,93.73c-15.12,2.84-31,15.46-41.15,34.65s-12.05,40.07-6.43,55.16c15.12-2.84,31-15.46,41.15-34.65S185.19,108.83,179.57,93.73Z"/><rect class="cls-2" x="298.69" y="195.56" width="145.75" height="138.56" rx="5" ry="5"/><rect class="cls-2" x="314.26" y="319.24" width="31.91" height="87.03" rx="9.03" ry="9.03"/><rect class="cls-2" x="397.78" y="319.24" width="30.51" height="87.03" rx="9.03" ry="9.03"/><rect class="cls-2" x="257.42" y="195.2" width="32.14" height="105.67" rx="10.07" ry="10.07"/><rect class="cls-2" x="453.73" y="195.2" width="32.14" height="105.67" rx="10.07" ry="10.07"/><path class="cls-2" d="M371.57,122.28c-40.25,0-72.88,29.22-72.88,65.27H444.44C444.44,151.5,411.82,122.28,371.57,122.28ZM347.74,173.7c-5.82,0-10.54-5-10.54-11.27s4.72-11.27,10.54-11.27,10.54,5,10.54,11.27S353.56,173.7,347.74,173.7Zm50,0c-5.82,0-10.54-5-10.54-11.27s4.72-11.27,10.54-11.27,10.54,5,10.54,11.27S403.61,173.7,397.78,173.7Z"/><line class="cls-3" x1="408.33" y1="133.02" x2="426.12" y2="93.73"/><line class="cls-3" x1="342.1" y1="138.48" x2="318.33" y2="97.73"/></svg>