<svg xmlns="http://www.w3.org/2000/svg" xmlns:xlink="http://www.w3.org/1999/xlink" viewBox="0 0 512 512"><defs><style>.cls-1{fill:#fff;}.cls-2{fill:#fdd835;}.cls-3{fill:#fff9c4;}.cls-4{fill:url(#linear-gradient);}.cls-5{fill:#cfd8dc;}.cls-6{fill:#f9a825;}.cls-7{fill:#0d47a1;}.cls-8{fill:#9e9e9e;}.cls-9{fill:#ef5350;}.cls-10{fill:#e53935;}.cls-11{fill:#1565c0;}.cls-12{fill:#37474f;}.cls-13{fill:#ff5722;}.cls-14,.cls-15{fill:#424242;}.cls-15{opacity:0.2;}.cls-16,.cls-22{fill:#42a5f5;}.cls-16{stroke:#fff;stroke-miterlimit:10;stroke-width:5px;}.cls-17{fill:#a5d6a7;}.cls-18{fill:#66bb6a;}.cls-19{fill:#ffeb3b;}.cls-20{fill:#d7ccc8;}.cls-21{fill:#29b6f6;}.cls-23{fill:#eee;}.cls-24{fill:#b0bec5;}</style><linearGradient id="linear-gradient" x1="132.6" y1="106.68" x2="159.05" y2="80.22" gradientUnits="userSpaceOnUse"><stop offset="0" stop-opacity="0.1"/><stop offset="1" stop-opacity="0"/></linearGradient></defs><title>email news letter</title><g id="Layer_1" data-name="Layer 1"><path class="cls-1" d="M105.47,196.78H397.79a2,2,0,0,1,2,2V418.84a7,7,0,0,1-7,7H110.47a7,7,0,0,1-7-7V198.78A2,2,0,0,1,105.47,196.78Z"/><path class="cls-2" d="M400.19,196.77,257.42,95.46a9.85,9.85,0,0,0-10.79,0L103.86,196.77"/><path class="cls-3" d="M124.26,98.35V369.58c0,3.34,3.16,6,7.06,6H371.91c3.9,0,7.06-2.71,7.06-6V80.21c0-3.34-3.16-6-7.06-6H152.52"/><path class="cls-4" d="M152.52,74.16,124.26,98.35l3.3,2.82,26.47.09a1.33,1.33,0,0,0,1.42-1.19L155.82,77Z"/><path class="cls-5" d="M124.26,98.35l28.26-24.19-.37,23.08a1.33,1.33,0,0,1-1.42,1.19Z"/><path class="cls-2" d="M246.09,307,103.47,196.77v223c0,3.34,3.5,6.05,7.83,6.05H392c4.32,0,7.83-2.71,7.83-6.05v-223L257.16,307A9.53,9.53,0,0,1,246.09,307Z"/><path class="cls-6" d="M397.64,416.33,257.4,310.6a10.18,10.18,0,0,0-11.55,0L105.61,416.33c-4.22,3.18-1.79,9.51,3.67,9.51H394C399.43,425.84,401.87,419.52,397.64,416.33Z"/><ellipse class="cls-7" cx="450.18" cy="422.77" rx="10.31" ry="3.07"/><path class="cls-8" d="M460.53,232.15c-7.12,0-13.45-.55-20.56-.55,3.51-11.3,6.7-23.2,10.21-34.51C452,202.74,458.73,226.5,460.53,232.15Z"/><path class="cls-9" d="M439.92,232.15c0-3.12,4.61-5.65,10.31-5.65s10.31,2.53,10.31,5.65V411.47H439.82Z"/><path class="cls-7" d="M460.48,422.77V407.13c0-2.14-4.61-3.87-10.31-3.87s-10.31,1.73-10.31,3.87v15.65"/><ellipse cx="450.25" cy="197.96" rx="1.05" ry="1.18"/><path class="cls-10" d="M439.9,231.65c0-2.84,3.68-4.75,6.34-4.75a7.2,7.2,0,0,0,1-.21c1.39-.19,2.22-.53,2.66-.21.09.07.24-.12.27,0s0-.36,0,0c0,163.21.64,169.07.64,169.07-1.46.09-2.63-.07-3.72,0-7.28.45-7.32,0-7.32,0Z"/><rect x="439.69" y="395.76" width="20.97" height="10.38" transform="translate(900.35 801.9) rotate(-180)"/><rect class="cls-1" x="439.69" y="400.95" width="20.97" height="2.17" transform="translate(900.35 804.07) rotate(-180)"/><rect class="cls-11" x="447.73" y="320.83" width="4.9" height="70.07" transform="translate(900.35 711.73) rotate(-180)"/><rect class="cls-11" x="445.34" y="389.84" width="9.45" height="10.69" rx="1.51" ry="1.51" transform="translate(900.13 790.37) rotate(-180)"/><path class="cls-11" d="M453.39,321.65H447a.89.89,0,0,1-.67-1.35l3.22-6.07a.74.74,0,0,1,1.35,0l3.22,6.07A.89.89,0,0,1,453.39,321.65Z"/><path class="cls-12" d="M158.32,139.37a13.77,13.77,0,0,1-6.75,1.52c-6.22,0-11.49-4.57-11.49-11.87,0-7.84,5.42-14.61,13.84-14.61,6.6,0,11,4.64,11,11,0,5.71-3.18,9.06-6.75,9.06-1.52,0-2.92-1-2.81-3.35h-.15a6,6,0,0,1-5.35,3.35c-2.2,0-4.09-1.79-4.09-4.79a9,9,0,0,1,9-9,10,10,0,0,1,4.06.8l-1.29,6.89c-.57,2.89-.11,4.22,1.14,4.26,1.93,0,4.09-2.55,4.09-7,0-5.52-3.3-9.48-9.17-9.48-6.18,0-11.37,4.91-11.37,12.63,0,6.36,4.13,10.27,9.74,10.27a11.79,11.79,0,0,0,5.72-1.33Zm-2.09-16.44a6.53,6.53,0,0,0-1.9-.27c-3.34,0-6,3.16-6,6.85,0,1.67.83,2.89,2.5,2.89,2.2,0,4.21-2.82,4.63-5.18Z"/><path class="cls-13" d="M85.88,199.15H44.75a5.43,5.43,0,0,0-5.42,5.44V420.4a5.43,5.43,0,0,0,5.42,5.44H85.88a5.43,5.43,0,0,0,5.42-5.44V204.58A5.43,5.43,0,0,0,85.88,199.15ZM65.31,416.38a5.5,5.5,0,1,1,5.48-5.5A5.49,5.49,0,0,1,65.31,416.38Z"/><rect class="cls-14" x="76.01" y="393.33" width="15.28" height="1.81" rx="0.83" ry="0.83"/><rect class="cls-14" x="76.01" y="370.5" width="15.28" height="1.81" rx="0.83" ry="0.83"/><rect class="cls-14" x="76.01" y="348.8" width="15.28" height="1.81" rx="0.83" ry="0.83"/><rect class="cls-14" x="76.01" y="325.45" width="15.28" height="1.81" rx="0.83" ry="0.83"/><rect class="cls-14" x="76.01" y="302.1" width="15.28" height="1.81" rx="0.83" ry="0.83"/><rect class="cls-14" x="76.01" y="278.75" width="15.28" height="1.81" rx="0.83" ry="0.83"/><rect class="cls-14" x="76.01" y="255.4" width="15.28" height="1.81" rx="0.83" ry="0.83"/><rect class="cls-14" x="76.01" y="232.05" width="15.28" height="1.81" rx="0.83" ry="0.83"/><rect class="cls-14" x="76.01" y="208.7" width="15.28" height="1.81" rx="0.83" ry="0.83"/><path class="cls-15" d="M45.34,199.15H48a0,0,0,0,1,0,0V425.84a0,0,0,0,1,0,0H44.34a5,5,0,0,1-5-5V205.15A6,6,0,0,1,45.34,199.15Z"/></g><g id="Layer_3" data-name="Layer 3"><rect class="cls-16" x="219.87" y="89.26" width="86.65" height="76.1" rx="1" ry="1"/><polygon class="cls-17" points="232.86 148 271.67 148 252.26 116.04 232.86 148"/><polygon class="cls-17" points="265.35 148 304.16 148 284.76 125.24 265.35 148"/><polyline class="cls-18" points="252.26 148 271.67 148 252.26 116.04"/><polyline class="cls-18" points="284.76 148 304.16 148 284.76 125.24"/><rect class="cls-1" x="219.87" y="148" width="86.65" height="17.36"/><ellipse class="cls-19" cx="270.32" cy="111.29" rx="4.96" ry="4.75"/><path class="cls-12" d="M209.36,184.71q1.09-1.25,2.82-3.35t2.55-3a12.33,12.33,0,0,1,1.41-1.34,4.64,4.64,0,0,1,2.81-1,1.37,1.37,0,0,1,.72.26.89.89,0,0,1,.4.81q0,.53-1,1.64a6.5,6.5,0,0,1-1.45,1.12,9.19,9.19,0,0,1-2.12.92,4.2,4.2,0,0,1-.64.08c-.14,0-.2,0-.2,0s0-.07.11-.11a16.1,16.1,0,0,0,2.86-2.12q1.58-1.41,1.58-1.86s0-.06-.08-.06l-.18,0-.22.06a2.93,2.93,0,0,0-.52.25,7.23,7.23,0,0,0-.83.55,9.64,9.64,0,0,0-1.08,1,16.41,16.41,0,0,0-1.3,1.56q-2.5,3.52-3.24,4.32l-.3.33,1.14.11,1,.1q.26,0,.78.16a2.91,2.91,0,0,1,.82.3,6.73,6.73,0,0,1,1.52,1.32q.17.18.17.24s0,.06,0,.06a.47.47,0,0,1-.2-.06l-.66-.17q-.43-.11-1.86-.27a22.59,22.59,0,0,0-2.62-.17h-1.74a8.12,8.12,0,0,1-2.26,1.42,6,6,0,0,1-2.19.65,2.67,2.67,0,0,1-1.39-.39,1.18,1.18,0,0,1-.65-1q0-.47.71-1Q205.63,184.71,209.36,184.71Zm-5.25,2.77q0,.15.36.2a5.17,5.17,0,0,0,.8-.05,4.36,4.36,0,0,0,1-.34,6.57,6.57,0,0,0,1.36-.85,8.51,8.51,0,0,0-2.24.35Q204.12,187.13,204.12,187.48Z"/><path class="cls-12" d="M219.69,183.8a3.17,3.17,0,0,0,1.33-.52,14.88,14.88,0,0,0,1.58-1l.68-.53a.32.32,0,0,1,.14.26.36.36,0,0,1-.14.27q-2.5,2.33-3.79,2.33l-.27,0q-1.71,2-2.94,2a1.08,1.08,0,0,1-1.15-1.16,4.07,4.07,0,0,1,1.15-2.4,6.78,6.78,0,0,1,2.9-2,.33.33,0,0,1,.23.07.27.27,0,0,0,.14.08.25.25,0,0,0,.16-.06.5.5,0,0,1,.27-.08.47.47,0,0,1,.35.19.61.61,0,0,1,.24.49A4.33,4.33,0,0,1,219.69,183.8Zm-3.31,1.77a2,2,0,0,0,1.2-.64q.71-.64.74-.88a1.81,1.81,0,0,1-.39-.56,3,3,0,0,0-.22-.4,5.19,5.19,0,0,0-.83,1,3.45,3.45,0,0,0-.58,1.34C216.31,185.52,216.33,185.56,216.38,185.56Zm3.28-3.73q-.15,0-.63.47t-.48.65a.48.48,0,0,0,.09.18q.09.14.14.14.26,0,.58-.62a3.29,3.29,0,0,0,.33-.72C219.69,181.87,219.68,181.83,219.66,181.83Z"/><path class="cls-12" d="M220.92,183.39q.83-.58,1.74-1.25a1.67,1.67,0,0,1-.62-.65.45.45,0,0,1,0-.15.41.41,0,0,1,.2-.4,1.51,1.51,0,0,1,.64-.1,3.89,3.89,0,0,1,1,.41,3.49,3.49,0,0,0,1,.41,2.12,2.12,0,0,0,.61-.13,2.16,2.16,0,0,1,.63-.13.47.47,0,0,1,.34.11,2,2,0,0,1,.38.61.21.21,0,0,1-.1.18l-.62.43q-.52.37-1,.75a7.48,7.48,0,0,0-.94.85,1.31,1.31,0,0,0-.44.76s0,0,.08,0q.82,0,5.52-3.33c.07,0,.11.06.11.19s-.4.56-1.2,1.31a26.26,26.26,0,0,1-2.71,2.19,4.74,4.74,0,0,1-2.19,1.07.94.94,0,0,1-1.06-1.07,1.9,1.9,0,0,1,.39-1.12,7.86,7.86,0,0,1,1.63-1.45,2.64,2.64,0,0,1-.7-.13,1,1,0,0,1-.56-.31l-1.36,1.17a1,1,0,0,1-.59.17q-.36,0-.36-.11T220.92,183.39Z"/><path class="cls-12" d="M228.12,186.51q-1.17,0-1.17-1.43a3.19,3.19,0,0,1,.78-1.91,6.76,6.76,0,0,1,1.84-1.66,3.73,3.73,0,0,1,1.88-.65,1,1,0,0,1,.67.29.8.8,0,0,1,.31.56,1.69,1.69,0,0,1-.71,1.13,6.86,6.86,0,0,1-1.49,1,3.19,3.19,0,0,1-1,.39.4.4,0,0,1-.37-.23.27.27,0,0,0-.17,0q-.11,0-.35.4a1.38,1.38,0,0,0-.24.65.29.29,0,0,0,.18.31,5.62,5.62,0,0,0,2.5-.68,30.68,30.68,0,0,0,3.73-2.38l.51-.37.4-.29a.32.32,0,0,1,.14.26.36.36,0,0,1-.14.27,21.65,21.65,0,0,1-2,1.7,19.66,19.66,0,0,1-2.77,1.79A5.75,5.75,0,0,1,228.12,186.51Zm3.23-4.87a2.8,2.8,0,0,0-1.33.81q-.94.81-.94,1s0,0,0,0a3.25,3.25,0,0,0,1.33-.75q1-.75,1-1C231.44,181.66,231.41,181.64,231.35,181.64Z"/><path class="cls-12" d="M238.9,185.29q0,.14.17.14a1.91,1.91,0,0,0,.64-.21,7.8,7.8,0,0,0,1.11-.65q.64-.44,1.71-1.26t1.87-1.38a.32.32,0,0,1,.14.26.36.36,0,0,1-.14.27l-1.23,1.18q-.74.71-2.27,1.9a4.72,4.72,0,0,1-2.13,1.19q-1.17,0-1.17-1.25a1.74,1.74,0,0,1,.36-1l.65-.9a.63.63,0,0,0,.09-.16s0,0-.09.05a28.75,28.75,0,0,1-3.37,2.59.56.56,0,0,1-.3.08q-.5,0-.5-.46a.51.51,0,0,1,.08-.27,11.71,11.71,0,0,1,1.35-1.72l.26-.26a.09.09,0,0,0,0-.06,0,0,0,0,0,0,0s-.05,0-.09.06l-1.62,1.28q-1.41,1.11-1.54,1.18a.51.51,0,0,1-.23.07.81.81,0,0,1-.33-.13c-.15-.09-.23-.19-.23-.3a.26.26,0,0,1,0-.12,22.23,22.23,0,0,0,2.17-2.71l.51-.81a4.53,4.53,0,0,1,.35-.51.37.37,0,0,1,.28-.15.54.54,0,0,1,.34.17.5.5,0,0,1,.19.36.73.73,0,0,1-.12.38,5.7,5.7,0,0,1-.8,1.2.13.13,0,0,0,0,.08s0,0,0,0h0l2-1.42a3.25,3.25,0,0,1,.92-.53.67.67,0,0,1,.33.1c.12.07.17.14.17.22a.46.46,0,0,1-.08.24l-1,1.35a1.34,1.34,0,0,0-.2.27s0,0,0,0l.08,0q1.9-1.29,2.57-1.8a10.26,10.26,0,0,0,.81-.64.66.66,0,0,1,.36-.15.39.39,0,0,1,.19,0l.33.26a.23.23,0,0,1,.15.2.31.31,0,0,1-.06.2l-1.43,1.55-.78.85a2.52,2.52,0,0,0-.48.76A.79.79,0,0,0,238.9,185.29Z"/><path class="cls-12" d="M247.39,184.7a.79.79,0,0,0-.12.38q0,.17.18.17a1.29,1.29,0,0,0,.36-.09,41.93,41.93,0,0,0,5.55-3.52.32.32,0,0,1,.14.26.39.39,0,0,1-.15.29l-.43.4-1.07.93q-.79.67-1.47,1.22a9.68,9.68,0,0,1-2.64,1.71,2.21,2.21,0,0,1-.59.08q-1.17,0-1.17-1.25a3.12,3.12,0,0,1,.53-1.39,12.84,12.84,0,0,1,1.09-1.6,3.29,3.29,0,0,1,.74-.77,1.11,1.11,0,0,1,.59-.17,1.54,1.54,0,0,1,.61.12.14.14,0,0,1,.09.12c0,.05,0,.13-.14.23l-.44.47q-.3.32-.88,1.1A5.64,5.64,0,0,0,247.39,184.7Zm3.64-6a.24.24,0,0,1,.2.06.75.75,0,0,1,.21.42.43.43,0,0,1-.09.27l-.22.26a2.78,2.78,0,0,1-.52.4,1.38,1.38,0,0,1-.75.25.3.3,0,0,1-.27-.33,1.18,1.18,0,0,1,.55-.89A1.61,1.61,0,0,1,251,178.7Z"/><path class="cls-12" d="M255.75,179.35c.11,0,.23.08.36.25a.75.75,0,0,1,.2.37.23.23,0,0,1,0,.17q-1,.91-2,1.92t-1.46,1.55l-.46.55c-.08.08-.12.14-.12.17s0,0,0,0a.13.13,0,0,0,.08,0l.14-.11q2.49-2.22,3.87-2.22a.57.57,0,0,1,.33.11,1.24,1.24,0,0,1,.52,1,2.34,2.34,0,0,1-.77,1.38,7.55,7.55,0,0,1-1.89,1.47,4.06,4.06,0,0,1-1.87.63,1.08,1.08,0,0,1-1-.4l-.17-.24,0,0q-.33,0-2.21,2.13a21.48,21.48,0,0,0-2.4,3.09q-.06.27-.24.27a.26.26,0,0,1-.17-.06l-.68-.53a.14.14,0,0,1-.06-.14,25.13,25.13,0,0,1,2.3-3q2.3-2.81,4.81-5.56T255.75,179.35Zm-3.85,6.42a3.59,3.59,0,0,0,1.52-.59,12.33,12.33,0,0,0,1.83-1.27q.81-.68.81-1a0,0,0,0,0,0,0,3.84,3.84,0,0,0-1.4.68q-1.07.68-2,1.37a5.88,5.88,0,0,0-.91.75S251.78,185.78,251.9,185.78Z"/><path class="cls-12" d="M258.67,185.12a1.23,1.23,0,0,0,1-.65,4.32,4.32,0,0,0,.63-1.31,4.22,4.22,0,0,0,.18-1.06q0-.11-.16-.11a.64.64,0,0,0-.37.17l-2,1.54a1,1,0,0,1-.48.12c-.18,0-.27-.07-.27-.2a.3.3,0,0,1,0-.18,1,1,0,0,1,.22-.15,33.39,33.39,0,0,0,3.06-2.53q.23-.3.41-.3a2.73,2.73,0,0,1,.61.11q.42.11.42.27a7.62,7.62,0,0,1-.17,1.66,6.3,6.3,0,0,1-.34,1.13,3.58,3.58,0,0,0-.17.42,0,0,0,0,0,0,0l.12,0a21.47,21.47,0,0,0,2.9-1.89l.36-.27a.32.32,0,0,1,.14.26.36.36,0,0,1-.14.27s-.28.21-.78.64l-1.67,1.39a16.05,16.05,0,0,1-2,1.38,3.58,3.58,0,0,1-1.62.62q-1.43,0-1.43-1.72a.35.35,0,0,1,.11-.25.4.4,0,0,1,.3-.11.59.59,0,0,0,.08.24,1.43,1.43,0,0,0,.17.27A1.12,1.12,0,0,0,258.67,185.12Z"/><path class="cls-12" d="M266.15,184.88a41.12,41.12,0,0,0,5-3.24.32.32,0,0,1,.14.26.39.39,0,0,1-.15.29l-.43.4-1.07.93q-.79.67-1.47,1.22a9.67,9.67,0,0,1-2.64,1.71,2.2,2.2,0,0,1-.59.08q-.52,0-.52-.81a1.44,1.44,0,0,1,.14-.5l.17-.39,0-.08,0-.05a.1.1,0,0,0,0-.05s0,0-.09,0-.22.13-.5.4l-.71.65a4.4,4.4,0,0,1-.64.46,1.23,1.23,0,0,1-.58.21q-.61,0-.61-.56a2,2,0,0,1,.23-.82,8.8,8.8,0,0,1,1.59-2.25q1.06-1.13,1.52-1.14a.45.45,0,0,1,.3.12.36.36,0,0,1,.14.27q0,.15-.3.46l-.77.78a4.66,4.66,0,0,0-.65.8,1.16,1.16,0,0,0-.19.43c0,.07,0,.11.12.11a1.1,1.1,0,0,0,.44-.2q.86-.59,2-1.46a9.91,9.91,0,0,0,1.43-1.26q.08-.27.45-.27.73,0,.73.26,0,.11-.71.79-2.14,2.05-2.14,2.54c0,.05,0,.08.07.08A.7.7,0,0,0,266.15,184.88Z"/><path class="cls-12" d="M275,185.29q0,.14.17.14a1.91,1.91,0,0,0,.64-.21,7.83,7.83,0,0,0,1.11-.65q.64-.44,1.71-1.26t1.87-1.38a.32.32,0,0,1,.14.26.36.36,0,0,1-.14.27l-1.23,1.18q-.74.71-2.27,1.9a4.72,4.72,0,0,1-2.13,1.19q-1.17,0-1.17-1.25a1.73,1.73,0,0,1,.36-1l.65-.9a.65.65,0,0,0,.09-.16s0,0-.09.05a28.77,28.77,0,0,1-3.37,2.59.57.57,0,0,1-.3.08q-.5,0-.5-.46a.51.51,0,0,1,.08-.27,11.76,11.76,0,0,1,1.35-1.72l.26-.26a.09.09,0,0,0,0-.06s0,0,0,0-.05,0-.09.06l-1.62,1.28q-1.41,1.11-1.54,1.18a.51.51,0,0,1-.23.07.8.8,0,0,1-.33-.13c-.15-.09-.23-.19-.23-.3a.26.26,0,0,1,0-.12,22.28,22.28,0,0,0,2.17-2.71l.51-.81a4.39,4.39,0,0,1,.35-.51.37.37,0,0,1,.28-.15.54.54,0,0,1,.34.17.5.5,0,0,1,.19.36.73.73,0,0,1-.12.38,5.67,5.67,0,0,1-.8,1.2.13.13,0,0,0,0,.08s0,0,0,0h0l2-1.42a3.24,3.24,0,0,1,.92-.53.67.67,0,0,1,.33.1c.12.07.17.14.17.22a.46.46,0,0,1-.08.24l-1,1.35a1.31,1.31,0,0,0-.2.27s0,0,0,0l.08,0q1.9-1.29,2.57-1.8t.81-.64a.66.66,0,0,1,.36-.15.38.38,0,0,1,.19,0l.33.26a.23.23,0,0,1,.15.2.31.31,0,0,1-.06.2l-1.43,1.55-.78.85a2.51,2.51,0,0,0-.49.76A.78.78,0,0,0,275,185.29Z"/><path class="cls-12" d="M285.63,185.18s0,0,.1,0a4.63,4.63,0,0,0,.89-.46q2.06-1.17,4.85-3.14a.32.32,0,0,1,.14.26.39.39,0,0,1-.15.29l-.43.4-1.07.93q-.79.67-1.47,1.22a9.67,9.67,0,0,1-2.64,1.71,2.2,2.2,0,0,1-.59.08,1.24,1.24,0,0,1-.55-.23.52.52,0,0,1-.25-.43,3.43,3.43,0,0,1,.11-.72q.11-.48.11-.52s0,0,0,0,0,0-.08.06l-.5.53a8.17,8.17,0,0,1-1,.84,2.28,2.28,0,0,1-1.19.52l-.19-.05a.82.82,0,0,1-.3-.25.91.91,0,0,1-.18-.61,2.51,2.51,0,0,1,.59-1.21,11,11,0,0,1,1.44-1.6,10.15,10.15,0,0,1,1.86-1.36,3.72,3.72,0,0,1,1.77-.58q.27,0,.45.41a7.66,7.66,0,0,1,1-1.38,23.29,23.29,0,0,1,2.37-2.56,3.84,3.84,0,0,1,2.13-1.29c.17,0,.26.08.26.24a2,2,0,0,1-.51,1,11.59,11.59,0,0,1-1.09,1.22q-.59.56-1.51,1.42a29.87,29.87,0,0,0-3.22,3.32A4.24,4.24,0,0,0,285.63,185.18ZM283,185a3.83,3.83,0,0,0,1.11-.75q.93-.75,1.78-1.49l.83-.75s.06-.07.06-.08,0,0,0,0a2.86,2.86,0,0,0-1.5.66,10.19,10.19,0,0,0-1.6,1.4q-.68.74-.67,1A0,0,0,0,0,283,185Z"/><path class="cls-12" d="M292.76,183.8a3.16,3.16,0,0,0,1.33-.52,14.94,14.94,0,0,0,1.58-1l.68-.53a.32.32,0,0,1,.14.26.36.36,0,0,1-.14.27q-2.5,2.33-3.79,2.33l-.27,0q-1.71,2-2.94,2a1.08,1.08,0,0,1-1.15-1.16,4.08,4.08,0,0,1,1.15-2.4,6.78,6.78,0,0,1,2.9-2,.33.33,0,0,1,.23.07.27.27,0,0,0,.14.08.26.26,0,0,0,.16-.06.5.5,0,0,1,.26-.08.47.47,0,0,1,.35.19.61.61,0,0,1,.24.49A4.33,4.33,0,0,1,292.76,183.8Zm-3.31,1.77a2,2,0,0,0,1.2-.64q.71-.64.74-.88a1.8,1.8,0,0,1-.39-.56,3.1,3.1,0,0,0-.22-.4,5.17,5.17,0,0,0-.83,1,3.46,3.46,0,0,0-.58,1.34C289.38,185.52,289.4,185.56,289.45,185.56Zm3.28-3.73q-.15,0-.63.47t-.48.65a.48.48,0,0,0,.09.18q.09.14.14.14.26,0,.58-.62a3.25,3.25,0,0,0,.33-.72C292.76,181.87,292.75,181.83,292.73,181.83Z"/><path class="cls-12" d="M295.59,185.23a5.29,5.29,0,0,0,2-.9q1.48-.9,2.69-1.8l1.23-.9a.32.32,0,0,1,.14.26.39.39,0,0,1-.15.29l-.43.4-1.07.93q-.79.67-1.47,1.22a9.68,9.68,0,0,1-2.64,1.71,2.09,2.09,0,0,1-.56.08,1.8,1.8,0,0,1-.45,0,1.09,1.09,0,0,1-.36-.2,2,2,0,0,1-.39-1.49,2.88,2.88,0,0,1,.27-1,9.43,9.43,0,0,1,.9-1.58,16.83,16.83,0,0,1,1.47-1.86,13.47,13.47,0,0,1,2.14-1.86,12.76,12.76,0,0,1,2.77-1.51,1.31,1.31,0,0,1,.41-.08.45.45,0,0,1,.33.16,1,1,0,0,1,.21.33l.08.15q0,.35-1.08,1.54a19.18,19.18,0,0,1-2.56,2.35q-1.45,1.12-2.69,1.91-1,.67-1,1.4Q295.34,185.23,295.59,185.23Zm1.36-3.15q.38,0,2.3-1.87a11.22,11.22,0,0,0,1.92-2.09l0,0-.26.12a16.55,16.55,0,0,0-2.1,1.77,15.48,15.48,0,0,0-1.81,1.95.23.23,0,0,0-.06.11S296.94,182.08,297,182.08Z"/><path class="cls-12" d="M302.72,183.8a3.16,3.16,0,0,0,1.33-.52,14.94,14.94,0,0,0,1.58-1l.68-.53a.32.32,0,0,1,.14.26.36.36,0,0,1-.14.27q-2.5,2.33-3.79,2.33l-.27,0q-1.71,2-2.94,2a1.08,1.08,0,0,1-1.15-1.16,4.08,4.08,0,0,1,1.15-2.4,6.78,6.78,0,0,1,2.9-2,.33.33,0,0,1,.23.07.27.27,0,0,0,.14.08.26.26,0,0,0,.16-.06.5.5,0,0,1,.26-.08.47.47,0,0,1,.35.19.61.61,0,0,1,.24.49A4.33,4.33,0,0,1,302.72,183.8Zm-3.31,1.77a2,2,0,0,0,1.2-.64q.71-.64.74-.88a1.8,1.8,0,0,1-.39-.56,3.1,3.1,0,0,0-.22-.4,5.17,5.17,0,0,0-.83,1,3.46,3.46,0,0,0-.58,1.34C299.34,185.52,299.36,185.56,299.41,185.56Zm3.28-3.73q-.15,0-.63.47t-.48.65a.48.48,0,0,0,.09.18q.09.14.14.14.26,0,.58-.62a3.25,3.25,0,0,0,.33-.72C302.72,181.87,302.71,181.83,302.69,181.83Z"/><path class="cls-12" d="M303.95,183.39q.83-.58,1.74-1.25a1.68,1.68,0,0,1-.62-.65.48.48,0,0,1,0-.15.41.41,0,0,1,.2-.4,1.51,1.51,0,0,1,.64-.1,3.89,3.89,0,0,1,1,.41,3.49,3.49,0,0,0,1,.41,2.12,2.12,0,0,0,.61-.13,2.16,2.16,0,0,1,.63-.13.47.47,0,0,1,.34.11,2,2,0,0,1,.38.61.21.21,0,0,1-.1.18l-.62.43q-.52.37-1,.75a7.48,7.48,0,0,0-.94.85,1.31,1.31,0,0,0-.44.76s0,0,.08,0q.82,0,5.52-3.33c.07,0,.11.06.11.19s-.4.56-1.2,1.31a26.26,26.26,0,0,1-2.71,2.19,4.74,4.74,0,0,1-2.19,1.07.94.94,0,0,1-1.06-1.07,1.9,1.9,0,0,1,.39-1.12,7.88,7.88,0,0,1,1.63-1.45,2.65,2.65,0,0,1-.7-.13,1,1,0,0,1-.56-.31l-1.36,1.17a1,1,0,0,1-.59.17c-.24,0-.36,0-.36-.11S303.79,183.52,303.95,183.39Z"/><path class="cls-12" d="M171.13,205.63q.94-1.07,2.42-2.87t2.18-2.56a10.56,10.56,0,0,1,1.21-1.15,4,4,0,0,1,2.4-.89,1.17,1.17,0,0,1,.62.22.76.76,0,0,1,.34.69q0,.46-.87,1.41a5.6,5.6,0,0,1-1.24,1,7.91,7.91,0,0,1-1.81.79,3.64,3.64,0,0,1-.55.07c-.12,0-.18,0-.18,0s0-.06.09-.09a13.82,13.82,0,0,0,2.45-1.81q1.36-1.21,1.36-1.59s0-.05-.07-.05l-.16,0-.19.05a2.52,2.52,0,0,0-.44.21,6.26,6.26,0,0,0-.71.47,8.2,8.2,0,0,0-.92.86,14,14,0,0,0-1.11,1.34q-2.14,3-2.78,3.7l-.26.29,1,.09.88.08.67.14a2.5,2.5,0,0,1,.7.26,5.76,5.76,0,0,1,1.3,1.14c.1.1.14.17.14.21s0,.05,0,.05a.41.41,0,0,1-.17-.05l-.57-.14q-.37-.09-1.59-.23a19.36,19.36,0,0,0-2.24-.14h-1.49a7,7,0,0,1-1.94,1.21,5.18,5.18,0,0,1-1.88.56,2.29,2.29,0,0,1-1.19-.33,1,1,0,0,1-.56-.89q0-.41.61-.89A7.49,7.49,0,0,1,171.13,205.63Zm-4.5,2.37q0,.13.31.17a4.47,4.47,0,0,0,.69,0,3.75,3.75,0,0,0,.84-.29,5.67,5.67,0,0,0,1.16-.73,7.3,7.3,0,0,0-1.92.3Q166.63,207.7,166.63,208Z"/><path class="cls-12" d="M180,204.85a2.72,2.72,0,0,0,1.14-.44,12.78,12.78,0,0,0,1.36-.89l.58-.46a.27.27,0,0,1,.12.22.31.31,0,0,1-.12.23q-2.14,2-3.25,2l-.23,0q-1.47,1.71-2.52,1.71a.93.93,0,0,1-1-1,3.49,3.49,0,0,1,1-2.05,5.81,5.81,0,0,1,2.48-1.75.28.28,0,0,1,.19.06.23.23,0,0,0,.12.07.22.22,0,0,0,.14-.05.42.42,0,0,1,.23-.07.4.4,0,0,1,.3.16.52.52,0,0,1,.21.42A3.71,3.71,0,0,1,180,204.85Zm-2.83,1.51a1.72,1.72,0,0,0,1-.55q.61-.55.64-.76a1.54,1.54,0,0,1-.33-.48,2.64,2.64,0,0,0-.19-.35,4.4,4.4,0,0,0-.71.87,3,3,0,0,0-.49,1.15C177.08,206.32,177.11,206.36,177.15,206.36Zm2.81-3.2q-.13,0-.54.4t-.41.56a.4.4,0,0,0,.08.16c.05.08.09.12.12.12s.31-.18.5-.53a2.83,2.83,0,0,0,.28-.62C180,203.19,180,203.16,180,203.16Z"/><path class="cls-12" d="M181,204.49q.71-.5,1.5-1.07a1.43,1.43,0,0,1-.53-.56.4.4,0,0,1,0-.13.35.35,0,0,1,.17-.35,1.3,1.3,0,0,1,.55-.08,3.34,3.34,0,0,1,.84.35,3,3,0,0,0,.89.35,1.83,1.83,0,0,0,.53-.11,1.85,1.85,0,0,1,.54-.11.4.4,0,0,1,.29.09,1.7,1.7,0,0,1,.32.52.18.18,0,0,1-.08.15l-.53.37-.88.64a6.41,6.41,0,0,0-.81.73,1.13,1.13,0,0,0-.38.65s0,0,.07,0q.7,0,4.73-2.86c.06,0,.09.05.09.16s-.34.48-1,1.12a22.56,22.56,0,0,1-2.32,1.88,4.06,4.06,0,0,1-1.88.92.81.81,0,0,1-.91-.91,1.63,1.63,0,0,1,.33-1,6.75,6.75,0,0,1,1.4-1.25,2.26,2.26,0,0,1-.6-.11.87.87,0,0,1-.48-.27l-1.17,1a.83.83,0,0,1-.51.14q-.31,0-.31-.1T181,204.49Z"/><path class="cls-12" d="M187.21,207.17q-1,0-1-1.23a2.73,2.73,0,0,1,.67-1.64,5.8,5.8,0,0,1,1.58-1.42,3.2,3.2,0,0,1,1.61-.55.84.84,0,0,1,.58.25.69.69,0,0,1,.27.48,1.45,1.45,0,0,1-.61,1,5.85,5.85,0,0,1-1.28.87,2.73,2.73,0,0,1-.88.33.34.34,0,0,1-.32-.2.23.23,0,0,0-.14,0q-.09,0-.3.35a1.18,1.18,0,0,0-.21.56.25.25,0,0,0,.16.27,4.82,4.82,0,0,0,2.14-.58,26.36,26.36,0,0,0,3.2-2l.44-.31.34-.25a.27.27,0,0,1,.12.22.31.31,0,0,1-.12.23,18.49,18.49,0,0,1-1.68,1.46,16.84,16.84,0,0,1-2.37,1.53A4.93,4.93,0,0,1,187.21,207.17ZM190,203a2.4,2.4,0,0,0-1.14.7q-.81.7-.81.85s0,0,0,0a2.79,2.79,0,0,0,1.14-.64q.85-.64.85-.87S190,203,190,203Z"/><path class="cls-12" d="M196.45,206.12c0,.08,0,.12.15.12a1.64,1.64,0,0,0,.55-.18,6.78,6.78,0,0,0,.95-.56q.55-.38,1.47-1.08t1.61-1.18a.27.27,0,0,1,.12.22.31.31,0,0,1-.12.23l-1.05,1q-.64.61-1.94,1.62a4.05,4.05,0,0,1-1.83,1q-1,0-1-1.07a1.49,1.49,0,0,1,.31-.85l.56-.77a.55.55,0,0,0,.08-.14s0,0-.08,0a24.66,24.66,0,0,1-2.88,2.22.48.48,0,0,1-.26.07q-.43,0-.43-.39a.44.44,0,0,1,.07-.23,10.08,10.08,0,0,1,1.16-1.47l.22-.22a.07.07,0,0,0,0-.05,0,0,0,0,0,0,0s0,0-.08.05l-1.39,1.1q-1.21,1-1.32,1a.43.43,0,0,1-.2.06.69.69,0,0,1-.29-.11q-.2-.11-.2-.25a.22.22,0,0,1,0-.1,19.09,19.09,0,0,0,1.86-2.32l.44-.7a3.84,3.84,0,0,1,.3-.44.32.32,0,0,1,.24-.13.46.46,0,0,1,.29.15.43.43,0,0,1,.16.31.63.63,0,0,1-.1.33,4.89,4.89,0,0,1-.69,1,.11.11,0,0,0,0,.07s0,0,0,0h0l1.74-1.21a2.79,2.79,0,0,1,.79-.46.57.57,0,0,1,.28.08c.1.06.15.12.15.19a.39.39,0,0,1-.07.21l-.84,1.16a1.12,1.12,0,0,0-.17.24s0,0,0,0l.07,0q1.62-1.11,2.2-1.54t.7-.55a.57.57,0,0,1,.31-.13.34.34,0,0,1,.16,0l.29.22a.19.19,0,0,1,.13.17.26.26,0,0,1-.05.17l-1.23,1.33-.67.73a2.18,2.18,0,0,0-.42.65A.68.68,0,0,0,196.45,206.12Z"/><path class="cls-12" d="M203.73,205.62a.68.68,0,0,0-.1.33c0,.1.05.14.16.14a1.13,1.13,0,0,0,.31-.08,35.94,35.94,0,0,0,4.76-3,.27.27,0,0,1,.12.22.34.34,0,0,1-.13.25l-.37.34-.92.8-1.26,1A8.27,8.27,0,0,1,204,207.1a1.88,1.88,0,0,1-.51.07q-1,0-1-1.07a2.68,2.68,0,0,1,.46-1.19,11.09,11.09,0,0,1,.94-1.37,2.83,2.83,0,0,1,.64-.66,1,1,0,0,1,.51-.14,1.32,1.32,0,0,1,.52.1.12.12,0,0,1,.08.1s0,.11-.12.2l-.38.4q-.25.27-.75.95A4.85,4.85,0,0,0,203.73,205.62Zm3.12-5.14a.21.21,0,0,1,.17.05.65.65,0,0,1,.18.36.36.36,0,0,1-.08.23l-.19.22a2.38,2.38,0,0,1-.44.34,1.18,1.18,0,0,1-.64.22.26.26,0,0,1-.23-.29,1,1,0,0,1,.47-.76A1.38,1.38,0,0,1,206.85,200.48Z"/><path class="cls-12" d="M210.89,201q.14,0,.31.21a.64.64,0,0,1,.17.32.2.2,0,0,1,0,.14q-.9.78-1.74,1.64t-1.25,1.33l-.39.47c-.07.07-.1.12-.1.14s0,0,0,0a.11.11,0,0,0,.07,0l.12-.09q2.13-1.9,3.31-1.9a.48.48,0,0,1,.29.09,1.06,1.06,0,0,1,.44.83,2,2,0,0,1-.66,1.18,6.46,6.46,0,0,1-1.62,1.26,3.47,3.47,0,0,1-1.61.54.92.92,0,0,1-.85-.34l-.14-.21h0q-.29,0-1.89,1.83a18.43,18.43,0,0,0-2.06,2.65q-.05.23-.21.23a.22.22,0,0,1-.14-.05l-.58-.46s-.05-.06-.05-.12a21.61,21.61,0,0,1,2-2.56q2-2.41,4.13-4.77T210.89,201Zm-3.3,5.51a3.08,3.08,0,0,0,1.31-.5,10.57,10.57,0,0,0,1.57-1.09q.69-.59.7-.82a0,0,0,0,0,0,0,3.28,3.28,0,0,0-1.2.58q-.92.58-1.7,1.17a5,5,0,0,0-.78.65S207.49,206.54,207.59,206.54Z"/><path class="cls-12" d="M213.39,206a1.05,1.05,0,0,0,.83-.55,3.7,3.7,0,0,0,.54-1.12,3.62,3.62,0,0,0,.16-.91c0-.06,0-.09-.14-.09a.55.55,0,0,0-.32.14l-1.7,1.32a.81.81,0,0,1-.42.1q-.23,0-.23-.17a.26.26,0,0,1,0-.16.88.88,0,0,1,.19-.13,28.61,28.61,0,0,0,2.63-2.17c.13-.17.25-.26.35-.26a2.32,2.32,0,0,1,.52.1c.24.07.36.14.36.23a6.54,6.54,0,0,1-.14,1.42,5.36,5.36,0,0,1-.29,1,3.12,3.12,0,0,0-.15.36,0,0,0,0,0,0,0l.1,0a18.45,18.45,0,0,0,2.48-1.62l.31-.24a.27.27,0,0,1,.12.22.31.31,0,0,1-.12.23s-.24.18-.67.55l-1.43,1.19a13.65,13.65,0,0,1-1.68,1.18,3.06,3.06,0,0,1-1.39.54q-1.22,0-1.22-1.47a.3.3,0,0,1,.1-.22.34.34,0,0,1,.25-.1.51.51,0,0,0,.07.2,1.21,1.21,0,0,0,.15.23A1,1,0,0,0,213.39,206Z"/><path class="cls-12" d="M219.8,205.77a35.27,35.27,0,0,0,4.26-2.78.27.27,0,0,1,.12.22.34.34,0,0,1-.13.25l-.37.34-.92.8-1.26,1a8.27,8.27,0,0,1-2.26,1.46,1.88,1.88,0,0,1-.51.07q-.44,0-.44-.69a1.23,1.23,0,0,1,.12-.43l.14-.33,0-.07,0,0a.08.08,0,0,0,0,0s0,0-.08,0a1.56,1.56,0,0,0-.43.35l-.6.55a3.81,3.81,0,0,1-.55.39,1.06,1.06,0,0,1-.5.18q-.52,0-.52-.48a1.74,1.74,0,0,1,.19-.7,7.56,7.56,0,0,1,1.36-1.93q.91-1,1.3-1a.38.38,0,0,1,.26.1.31.31,0,0,1,.12.23q0,.13-.26.39l-.66.67a4,4,0,0,0-.56.68,1,1,0,0,0-.16.37c0,.06,0,.09.1.09a.94.94,0,0,0,.38-.17q.74-.51,1.7-1.25a8.57,8.57,0,0,0,1.23-1.08q.07-.23.39-.24.62,0,.62.22t-.61.68q-1.83,1.76-1.83,2.18s0,.07.06.07A.62.62,0,0,0,219.8,205.77Z"/><path class="cls-12" d="M227.39,206.12c0,.08,0,.12.15.12a1.64,1.64,0,0,0,.55-.18,6.78,6.78,0,0,0,.95-.56q.55-.38,1.47-1.08t1.61-1.18a.27.27,0,0,1,.12.22.31.31,0,0,1-.12.23l-1.05,1q-.64.61-1.94,1.62a4.05,4.05,0,0,1-1.83,1q-1,0-1-1.07a1.49,1.49,0,0,1,.31-.85l.56-.77a.55.55,0,0,0,.08-.14s0,0-.08,0a24.66,24.66,0,0,1-2.88,2.22.48.48,0,0,1-.26.07q-.43,0-.43-.39a.44.44,0,0,1,.07-.23,10.08,10.08,0,0,1,1.16-1.47l.22-.22a.07.07,0,0,0,0-.05,0,0,0,0,0,0,0s0,0-.08.05l-1.39,1.1q-1.21,1-1.32,1a.43.43,0,0,1-.2.06.69.69,0,0,1-.29-.11q-.2-.11-.2-.25a.22.22,0,0,1,0-.1,19.09,19.09,0,0,0,1.86-2.32l.44-.7a3.84,3.84,0,0,1,.3-.44.32.32,0,0,1,.24-.13.46.46,0,0,1,.29.15.43.43,0,0,1,.16.31.63.63,0,0,1-.1.33,4.89,4.89,0,0,1-.69,1,.11.11,0,0,0,0,.07s0,0,0,0h0l1.74-1.21a2.79,2.79,0,0,1,.79-.46.57.57,0,0,1,.28.08c.1.06.15.12.15.19a.39.39,0,0,1-.07.21l-.84,1.16a1.12,1.12,0,0,0-.17.24s0,0,0,0l.07,0q1.62-1.11,2.2-1.54t.7-.55a.57.57,0,0,1,.31-.13.34.34,0,0,1,.16,0l.29.22a.19.19,0,0,1,.13.17.26.26,0,0,1-.05.17l-1.23,1.33-.67.73a2.18,2.18,0,0,0-.42.65A.68.68,0,0,0,227.39,206.12Z"/><path class="cls-12" d="M236.51,206s0,0,.08,0a4,4,0,0,0,.76-.39q1.77-1,4.16-2.69a.27.27,0,0,1,.12.22.34.34,0,0,1-.13.25l-.37.34-.92.8-1.26,1a8.27,8.27,0,0,1-2.26,1.46,1.88,1.88,0,0,1-.51.07,1.06,1.06,0,0,1-.47-.2.45.45,0,0,1-.21-.37,3,3,0,0,1,.1-.62c.06-.27.1-.42.1-.44s0,0,0,0l-.07.05-.43.45a7,7,0,0,1-.89.72,2,2,0,0,1-1,.45l-.16,0a.7.7,0,0,1-.25-.22.78.78,0,0,1-.16-.52,2.15,2.15,0,0,1,.51-1,9.36,9.36,0,0,1,1.23-1.37,8.64,8.64,0,0,1,1.6-1.17,3.18,3.18,0,0,1,1.52-.5q.23,0,.39.35a6.58,6.58,0,0,1,.84-1.18,19.91,19.91,0,0,1,2-2.19,3.29,3.29,0,0,1,1.83-1.1c.15,0,.22.07.22.21a1.67,1.67,0,0,1-.44.89,9.79,9.79,0,0,1-.94,1l-1.29,1.21a25.66,25.66,0,0,0-2.76,2.84A3.64,3.64,0,0,0,236.51,206Zm-2.25-.2a3.28,3.28,0,0,0,1-.64q.8-.64,1.53-1.28l.71-.64s.05-.06.05-.07,0,0,0,0a2.45,2.45,0,0,0-1.29.57,8.69,8.69,0,0,0-1.37,1.2q-.58.63-.58.85A0,0,0,0,0,234.26,205.84Z"/><path class="cls-12" d="M242.61,204.85a2.72,2.72,0,0,0,1.14-.44,12.78,12.78,0,0,0,1.36-.89l.58-.46a.27.27,0,0,1,.12.22.31.31,0,0,1-.12.23q-2.14,2-3.25,2l-.23,0q-1.47,1.71-2.52,1.71a.93.93,0,0,1-1-1,3.49,3.49,0,0,1,1-2.05,5.81,5.81,0,0,1,2.48-1.75.28.28,0,0,1,.19.06.23.23,0,0,0,.12.07.22.22,0,0,0,.14-.05.42.42,0,0,1,.23-.07.4.4,0,0,1,.3.16.52.52,0,0,1,.21.42A3.71,3.71,0,0,1,242.61,204.85Zm-2.83,1.51a1.72,1.72,0,0,0,1-.55q.61-.55.64-.76a1.54,1.54,0,0,1-.33-.48,2.64,2.64,0,0,0-.19-.35,4.4,4.4,0,0,0-.71.87,3,3,0,0,0-.49,1.15C239.72,206.32,239.74,206.36,239.78,206.36Zm2.81-3.2q-.13,0-.54.4t-.41.56a.4.4,0,0,0,.08.16c.05.08.09.12.12.12s.31-.18.5-.53a2.83,2.83,0,0,0,.28-.62C242.61,203.19,242.6,203.16,242.59,203.16Z"/><path class="cls-12" d="M245,206.07a4.53,4.53,0,0,0,1.7-.77q1.27-.77,2.31-1.54l1.05-.77a.27.27,0,0,1,.12.22.34.34,0,0,1-.13.25l-.37.34-.92.8-1.26,1a8.28,8.28,0,0,1-2.26,1.46,1.78,1.78,0,0,1-.48.07,1.54,1.54,0,0,1-.39,0,.93.93,0,0,1-.31-.17,1.71,1.71,0,0,1-.34-1.28,2.47,2.47,0,0,1,.23-.84,8.06,8.06,0,0,1,.77-1.36A14.36,14.36,0,0,1,246,201.9a11.5,11.5,0,0,1,1.83-1.59,11,11,0,0,1,2.37-1.29,1.13,1.13,0,0,1,.35-.07.39.39,0,0,1,.29.14.81.81,0,0,1,.18.28l.07.13q0,.3-.92,1.32a16.41,16.41,0,0,1-2.19,2q-1.24,1-2.31,1.64-.87.57-.87,1.2Q244.82,206.07,245,206.07Zm1.17-2.7q.32,0,2-1.6a9.59,9.59,0,0,0,1.64-1.79v0l-.22.1a14.21,14.21,0,0,0-1.8,1.51,13.39,13.39,0,0,0-1.55,1.67.2.2,0,0,0-.05.1S246.2,203.37,246.21,203.37Z"/><path class="cls-12" d="M251.15,204.85a2.72,2.72,0,0,0,1.14-.44,12.77,12.77,0,0,0,1.36-.89l.58-.46a.27.27,0,0,1,.12.22.31.31,0,0,1-.12.23q-2.14,2-3.25,2l-.23,0q-1.47,1.71-2.52,1.71a.93.93,0,0,1-1-1,3.49,3.49,0,0,1,1-2.05,5.81,5.81,0,0,1,2.48-1.75.28.28,0,0,1,.19.06.23.23,0,0,0,.12.07.22.22,0,0,0,.14-.05.42.42,0,0,1,.23-.07.4.4,0,0,1,.3.16.52.52,0,0,1,.21.42A3.71,3.71,0,0,1,251.15,204.85Zm-2.83,1.51a1.72,1.72,0,0,0,1-.55q.61-.55.64-.76a1.54,1.54,0,0,1-.33-.48,2.64,2.64,0,0,0-.19-.35,4.4,4.4,0,0,0-.71.87,3,3,0,0,0-.49,1.15C248.25,206.32,248.28,206.36,248.32,206.36Zm2.81-3.2q-.13,0-.54.4t-.41.56a.4.4,0,0,0,.08.16c.05.08.09.12.12.12s.31-.18.5-.53a2.83,2.83,0,0,0,.28-.62C251.15,203.19,251.14,203.16,251.13,203.16Z"/><path class="cls-12" d="M252.21,204.49q.71-.5,1.5-1.07a1.44,1.44,0,0,1-.53-.56.38.38,0,0,1,0-.13.35.35,0,0,1,.17-.35,1.3,1.3,0,0,1,.55-.08,3.36,3.36,0,0,1,.85.35,3,3,0,0,0,.89.35,1.83,1.83,0,0,0,.53-.11,1.85,1.85,0,0,1,.54-.11.4.4,0,0,1,.29.09,1.71,1.71,0,0,1,.33.52.18.18,0,0,1-.08.15l-.53.37-.88.64a6.34,6.34,0,0,0-.81.73,1.13,1.13,0,0,0-.38.65s0,0,.07,0q.7,0,4.73-2.86c.06,0,.09.05.09.16s-.34.48-1,1.12a22.4,22.4,0,0,1-2.32,1.88,4,4,0,0,1-1.88.92.81.81,0,0,1-.91-.91,1.63,1.63,0,0,1,.33-1,6.75,6.75,0,0,1,1.4-1.25,2.26,2.26,0,0,1-.6-.11.87.87,0,0,1-.48-.27l-1.17,1a.83.83,0,0,1-.51.14q-.31,0-.31-.1T252.21,204.49Z"/><path class="cls-12" d="M261.91,206a1.05,1.05,0,0,0,.83-.55,3.73,3.73,0,0,0,.54-1.12,3.64,3.64,0,0,0,.16-.91c0-.06,0-.09-.14-.09a.55.55,0,0,0-.32.14l-1.7,1.32a.82.82,0,0,1-.42.1c-.16,0-.23-.06-.23-.17a.27.27,0,0,1,0-.16.88.88,0,0,1,.19-.13,28.69,28.69,0,0,0,2.63-2.17c.13-.17.25-.26.35-.26a2.32,2.32,0,0,1,.52.1c.24.07.36.14.36.23a6.54,6.54,0,0,1-.14,1.42,5.36,5.36,0,0,1-.29,1,3,3,0,0,0-.15.36,0,0,0,0,0,0,0l.1,0a18.39,18.39,0,0,0,2.48-1.62l.31-.24a.27.27,0,0,1,.12.22.31.31,0,0,1-.12.23s-.24.18-.67.55l-1.43,1.19a13.74,13.74,0,0,1-1.68,1.18,3.06,3.06,0,0,1-1.39.54q-1.22,0-1.22-1.47a.3.3,0,0,1,.1-.22.35.35,0,0,1,.25-.1.51.51,0,0,0,.07.2,1.21,1.21,0,0,0,.15.23A1,1,0,0,0,261.91,206Z"/><path class="cls-12" d="M266.33,205.62a.67.67,0,0,0-.1.33c0,.1.05.14.16.14a1.13,1.13,0,0,0,.31-.08,35.9,35.9,0,0,0,4.76-3,.27.27,0,0,1,.12.22.34.34,0,0,1-.13.25l-.37.34-.92.8-1.26,1a8.29,8.29,0,0,1-2.26,1.46,1.89,1.89,0,0,1-.51.07q-1,0-1-1.07a2.68,2.68,0,0,1,.45-1.19,11.15,11.15,0,0,1,.94-1.37,2.83,2.83,0,0,1,.64-.66,1,1,0,0,1,.51-.14,1.33,1.33,0,0,1,.52.1.12.12,0,0,1,.08.1s0,.11-.12.2l-.38.4q-.25.27-.75.95A4.81,4.81,0,0,0,266.33,205.62Zm3.12-5.14a.21.21,0,0,1,.17.05.65.65,0,0,1,.18.36.36.36,0,0,1-.08.23l-.19.22a2.4,2.4,0,0,1-.44.34,1.18,1.18,0,0,1-.64.22.26.26,0,0,1-.23-.29,1,1,0,0,1,.47-.76A1.38,1.38,0,0,1,269.45,200.48Z"/><path class="cls-12" d="M274.75,200.91h.66a3.66,3.66,0,0,1,1.87.37c.19.06.29.14.29.24s-.08.12-.25.14l-1.75.2q-1.5.16-2.06.19-.25,0-1.14.86a18.1,18.1,0,0,0-1.7,1.87,3.14,3.14,0,0,0-.81,1.42.13.13,0,0,0,.06.11.28.28,0,0,0,.16,0,1,1,0,0,0,.31-.08,54.27,54.27,0,0,0,4.8-3.2.27.27,0,0,1,.12.22.36.36,0,0,1-.13.25l-.38.36-.94.85q-.69.61-1.3,1.1a9.43,9.43,0,0,1-2.29,1.54,2.1,2.1,0,0,1-.55.06.76.76,0,0,1-.58-.33,1.36,1.36,0,0,1-.27-.89,3.34,3.34,0,0,1,.72-1.62,12.07,12.07,0,0,1,2-2.17c.08-.06.12-.12.12-.17s-.09-.08-.27-.08l-.82,0q-1.73,0-1.78-.39-.4-.08-.4-.24a.05.05,0,0,1,.05-.06h.09l.13,0,1.44-.21q1.35-.2,3.06-.33l.9-1.2q.08-.16.55-.16t.47.2a.58.58,0,0,1-.1.23l-.32.46a2,2,0,0,0-.08.31C274.57,200.88,274.63,200.91,274.75,200.91Z"/><path class="cls-12" d="M278.42,206.39l.1-.84s0,0,0,0l-.07.05L278,206a7,7,0,0,1-.89.72,2,2,0,0,1-1,.45l-.16,0a.71.71,0,0,1-.25-.22.78.78,0,0,1-.16-.52,2.15,2.15,0,0,1,.51-1,10.12,10.12,0,0,1,1.23-1.37,8.17,8.17,0,0,1,1.59-1.17,3.22,3.22,0,0,1,1.53-.5q.25,0,.39.35a.36.36,0,0,1,.23-.13.39.39,0,0,1,.25.16.32.32,0,0,1,.16.08.26.26,0,0,1,.08.2.42.42,0,0,1-.18.29l-.64.77-.52.62-.33.42a1.55,1.55,0,0,0-.31.65,30.45,30.45,0,0,0,4.17-2.75.27.27,0,0,1,.12.22.28.28,0,0,1-.1.22l-.25.22-.59.51-.85.72-.94.77q-.53.42-.94.72a3.72,3.72,0,0,1-1.25.72.39.39,0,0,1-.35-.16A1.08,1.08,0,0,1,278.42,206.39Zm-1.33-.55a3.28,3.28,0,0,0,1-.64q.8-.64,1.51-1.28l.73-.64s.05-.06.05-.07,0,0,0,0a2.45,2.45,0,0,0-1.29.57,8.72,8.72,0,0,0-1.37,1.2q-.58.63-.58.85A0,0,0,0,0,277.09,205.84Z"/><path class="cls-12" d="M286.94,206.12c0,.08,0,.12.15.12a1.64,1.64,0,0,0,.55-.18,6.72,6.72,0,0,0,.95-.56q.55-.38,1.47-1.08t1.6-1.18a.27.27,0,0,1,.12.22.31.31,0,0,1-.12.23l-1.05,1q-.64.61-1.94,1.62a4,4,0,0,1-1.83,1q-1,0-1-1.07a1.49,1.49,0,0,1,.31-.85l.56-.77a.55.55,0,0,0,.08-.14s0,0-.08,0a24.74,24.74,0,0,1-2.89,2.22.48.48,0,0,1-.26.07c-.29,0-.43-.13-.43-.39a.44.44,0,0,1,.07-.23,10.07,10.07,0,0,1,1.16-1.47l.22-.22a.07.07,0,0,0,0-.05,0,0,0,0,0,0,0s0,0-.08.05l-1.39,1.1q-1.21,1-1.32,1a.44.44,0,0,1-.2.06.69.69,0,0,1-.29-.11c-.13-.07-.19-.16-.19-.25a.23.23,0,0,1,0-.1,19.12,19.12,0,0,0,1.86-2.32l.43-.7a3.9,3.9,0,0,1,.3-.44.32.32,0,0,1,.24-.13.46.46,0,0,1,.29.15.43.43,0,0,1,.16.31.63.63,0,0,1-.1.33,4.93,4.93,0,0,1-.69,1,.11.11,0,0,0,0,.07s0,0,0,0h0l1.74-1.21a2.8,2.8,0,0,1,.79-.46.58.58,0,0,1,.28.08q.15.09.15.19a.4.4,0,0,1-.06.21l-.85,1.16a1.12,1.12,0,0,0-.17.24s0,0,0,0l.07,0q1.62-1.11,2.2-1.54t.69-.55a.57.57,0,0,1,.31-.13.33.33,0,0,1,.16,0l.29.22a.19.19,0,0,1,.13.17.26.26,0,0,1-.05.17l-1.23,1.33-.67.73a2.16,2.16,0,0,0-.42.65A.68.68,0,0,0,286.94,206.12Z"/><path class="cls-12" d="M290.79,207.17q-1,0-1-1.23a2.73,2.73,0,0,1,.67-1.64,5.77,5.77,0,0,1,1.58-1.42,3.2,3.2,0,0,1,1.61-.55.84.84,0,0,1,.58.25.69.69,0,0,1,.27.48,1.45,1.45,0,0,1-.61,1,5.85,5.85,0,0,1-1.28.87,2.73,2.73,0,0,1-.88.33.34.34,0,0,1-.32-.2.23.23,0,0,0-.14,0q-.09,0-.3.35a1.19,1.19,0,0,0-.21.56.25.25,0,0,0,.16.27,4.82,4.82,0,0,0,2.14-.58,26.32,26.32,0,0,0,3.2-2l.44-.31L297,203a.27.27,0,0,1,.12.22.31.31,0,0,1-.12.23,18.57,18.57,0,0,1-1.68,1.46,16.78,16.78,0,0,1-2.37,1.53A4.93,4.93,0,0,1,290.79,207.17Zm2.77-4.17a2.4,2.4,0,0,0-1.14.7q-.81.7-.81.85s0,0,0,0a2.79,2.79,0,0,0,1.14-.64q.85-.64.85-.87S293.61,203,293.56,203Z"/><path class="cls-12" d="M300.23,200.91h.66a3.66,3.66,0,0,1,1.87.37c.19.06.29.14.29.24s-.08.12-.25.14l-1.75.2q-1.5.16-2.06.19-.25,0-1.14.86a18.1,18.1,0,0,0-1.7,1.87,3.14,3.14,0,0,0-.81,1.42.13.13,0,0,0,.06.11.28.28,0,0,0,.16,0,1,1,0,0,0,.31-.08,54.27,54.27,0,0,0,4.8-3.2.27.27,0,0,1,.12.22.36.36,0,0,1-.13.25l-.38.36-.94.85q-.69.61-1.3,1.1a9.43,9.43,0,0,1-2.29,1.54,2.1,2.1,0,0,1-.55.06.76.76,0,0,1-.58-.33,1.36,1.36,0,0,1-.27-.89,3.34,3.34,0,0,1,.72-1.62,12.07,12.07,0,0,1,2-2.17c.08-.06.12-.12.12-.17s-.09-.08-.27-.08l-.82,0q-1.73,0-1.78-.39-.4-.08-.4-.24a.05.05,0,0,1,.05-.06H294l.13,0,1.44-.21q1.35-.2,3.06-.33l.9-1.2q.08-.16.55-.16t.47.2a.58.58,0,0,1-.1.23l-.32.46a2,2,0,0,0-.08.31C300,200.88,300.1,200.91,300.23,200.91Z"/><path class="cls-12" d="M300.6,205.82c.09,0,.14,0,.17.05a.64.64,0,0,1,.18.35,1.7,1.7,0,0,1-.49.82q-.69.8-.9.8a0,0,0,0,1,0,0,.25.25,0,0,1,.05-.12,4.1,4.1,0,0,0,.26-.38l.08-.13a1,1,0,0,1-.31.07.26.26,0,0,1-.23-.29,1,1,0,0,1,.47-.76A1.38,1.38,0,0,1,300.6,205.82Z"/><path class="cls-12" d="M309.71,202.9a1.29,1.29,0,0,1-.58.93,2.11,2.11,0,0,1-1.37.46c-.23,0-.34-.07-.34-.2s0-.09.12-.12a3.51,3.51,0,0,0,1-.74.26.26,0,0,0,0-.12.06.06,0,0,0-.06-.07,3.64,3.64,0,0,0-2.11,1.21,2.94,2.94,0,0,0-1,1.64c0,.18.07.27.21.27a4.37,4.37,0,0,0,2-.56,31.37,31.37,0,0,0,3.17-2.06l.44-.31.34-.25a.27.27,0,0,1,.12.22.31.31,0,0,1-.12.23,18.57,18.57,0,0,1-1.68,1.46,16.78,16.78,0,0,1-2.37,1.53,4.93,4.93,0,0,1-2.18.72q-1,0-1-1.07a2.52,2.52,0,0,1,.49-1.45,4.59,4.59,0,0,1,1.21-1.19,7.21,7.21,0,0,1,1.5-.78,3.78,3.78,0,0,1,1.25-.29,1.34,1.34,0,0,1,.68.13c.14.09.21.17.22.26Z"/><path class="cls-12" d="M312.78,204.85a2.72,2.72,0,0,0,1.14-.44,12.62,12.62,0,0,0,1.36-.89l.58-.46a.27.27,0,0,1,.12.22.31.31,0,0,1-.12.23q-2.14,2-3.25,2l-.23,0q-1.47,1.71-2.52,1.71a1.06,1.06,0,0,1-.88-.5,1,1,0,0,1-.1-.5,3.49,3.49,0,0,1,1-2.05,5.81,5.81,0,0,1,2.48-1.75.28.28,0,0,1,.2.06.23.23,0,0,0,.12.07.22.22,0,0,0,.14-.05.43.43,0,0,1,.23-.07.4.4,0,0,1,.3.16.52.52,0,0,1,.21.42A3.71,3.71,0,0,1,312.78,204.85Zm-2.83,1.51a1.72,1.72,0,0,0,1-.55q.61-.55.64-.76a1.56,1.56,0,0,1-.33-.48,2.72,2.72,0,0,0-.19-.35,4.44,4.44,0,0,0-.71.87,3,3,0,0,0-.49,1.15C309.88,206.32,309.9,206.36,309.95,206.36Zm2.81-3.2q-.13,0-.54.4t-.41.56a.4.4,0,0,0,.08.16c.05.08.09.12.12.12s.31-.18.5-.53a2.83,2.83,0,0,0,.28-.62Q312.78,203.16,312.76,203.16Z"/><path class="cls-12" d="M316.32,202.62a1,1,0,0,1,.34.1c.16.07.24.15.24.23a.32.32,0,0,1-.06.18l-1,1.36a1.12,1.12,0,0,0-.17.24s0,0,0,0l.06,0q1.51-1.06,2.48-1.85a.57.57,0,0,1,.31-.13.32.32,0,0,1,.16,0l.36.1a.19.19,0,0,1,.13.17.26.26,0,0,1-.05.17l-.56.62-.47.52-.35.4-.28.34-.19.27a1.18,1.18,0,0,0-.14.25,2.13,2.13,0,0,0-.08.52c0,.08,0,.12.15.12a1.64,1.64,0,0,0,.55-.18,6.72,6.72,0,0,0,.95-.56q.55-.38,1.47-1.08t1.61-1.18a.27.27,0,0,1,.12.22.31.31,0,0,1-.12.23l-1.05,1q-.64.61-1.94,1.62a4,4,0,0,1-1.83,1q-1,0-1-1.07a1.49,1.49,0,0,1,.31-.85l.56-.77a.57.57,0,0,0,.08-.14s0,0-.08,0a24.74,24.74,0,0,1-2.89,2.22.48.48,0,0,1-.26.07q-.43,0-.43-.39a.43.43,0,0,1,.06-.23,9.82,9.82,0,0,0,1.35-1.45,4.84,4.84,0,0,0,.66-.87q.34-.56.58-.93T316.32,202.62Z"/><path class="cls-12" d="M321.34,206a1.05,1.05,0,0,0,.83-.55,3.73,3.73,0,0,0,.54-1.12,3.64,3.64,0,0,0,.16-.91c0-.06,0-.09-.14-.09a.55.55,0,0,0-.32.14l-1.7,1.32a.82.82,0,0,1-.42.1c-.16,0-.23-.06-.23-.17a.27.27,0,0,1,0-.16.88.88,0,0,1,.19-.13,28.69,28.69,0,0,0,2.63-2.17c.13-.17.25-.26.35-.26a2.32,2.32,0,0,1,.52.1c.24.07.36.14.36.23a6.54,6.54,0,0,1-.14,1.42,5.36,5.36,0,0,1-.29,1,3,3,0,0,0-.15.36,0,0,0,0,0,0,0l.1,0a18.39,18.39,0,0,0,2.48-1.62l.31-.24a.27.27,0,0,1,.12.22.31.31,0,0,1-.12.23s-.24.18-.67.55l-1.43,1.19a13.74,13.74,0,0,1-1.68,1.18,3.06,3.06,0,0,1-1.39.54q-1.22,0-1.22-1.47a.3.3,0,0,1,.1-.22.35.35,0,0,1,.25-.1.51.51,0,0,0,.07.2,1.21,1.21,0,0,0,.15.23A1,1,0,0,0,321.34,206Z"/><path class="cls-12" d="M325.58,207.17q-1,0-1-1.23a2.73,2.73,0,0,1,.67-1.64,5.77,5.77,0,0,1,1.58-1.42,3.2,3.2,0,0,1,1.61-.55.84.84,0,0,1,.58.25.69.69,0,0,1,.27.48,1.45,1.45,0,0,1-.61,1,5.85,5.85,0,0,1-1.28.87,2.73,2.73,0,0,1-.88.33.34.34,0,0,1-.32-.2.23.23,0,0,0-.14,0q-.09,0-.3.35a1.19,1.19,0,0,0-.21.56.25.25,0,0,0,.16.27,4.82,4.82,0,0,0,2.14-.58,26.32,26.32,0,0,0,3.2-2l.44-.31.34-.25a.27.27,0,0,1,.12.22.31.31,0,0,1-.12.23,18.57,18.57,0,0,1-1.68,1.46,16.78,16.78,0,0,1-2.37,1.53A4.93,4.93,0,0,1,325.58,207.17Zm2.77-4.17a2.4,2.4,0,0,0-1.14.7q-.81.7-.81.85s0,0,0,0a2.79,2.79,0,0,0,1.14-.64q.85-.64.85-.87S328.4,203,328.35,203Z"/><path class="cls-12" d="M334.51,202.9a1.29,1.29,0,0,1-.58.93,2.11,2.11,0,0,1-1.37.46c-.23,0-.34-.07-.34-.2s0-.09.12-.12a3.51,3.51,0,0,0,1-.74.26.26,0,0,0,0-.12.06.06,0,0,0-.06-.07,3.64,3.64,0,0,0-2.11,1.21,2.94,2.94,0,0,0-1,1.64c0,.18.07.27.21.27a4.37,4.37,0,0,0,2-.56,31.37,31.37,0,0,0,3.17-2.06l.44-.31.34-.25a.27.27,0,0,1,.12.22.31.31,0,0,1-.12.23,18.57,18.57,0,0,1-1.68,1.46,16.78,16.78,0,0,1-2.37,1.53,4.93,4.93,0,0,1-2.18.72q-1,0-1-1.07a2.52,2.52,0,0,1,.49-1.45,4.59,4.59,0,0,1,1.21-1.19,7.21,7.21,0,0,1,1.5-.78,3.78,3.78,0,0,1,1.25-.29,1.34,1.34,0,0,1,.68.13c.14.09.21.17.22.26Z"/><path class="cls-12" d="M337,203.22l1.47,0c.38,0,.75,0,1.12,0a.45.45,0,0,1,.18,0,.63.63,0,0,1,.57.4.42.42,0,0,1,.1.26.34.34,0,0,1-.27.38l-3.22-.07a.54.54,0,0,1-.19,0,.14.14,0,0,1-.11,0,.3.3,0,0,1,0-.16l.13-.74A.57.57,0,0,1,337,203.22Z"/><path class="cls-12" d="M167.06,216.56h.66a3.66,3.66,0,0,1,1.87.37q.29.09.29.24c0,.07-.08.12-.25.14l-1.75.2q-1.5.16-2.06.19-.25,0-1.14.86a18,18,0,0,0-1.7,1.87,3.13,3.13,0,0,0-.81,1.42.13.13,0,0,0,.07.11.27.27,0,0,0,.16,0,1,1,0,0,0,.31-.08,54.12,54.12,0,0,0,4.8-3.2.27.27,0,0,1,.12.22.36.36,0,0,1-.13.25l-.38.36-.94.85q-.69.61-1.3,1.1a9.4,9.4,0,0,1-2.29,1.54,2.1,2.1,0,0,1-.55.06.76.76,0,0,1-.58-.33,1.36,1.36,0,0,1-.27-.89,3.35,3.35,0,0,1,.72-1.62,12.1,12.1,0,0,1,2-2.17c.08-.06.12-.12.12-.17s-.09-.08-.27-.08l-.82,0q-1.73,0-1.78-.39-.4-.08-.4-.24a.05.05,0,0,1,.05-.06h.09l.13,0,1.44-.21q1.35-.2,3.06-.33l.9-1.2q.08-.16.55-.16t.47.2a.59.59,0,0,1-.1.23l-.32.46a2,2,0,0,0-.08.31C166.88,216.53,166.94,216.56,167.06,216.56Z"/><path class="cls-12" d="M166.43,222.82q-1,0-1-1.23a2.73,2.73,0,0,1,.67-1.64,5.8,5.8,0,0,1,1.58-1.42,3.2,3.2,0,0,1,1.61-.55.84.84,0,0,1,.58.25.69.69,0,0,1,.27.48,1.45,1.45,0,0,1-.61,1,5.85,5.85,0,0,1-1.28.87,2.73,2.73,0,0,1-.88.33.34.34,0,0,1-.32-.2.23.23,0,0,0-.14,0q-.09,0-.3.35a1.18,1.18,0,0,0-.21.56.25.25,0,0,0,.16.27,4.82,4.82,0,0,0,2.14-.58,26.36,26.36,0,0,0,3.2-2l.44-.31.34-.25a.27.27,0,0,1,.12.22.31.31,0,0,1-.12.23,18.49,18.49,0,0,1-1.68,1.46,16.84,16.84,0,0,1-2.37,1.53A4.93,4.93,0,0,1,166.43,222.82Zm2.77-4.17a2.4,2.4,0,0,0-1.14.7q-.81.7-.81.85s0,0,0,0a2.79,2.79,0,0,0,1.14-.64q.85-.64.85-.87S169.25,218.65,169.2,218.65Z"/><path class="cls-12" d="M175.86,216.56h.66a3.66,3.66,0,0,1,1.87.37q.29.09.29.24c0,.07-.08.12-.25.14l-1.75.2q-1.5.16-2.06.19-.25,0-1.14.86a18,18,0,0,0-1.7,1.87,3.13,3.13,0,0,0-.81,1.42.13.13,0,0,0,.07.11.27.27,0,0,0,.16,0,1,1,0,0,0,.31-.08,54.12,54.12,0,0,0,4.8-3.2.27.27,0,0,1,.12.22.36.36,0,0,1-.13.25l-.38.36-.94.85q-.69.61-1.3,1.1a9.4,9.4,0,0,1-2.29,1.54,2.1,2.1,0,0,1-.55.06.76.76,0,0,1-.58-.33,1.36,1.36,0,0,1-.27-.89,3.35,3.35,0,0,1,.72-1.62,12.1,12.1,0,0,1,2-2.17c.08-.06.12-.12.12-.17s-.09-.08-.27-.08l-.82,0q-1.73,0-1.78-.39-.4-.08-.4-.24a.05.05,0,0,1,.05-.06h.09l.13,0,1.44-.21q1.35-.2,3.06-.33l.9-1.2q.08-.16.55-.16t.47.2a.59.59,0,0,1-.1.23l-.32.46a2,2,0,0,0-.08.31C175.68,216.53,175.74,216.56,175.86,216.56Z"/><path class="cls-12" d="M177.4,221.43a35.27,35.27,0,0,0,4.26-2.78.27.27,0,0,1,.12.22.34.34,0,0,1-.13.25l-.37.34-.92.8-1.26,1a8.27,8.27,0,0,1-2.26,1.46,1.88,1.88,0,0,1-.51.07q-.44,0-.44-.69a1.23,1.23,0,0,1,.12-.43l.14-.33,0-.07,0,0a.08.08,0,0,0,0,0s0,0-.08,0a1.56,1.56,0,0,0-.43.35l-.6.55a3.81,3.81,0,0,1-.55.39,1.06,1.06,0,0,1-.5.18q-.52,0-.52-.48a1.74,1.74,0,0,1,.19-.7,7.56,7.56,0,0,1,1.36-1.93q.91-1,1.3-1a.38.38,0,0,1,.26.1.31.31,0,0,1,.12.23q0,.13-.26.39l-.66.67a4,4,0,0,0-.56.68,1,1,0,0,0-.16.37c0,.06,0,.09.1.09a.94.94,0,0,0,.38-.17q.74-.51,1.7-1.25a8.57,8.57,0,0,0,1.23-1.08q.07-.23.39-.24.62,0,.62.22t-.61.68q-1.83,1.76-1.83,2.18s0,.07.06.07A.62.62,0,0,0,177.4,221.43Z"/><path class="cls-12" d="M180.48,222.82q-1,0-1-1.23a2.73,2.73,0,0,1,.67-1.64,5.8,5.8,0,0,1,1.58-1.42,3.2,3.2,0,0,1,1.61-.55.84.84,0,0,1,.58.25.69.69,0,0,1,.27.48,1.45,1.45,0,0,1-.61,1,5.85,5.85,0,0,1-1.28.87,2.73,2.73,0,0,1-.88.33.34.34,0,0,1-.32-.2.23.23,0,0,0-.14,0q-.09,0-.3.35a1.18,1.18,0,0,0-.21.56.25.25,0,0,0,.16.27,4.82,4.82,0,0,0,2.14-.58,26.36,26.36,0,0,0,3.2-2l.44-.31.34-.25a.27.27,0,0,1,.12.22.31.31,0,0,1-.12.23,18.49,18.49,0,0,1-1.68,1.46,16.84,16.84,0,0,1-2.37,1.53A4.93,4.93,0,0,1,180.48,222.82Zm2.77-4.17a2.4,2.4,0,0,0-1.14.7q-.81.7-.81.85s0,0,0,0a2.79,2.79,0,0,0,1.14-.64q.85-.64.85-.87S183.3,218.65,183.24,218.65Z"/><path class="cls-12" d="M184.54,220.15q.71-.5,1.5-1.07a1.43,1.43,0,0,1-.53-.56.4.4,0,0,1,0-.13.35.35,0,0,1,.17-.35,1.3,1.3,0,0,1,.55-.08,3.34,3.34,0,0,1,.84.35,3,3,0,0,0,.89.35,1.83,1.83,0,0,0,.53-.11,1.85,1.85,0,0,1,.54-.11.4.4,0,0,1,.29.09,1.7,1.7,0,0,1,.32.52.18.18,0,0,1-.08.15l-.53.37-.88.64a6.41,6.41,0,0,0-.81.73,1.13,1.13,0,0,0-.38.65s0,0,.07,0q.7,0,4.73-2.86c.06,0,.09.05.09.16s-.34.48-1,1.12a22.56,22.56,0,0,1-2.32,1.88,4.06,4.06,0,0,1-1.88.92.81.81,0,0,1-.91-.91,1.63,1.63,0,0,1,.33-1,6.75,6.75,0,0,1,1.4-1.25,2.26,2.26,0,0,1-.6-.11.87.87,0,0,1-.48-.27l-1.17,1a.83.83,0,0,1-.51.14q-.31,0-.31-.1T184.54,220.15Z"/><path class="cls-12" d="M195,222l.1-.84s0,0,0,0l-.07.05-.43.45a7,7,0,0,1-.89.72,2,2,0,0,1-1,.45l-.16,0a.7.7,0,0,1-.25-.22.78.78,0,0,1-.16-.52,2.14,2.14,0,0,1,.51-1,10.11,10.11,0,0,1,1.23-1.37,8.19,8.19,0,0,1,1.59-1.17A3.22,3.22,0,0,1,197,218q.25,0,.39.35a.36.36,0,0,1,.23-.13.38.38,0,0,1,.25.16.31.31,0,0,1,.16.08.26.26,0,0,1,.08.2.42.42,0,0,1-.18.29l-.64.77-.52.62c-.1.13-.21.27-.32.42a1.54,1.54,0,0,0-.31.65,30.49,30.49,0,0,0,4.17-2.75.27.27,0,0,1,.12.22.29.29,0,0,1-.1.22l-.25.22-.59.51-.85.72-.94.77q-.53.42-.94.72a3.73,3.73,0,0,1-1.25.72.39.39,0,0,1-.35-.16A1.08,1.08,0,0,1,195,222Zm-1.33-.55a3.28,3.28,0,0,0,1-.64q.8-.64,1.51-1.28l.73-.64s.05-.06.05-.07,0,0,0,0a2.45,2.45,0,0,0-1.29.57,8.69,8.69,0,0,0-1.37,1.2q-.58.63-.58.85A0,0,0,0,0,193.69,221.49Z"/><path class="cls-12" d="M201.05,221.69s0,0,.08,0a4,4,0,0,0,.76-.39q1.77-1,4.16-2.69a.27.27,0,0,1,.12.22.34.34,0,0,1-.13.25l-.37.34-.92.8-1.26,1a8.27,8.27,0,0,1-2.26,1.46,1.88,1.88,0,0,1-.51.07,1.06,1.06,0,0,1-.47-.2.45.45,0,0,1-.21-.37,3,3,0,0,1,.1-.62c.06-.27.1-.42.1-.44s0,0,0,0l-.07.05-.43.45a7,7,0,0,1-.89.72,2,2,0,0,1-1,.45l-.16,0a.7.7,0,0,1-.25-.22.78.78,0,0,1-.16-.52,2.15,2.15,0,0,1,.51-1,9.36,9.36,0,0,1,1.23-1.37,8.64,8.64,0,0,1,1.6-1.17,3.18,3.18,0,0,1,1.52-.5q.23,0,.39.35a6.58,6.58,0,0,1,.84-1.18,19.91,19.91,0,0,1,2-2.19,3.29,3.29,0,0,1,1.83-1.1c.15,0,.22.07.22.21a1.67,1.67,0,0,1-.44.89,9.79,9.79,0,0,1-.94,1l-1.29,1.21a25.66,25.66,0,0,0-2.76,2.84A3.64,3.64,0,0,0,201.05,221.69Zm-2.25-.2a3.28,3.28,0,0,0,1-.64q.8-.64,1.53-1.28l.71-.64s.05-.06.05-.07,0,0,0,0a2.45,2.45,0,0,0-1.29.57,8.69,8.69,0,0,0-1.37,1.2q-.58.63-.58.85A0,0,0,0,0,198.8,221.49Z"/><path class="cls-12" d="M205,221.27a.68.68,0,0,0-.1.33c0,.1.05.14.16.14a1.13,1.13,0,0,0,.31-.08,35.94,35.94,0,0,0,4.76-3,.27.27,0,0,1,.12.22.34.34,0,0,1-.13.25l-.37.34-.92.8-1.26,1a8.27,8.27,0,0,1-2.26,1.46,1.88,1.88,0,0,1-.51.07q-1,0-1-1.07a2.68,2.68,0,0,1,.46-1.19,11.09,11.09,0,0,1,.94-1.37,2.83,2.83,0,0,1,.64-.66,1,1,0,0,1,.51-.14,1.32,1.32,0,0,1,.52.1.12.12,0,0,1,.08.1s0,.11-.12.2l-.38.4q-.25.27-.75.95A4.85,4.85,0,0,0,205,221.27Zm3.12-5.14a.21.21,0,0,1,.17.05.65.65,0,0,1,.18.36.36.36,0,0,1-.08.23l-.19.22a2.38,2.38,0,0,1-.44.34,1.18,1.18,0,0,1-.64.22.26.26,0,0,1-.23-.29,1,1,0,0,1,.47-.76A1.38,1.38,0,0,1,208.15,216.13Z"/><path class="cls-12" d="M212.19,216.69q.14,0,.31.21a.64.64,0,0,1,.17.32.2.2,0,0,1,0,.14q-.9.78-1.74,1.64t-1.25,1.33l-.39.47c-.07.07-.1.12-.1.14s0,0,0,0a.11.11,0,0,0,.07,0l.12-.09q2.13-1.9,3.31-1.9a.48.48,0,0,1,.29.09,1.06,1.06,0,0,1,.44.83,2,2,0,0,1-.66,1.18,6.46,6.46,0,0,1-1.62,1.26,3.47,3.47,0,0,1-1.61.54.92.92,0,0,1-.85-.34l-.14-.21h0q-.29,0-1.89,1.83a18.43,18.43,0,0,0-2.06,2.65q-.05.23-.21.23a.22.22,0,0,1-.14-.05l-.58-.46s-.05-.06-.05-.12a21.61,21.61,0,0,1,2-2.56q2-2.41,4.13-4.77T212.19,216.69Zm-3.3,5.51a3.08,3.08,0,0,0,1.31-.5,10.57,10.57,0,0,0,1.57-1.09q.69-.59.7-.82a0,0,0,0,0,0,0,3.28,3.28,0,0,0-1.2.58q-.92.58-1.7,1.17a5,5,0,0,0-.78.65S208.79,222.2,208.89,222.2Z"/><path class="cls-12" d="M214.59,221.27a.68.68,0,0,0-.1.33c0,.1.05.14.16.14a1.13,1.13,0,0,0,.31-.08,35.94,35.94,0,0,0,4.76-3,.27.27,0,0,1,.12.22.34.34,0,0,1-.13.25l-.37.34-.92.8-1.26,1a8.27,8.27,0,0,1-2.26,1.46,1.88,1.88,0,0,1-.51.07q-1,0-1-1.07a2.68,2.68,0,0,1,.46-1.19,11.09,11.09,0,0,1,.94-1.37,2.83,2.83,0,0,1,.64-.66,1,1,0,0,1,.51-.14,1.32,1.32,0,0,1,.52.1.12.12,0,0,1,.08.1s0,.11-.12.2l-.38.4q-.25.27-.75.95A4.85,4.85,0,0,0,214.59,221.27Zm3.12-5.14a.21.21,0,0,1,.17.05.65.65,0,0,1,.18.36.36.36,0,0,1-.08.23l-.19.22a2.38,2.38,0,0,1-.44.34,1.18,1.18,0,0,1-.64.22.26.26,0,0,1-.23-.29,1,1,0,0,1,.47-.76A1.38,1.38,0,0,1,217.71,216.13Z"/><path class="cls-12" d="M218.71,221.64a1.05,1.05,0,0,0,.83-.55,3.7,3.7,0,0,0,.54-1.12,3.62,3.62,0,0,0,.16-.91c0-.06,0-.09-.14-.09a.55.55,0,0,0-.32.14l-1.7,1.32a.81.81,0,0,1-.42.1q-.23,0-.23-.17a.26.26,0,0,1,0-.16.88.88,0,0,1,.19-.13,28.61,28.61,0,0,0,2.63-2.17c.13-.17.25-.26.35-.26a2.32,2.32,0,0,1,.52.1c.24.07.36.14.36.23a6.54,6.54,0,0,1-.14,1.42,5.36,5.36,0,0,1-.29,1,3.12,3.12,0,0,0-.15.36,0,0,0,0,0,0,0l.1,0a18.45,18.45,0,0,0,2.48-1.62l.31-.24a.27.27,0,0,1,.12.22.31.31,0,0,1-.12.23s-.24.18-.67.55l-1.43,1.19a13.65,13.65,0,0,1-1.68,1.18,3.06,3.06,0,0,1-1.39.54q-1.22,0-1.22-1.47a.3.3,0,0,1,.1-.22.34.34,0,0,1,.25-.1.51.51,0,0,0,.07.2,1.21,1.21,0,0,0,.15.23A1,1,0,0,0,218.71,221.64Z"/><path class="cls-12" d="M227.15,218.56a1.29,1.29,0,0,1-.58.93,2.11,2.11,0,0,1-1.37.46c-.23,0-.34-.07-.34-.2s0-.09.12-.12a3.51,3.51,0,0,0,1-.74.26.26,0,0,0,0-.12.06.06,0,0,0-.07-.07,3.64,3.64,0,0,0-2.11,1.21,3,3,0,0,0-1,1.64q0,.27.21.27a4.37,4.37,0,0,0,2-.56,31.3,31.3,0,0,0,3.17-2.06l.44-.31.34-.25a.27.27,0,0,1,.12.22.31.31,0,0,1-.12.23,18.49,18.49,0,0,1-1.68,1.46A16.84,16.84,0,0,1,225,222.1a4.93,4.93,0,0,1-2.18.72q-1,0-1-1.07a2.52,2.52,0,0,1,.49-1.45,4.59,4.59,0,0,1,1.21-1.19,7.21,7.21,0,0,1,1.49-.78,3.78,3.78,0,0,1,1.25-.29,1.34,1.34,0,0,1,.68.13q.21.13.22.26Z"/><path class="cls-12" d="M228.08,221.27a.68.68,0,0,0-.1.33c0,.1.05.14.16.14a1.13,1.13,0,0,0,.31-.08,35.94,35.94,0,0,0,4.76-3,.27.27,0,0,1,.12.22.34.34,0,0,1-.13.25l-.37.34-.92.8-1.26,1a8.27,8.27,0,0,1-2.26,1.46,1.88,1.88,0,0,1-.51.07q-1,0-1-1.07a2.68,2.68,0,0,1,.46-1.19,11.09,11.09,0,0,1,.94-1.37,2.83,2.83,0,0,1,.64-.66,1,1,0,0,1,.51-.14,1.32,1.32,0,0,1,.52.1.12.12,0,0,1,.08.1s0,.11-.12.2l-.38.4q-.25.27-.75.95A4.85,4.85,0,0,0,228.08,221.27Zm3.12-5.14a.21.21,0,0,1,.17.05.65.65,0,0,1,.18.36.36.36,0,0,1-.08.23l-.19.22a2.38,2.38,0,0,1-.44.34,1.18,1.18,0,0,1-.64.22.26.26,0,0,1-.23-.29,1,1,0,0,1,.47-.76A1.38,1.38,0,0,1,231.2,216.13Z"/><path class="cls-12" d="M233.39,218.27a1,1,0,0,1,.34.1c.16.07.24.15.24.23a.31.31,0,0,1-.07.18l-1,1.36a1.14,1.14,0,0,0-.17.24s0,0,0,0l.07,0q1.51-1.06,2.48-1.85a.57.57,0,0,1,.31-.13.33.33,0,0,1,.16,0l.36.1a.2.2,0,0,1,.13.17.26.26,0,0,1-.05.17l-.57.62-.47.52-.35.4-.28.34-.19.27a1.23,1.23,0,0,0-.14.25,2.1,2.1,0,0,0-.08.52c0,.08,0,.12.15.12a1.64,1.64,0,0,0,.55-.18,6.75,6.75,0,0,0,.95-.56q.55-.38,1.47-1.08t1.61-1.18a.27.27,0,0,1,.12.22.31.31,0,0,1-.12.23l-1.05,1q-.64.61-1.94,1.62a4,4,0,0,1-1.83,1q-1,0-1-1.07a1.49,1.49,0,0,1,.31-.85l.56-.77a.56.56,0,0,0,.08-.14s0,0-.08,0a24.69,24.69,0,0,1-2.89,2.22.48.48,0,0,1-.26.07q-.43,0-.43-.39a.44.44,0,0,1,.07-.23,9.76,9.76,0,0,0,1.35-1.45,4.82,4.82,0,0,0,.66-.87q.34-.56.58-.93T233.39,218.27Z"/><path class="cls-12" d="M241.63,218.77q.19.15.19.27a.31.31,0,0,1-.11.23q-.11.1-1.22,1.6T239,222.93q-.38.56-.54.82t-.64.91a14.08,14.08,0,0,1-1,1.18,7.58,7.58,0,0,1-1.19,1,3.61,3.61,0,0,1-1.33.62,1.37,1.37,0,0,1-.55-.12.82.82,0,0,1-.52-.82q0-.76,1.41-1.78a4.35,4.35,0,0,1,2.1-1c.07,0,.1,0,.1,0s0,.07-.13.13a15.49,15.49,0,0,0-2,1.66q-.92.89-.92,1.27s0,.05.08.05a.93.93,0,0,0,.34-.17,14.75,14.75,0,0,0,1.77-1.62q1.26-1.41,1.55-1.8a15.17,15.17,0,0,1,1.21-1.43l.26-.27,0-.05.07-.09c.07-.11.1-.17.09-.17s-.08,0-.17.13l-.37.36a6.73,6.73,0,0,1-.81.61,1.83,1.83,0,0,1-.92.38.67.67,0,0,1-.55-.23.77.77,0,0,1-.2-.5,1.77,1.77,0,0,1,.34-.8,9.65,9.65,0,0,1,.88-1.16,6.14,6.14,0,0,1,1.41-1.16,4.27,4.27,0,0,1,1.77-.64,1,1,0,0,1,.69.38h.1A.57.57,0,0,1,241.63,218.77Zm-4,2.76a3.07,3.07,0,0,0,1.18-.63q.84-.6,1.52-1.2T241,219s0,0-.05,0a4.34,4.34,0,0,0-1.51.72,9.06,9.06,0,0,0-1.35,1.11q-.52.54-.52.68S237.56,221.53,237.6,221.53Z"/><path class="cls-12" d="M245.42,222.82q-1,0-1-1.23a2.73,2.73,0,0,1,.67-1.64,5.8,5.8,0,0,1,1.58-1.42,3.2,3.2,0,0,1,1.61-.55.84.84,0,0,1,.58.25.69.69,0,0,1,.27.48,1.45,1.45,0,0,1-.61,1,5.85,5.85,0,0,1-1.28.87,2.73,2.73,0,0,1-.88.33.34.34,0,0,1-.32-.2.23.23,0,0,0-.14,0q-.09,0-.3.35a1.18,1.18,0,0,0-.21.56.25.25,0,0,0,.16.27,4.82,4.82,0,0,0,2.14-.58,26.36,26.36,0,0,0,3.2-2l.44-.31.34-.25a.27.27,0,0,1,.12.22.31.31,0,0,1-.12.23,18.49,18.49,0,0,1-1.68,1.46,16.84,16.84,0,0,1-2.37,1.53A4.93,4.93,0,0,1,245.42,222.82Zm2.77-4.17a2.4,2.4,0,0,0-1.14.7q-.81.7-.81.85s0,0,0,0a2.79,2.79,0,0,0,1.14-.64q.85-.64.85-.87S248.24,218.65,248.19,218.65Z"/><path class="cls-12" d="M250.63,221.73a4.53,4.53,0,0,0,1.7-.77q1.27-.77,2.31-1.54l1.05-.77a.28.28,0,0,1,.12.22.34.34,0,0,1-.13.25l-.37.34-.92.8c-.45.38-.87.73-1.26,1a8.27,8.27,0,0,1-2.26,1.46,1.78,1.78,0,0,1-.48.07,1.54,1.54,0,0,1-.39,0,.93.93,0,0,1-.31-.17,1.71,1.71,0,0,1-.34-1.28,2.47,2.47,0,0,1,.23-.84,8.06,8.06,0,0,1,.77-1.36,14.36,14.36,0,0,1,1.26-1.59,11.48,11.48,0,0,1,1.83-1.59,11,11,0,0,1,2.37-1.29,1.13,1.13,0,0,1,.35-.07.39.39,0,0,1,.29.14.8.8,0,0,1,.18.28l.07.13c0,.2-.31.64-.92,1.32a16.46,16.46,0,0,1-2.19,2q-1.24,1-2.31,1.64-.87.57-.87,1.2Q250.41,221.73,250.63,221.73Zm1.17-2.7q.32,0,2-1.6a9.66,9.66,0,0,0,1.65-1.79v0l-.22.1a14.18,14.18,0,0,0-1.8,1.51,13.43,13.43,0,0,0-1.55,1.67.2.2,0,0,0-.05.1S251.79,219,251.8,219Z"/><path class="cls-12" d="M254.61,221.27a.67.67,0,0,0-.1.33c0,.1.05.14.16.14a1.13,1.13,0,0,0,.31-.08,35.93,35.93,0,0,0,4.76-3,.27.27,0,0,1,.12.22.34.34,0,0,1-.13.25l-.37.34-.92.8-1.26,1a8.29,8.29,0,0,1-2.26,1.46,1.89,1.89,0,0,1-.51.07q-1,0-1-1.07a2.68,2.68,0,0,1,.45-1.19,11.15,11.15,0,0,1,.94-1.37,2.83,2.83,0,0,1,.64-.66,1,1,0,0,1,.51-.14,1.33,1.33,0,0,1,.52.1.12.12,0,0,1,.08.1s0,.11-.12.2l-.38.4q-.25.27-.75.95A4.81,4.81,0,0,0,254.61,221.27Zm3.12-5.14a.21.21,0,0,1,.17.05.65.65,0,0,1,.18.36.36.36,0,0,1-.08.23l-.19.22a2.4,2.4,0,0,1-.44.34,1.18,1.18,0,0,1-.64.22.26.26,0,0,1-.23-.29,1,1,0,0,1,.47-.76A1.38,1.38,0,0,1,257.73,216.13Z"/><path class="cls-12" d="M263,216.56h.66a3.66,3.66,0,0,1,1.87.37c.19.06.29.14.29.24s-.08.12-.25.14l-1.75.2q-1.5.16-2.06.19-.25,0-1.14.86a18.1,18.1,0,0,0-1.7,1.87,3.14,3.14,0,0,0-.81,1.42.13.13,0,0,0,.06.11.28.28,0,0,0,.16,0,1,1,0,0,0,.31-.08,54.27,54.27,0,0,0,4.8-3.2.27.27,0,0,1,.12.22.36.36,0,0,1-.13.25l-.38.36-.94.85q-.69.61-1.3,1.1a9.43,9.43,0,0,1-2.29,1.54,2.1,2.1,0,0,1-.55.06.76.76,0,0,1-.58-.33,1.36,1.36,0,0,1-.27-.89,3.34,3.34,0,0,1,.72-1.62,12.07,12.07,0,0,1,2-2.17c.08-.06.12-.12.12-.17s-.09-.08-.27-.08l-.82,0q-1.73,0-1.78-.39-.4-.08-.4-.24a.05.05,0,0,1,.05-.06h.09l.13,0,1.44-.21q1.35-.2,3.06-.33l.9-1.2q.08-.16.55-.16t.47.2a.58.58,0,0,1-.1.23l-.32.46a2,2,0,0,0-.08.31C262.85,216.53,262.91,216.56,263,216.56Z"/><path class="cls-12" d="M263.41,221.48c.09,0,.14,0,.17.05a.64.64,0,0,1,.18.35,1.7,1.7,0,0,1-.49.82q-.69.8-.9.8a0,0,0,0,1,0,0,.25.25,0,0,1,.05-.12,4.1,4.1,0,0,0,.26-.38l.08-.13a1,1,0,0,1-.31.07.26.26,0,0,1-.23-.29,1,1,0,0,1,.47-.76A1.38,1.38,0,0,1,263.41,221.48Z"/><path class="cls-12" d="M268.6,221.64a1.05,1.05,0,0,0,.83-.55A3.73,3.73,0,0,0,270,220a3.64,3.64,0,0,0,.16-.91c0-.06,0-.09-.14-.09a.55.55,0,0,0-.32.14l-1.7,1.32a.82.82,0,0,1-.42.1c-.16,0-.23-.06-.23-.17a.27.27,0,0,1,0-.16.88.88,0,0,1,.19-.13,28.69,28.69,0,0,0,2.63-2.17c.13-.17.25-.26.35-.26a2.32,2.32,0,0,1,.52.1c.24.07.36.14.36.23a6.54,6.54,0,0,1-.14,1.42,5.36,5.36,0,0,1-.29,1,3,3,0,0,0-.15.36,0,0,0,0,0,0,0l.1,0a18.39,18.39,0,0,0,2.48-1.62l.31-.24a.27.27,0,0,1,.12.22.31.31,0,0,1-.12.23s-.24.18-.67.55l-1.43,1.19a13.74,13.74,0,0,1-1.68,1.18,3.06,3.06,0,0,1-1.39.54q-1.22,0-1.22-1.47a.3.3,0,0,1,.1-.22.35.35,0,0,1,.25-.1.51.51,0,0,0,.07.2,1.21,1.21,0,0,0,.15.23A1,1,0,0,0,268.6,221.64Z"/><path class="cls-12" d="M272.84,222.82q-1,0-1-1.23a2.73,2.73,0,0,1,.67-1.64,5.77,5.77,0,0,1,1.58-1.42,3.2,3.2,0,0,1,1.61-.55.84.84,0,0,1,.58.25.69.69,0,0,1,.27.48,1.45,1.45,0,0,1-.61,1,5.85,5.85,0,0,1-1.28.87,2.73,2.73,0,0,1-.88.33.34.34,0,0,1-.32-.2.23.23,0,0,0-.14,0q-.09,0-.3.35a1.19,1.19,0,0,0-.21.56.25.25,0,0,0,.16.27,4.82,4.82,0,0,0,2.14-.58,26.32,26.32,0,0,0,3.2-2l.44-.31.34-.25a.27.27,0,0,1,.12.22.31.31,0,0,1-.12.23,18.57,18.57,0,0,1-1.68,1.46A16.78,16.78,0,0,1,275,222.1,4.93,4.93,0,0,1,272.84,222.82Zm2.77-4.17a2.4,2.4,0,0,0-1.14.7q-.81.7-.81.85s0,0,0,0a2.79,2.79,0,0,0,1.14-.64q.85-.64.85-.87S275.66,218.65,275.61,218.65Z"/><path class="cls-12" d="M279.59,221.69s0,0,.08,0a3.93,3.93,0,0,0,.76-.39q1.77-1,4.16-2.69a.27.27,0,0,1,.12.22.34.34,0,0,1-.13.25l-.37.34-.92.8-1.26,1a8.29,8.29,0,0,1-2.26,1.46,1.89,1.89,0,0,1-.51.07,1.06,1.06,0,0,1-.47-.2.45.45,0,0,1-.21-.37,3,3,0,0,1,.1-.62c.07-.27.1-.42.1-.44s0,0,0,0l-.07.05-.43.45a7.06,7.06,0,0,1-.89.72,2,2,0,0,1-1,.45l-.16,0a.71.71,0,0,1-.25-.22.78.78,0,0,1-.16-.52,2.16,2.16,0,0,1,.51-1,9.44,9.44,0,0,1,1.23-1.37,8.66,8.66,0,0,1,1.6-1.17,3.18,3.18,0,0,1,1.52-.5q.23,0,.39.35a6.61,6.61,0,0,1,.85-1.18,20,20,0,0,1,2-2.19,3.29,3.29,0,0,1,1.83-1.1c.15,0,.22.07.22.21a1.67,1.67,0,0,1-.43.89,9.85,9.85,0,0,1-.94,1l-1.29,1.21a25.65,25.65,0,0,0-2.76,2.84A3.63,3.63,0,0,0,279.59,221.69Zm-2.25-.2a3.28,3.28,0,0,0,1-.64q.8-.64,1.53-1.28l.71-.64s.05-.06.05-.07,0,0,0,0a2.45,2.45,0,0,0-1.29.57,8.71,8.71,0,0,0-1.37,1.2q-.58.63-.58.85A0,0,0,0,0,277.34,221.49Z"/><path class="cls-12" d="M288.65,221.69s0,0,.08,0a3.93,3.93,0,0,0,.76-.39q1.77-1,4.16-2.69a.27.27,0,0,1,.12.22.34.34,0,0,1-.13.25l-.37.34-.92.8-1.26,1a8.29,8.29,0,0,1-2.26,1.46,1.89,1.89,0,0,1-.51.07,1.06,1.06,0,0,1-.47-.2.45.45,0,0,1-.21-.37,3,3,0,0,1,.1-.62c.07-.27.1-.42.1-.44s0,0,0,0l-.07.05-.43.45a7.06,7.06,0,0,1-.89.72,2,2,0,0,1-1,.45l-.16,0a.71.71,0,0,1-.25-.22.78.78,0,0,1-.16-.52,2.16,2.16,0,0,1,.51-1,9.44,9.44,0,0,1,1.23-1.37,8.66,8.66,0,0,1,1.6-1.17,3.18,3.18,0,0,1,1.52-.5q.23,0,.39.35a6.61,6.61,0,0,1,.85-1.18,20,20,0,0,1,2-2.19,3.29,3.29,0,0,1,1.83-1.1c.15,0,.22.07.22.21a1.67,1.67,0,0,1-.43.89,9.85,9.85,0,0,1-.94,1l-1.29,1.21a25.65,25.65,0,0,0-2.76,2.84A3.63,3.63,0,0,0,288.65,221.69Zm-2.25-.2a3.28,3.28,0,0,0,1-.64q.8-.64,1.53-1.28l.71-.64s.05-.06.05-.07,0,0,0,0a2.45,2.45,0,0,0-1.29.57,8.71,8.71,0,0,0-1.37,1.2q-.58.63-.58.85A0,0,0,0,0,286.4,221.49Z"/><path class="cls-12" d="M292.62,221.27a.67.67,0,0,0-.1.33c0,.1.05.14.16.14a1.13,1.13,0,0,0,.31-.08,35.9,35.9,0,0,0,4.76-3,.27.27,0,0,1,.12.22.34.34,0,0,1-.13.25l-.37.34-.92.8-1.26,1a8.29,8.29,0,0,1-2.26,1.46,1.89,1.89,0,0,1-.51.07q-1,0-1-1.07a2.68,2.68,0,0,1,.45-1.19,11.15,11.15,0,0,1,.94-1.37,2.83,2.83,0,0,1,.64-.66,1,1,0,0,1,.51-.14,1.33,1.33,0,0,1,.52.1.12.12,0,0,1,.08.1s0,.11-.12.2l-.38.4q-.25.27-.75.95A4.81,4.81,0,0,0,292.62,221.27Zm3.12-5.14a.21.21,0,0,1,.17.05.65.65,0,0,1,.18.36.36.36,0,0,1-.08.23l-.19.22a2.4,2.4,0,0,1-.44.34,1.18,1.18,0,0,1-.64.22.26.26,0,0,1-.23-.29,1,1,0,0,1,.47-.76A1.38,1.38,0,0,1,295.74,216.13Z"/><path class="cls-12" d="M297.39,222l.1-.84s0,0,0,0l-.07.05-.43.45a7,7,0,0,1-.89.72,2,2,0,0,1-1,.45l-.16,0a.71.71,0,0,1-.25-.22.78.78,0,0,1-.16-.52,2.15,2.15,0,0,1,.51-1,10.12,10.12,0,0,1,1.23-1.37,8.17,8.17,0,0,1,1.59-1.17,3.22,3.22,0,0,1,1.53-.5q.25,0,.39.35a.36.36,0,0,1,.23-.13.39.39,0,0,1,.25.16.32.32,0,0,1,.16.08.26.26,0,0,1,.08.2.42.42,0,0,1-.18.29l-.64.77-.52.62-.33.42a1.55,1.55,0,0,0-.31.65,30.45,30.45,0,0,0,4.17-2.75.27.27,0,0,1,.12.22.28.28,0,0,1-.1.22l-.25.22-.59.51-.85.72-.94.77q-.53.42-.94.72a3.72,3.72,0,0,1-1.25.72.39.39,0,0,1-.35-.16A1.08,1.08,0,0,1,297.39,222Zm-1.33-.55a3.28,3.28,0,0,0,1-.64q.8-.64,1.51-1.28l.73-.64s.05-.06.05-.07,0,0,0,0a2.45,2.45,0,0,0-1.29.57,8.72,8.72,0,0,0-1.37,1.2q-.58.63-.58.85A0,0,0,0,0,296.07,221.49Z"/><path class="cls-12" d="M305.92,221.78c0,.08,0,.12.15.12a1.64,1.64,0,0,0,.55-.18,6.72,6.72,0,0,0,.95-.56q.55-.38,1.47-1.08t1.6-1.18a.27.27,0,0,1,.12.22.31.31,0,0,1-.12.23l-1.05,1q-.64.61-1.94,1.62a4,4,0,0,1-1.83,1q-1,0-1-1.07a1.49,1.49,0,0,1,.31-.85l.56-.77a.55.55,0,0,0,.08-.14s0,0-.08,0a24.74,24.74,0,0,1-2.89,2.22.48.48,0,0,1-.26.07c-.29,0-.43-.13-.43-.39a.44.44,0,0,1,.07-.23,10.07,10.07,0,0,1,1.16-1.47l.22-.22a.07.07,0,0,0,0-.05,0,0,0,0,0,0,0s0,0-.08.05l-1.39,1.1q-1.21,1-1.32,1a.44.44,0,0,1-.2.06.69.69,0,0,1-.29-.11c-.13-.07-.19-.16-.19-.25a.23.23,0,0,1,0-.1,19.12,19.12,0,0,0,1.86-2.32l.43-.7a3.9,3.9,0,0,1,.3-.44.32.32,0,0,1,.24-.13.46.46,0,0,1,.29.15.43.43,0,0,1,.16.31.63.63,0,0,1-.1.33,4.93,4.93,0,0,1-.69,1,.11.11,0,0,0,0,.07s0,0,0,0h0l1.74-1.21a2.8,2.8,0,0,1,.79-.46.58.58,0,0,1,.28.08q.15.09.15.19a.4.4,0,0,1-.06.21l-.85,1.16a1.12,1.12,0,0,0-.17.24s0,0,0,0l.07,0q1.62-1.11,2.2-1.54t.69-.55a.57.57,0,0,1,.31-.13.33.33,0,0,1,.16,0l.29.22a.19.19,0,0,1,.13.17.26.26,0,0,1-.05.17l-1.23,1.33-.67.73a2.16,2.16,0,0,0-.42.65A.68.68,0,0,0,305.92,221.78Z"/><path class="cls-12" d="M314.6,218.27a1,1,0,0,1,.34.1c.16.07.24.15.24.23a.32.32,0,0,1-.06.18l-1,1.36a1.12,1.12,0,0,0-.17.24s0,0,0,0l.06,0q1.51-1.06,2.48-1.85a.57.57,0,0,1,.31-.13.32.32,0,0,1,.16,0l.36.1a.19.19,0,0,1,.13.17.26.26,0,0,1-.05.17l-.56.62-.47.52-.35.4-.28.34-.19.27a1.18,1.18,0,0,0-.14.25,2.13,2.13,0,0,0-.08.52c0,.08,0,.12.15.12a1.64,1.64,0,0,0,.55-.18,6.72,6.72,0,0,0,.95-.56q.55-.38,1.47-1.08t1.61-1.18a.27.27,0,0,1,.12.22.31.31,0,0,1-.12.23l-1.05,1q-.64.61-1.94,1.62a4,4,0,0,1-1.83,1q-1,0-1-1.07a1.49,1.49,0,0,1,.31-.85l.56-.77a.57.57,0,0,0,.08-.14s0,0-.08,0a24.74,24.74,0,0,1-2.89,2.22.48.48,0,0,1-.26.07q-.43,0-.43-.39a.43.43,0,0,1,.06-.23,9.82,9.82,0,0,0,1.35-1.45,4.84,4.84,0,0,0,.66-.87q.34-.56.58-.93T314.6,218.27Z"/><path class="cls-12" d="M321.31,220.5a2.72,2.72,0,0,0,1.14-.44,12.62,12.62,0,0,0,1.36-.89l.58-.46a.27.27,0,0,1,.12.22.31.31,0,0,1-.12.23q-2.14,2-3.25,2l-.23,0q-1.47,1.71-2.52,1.71a1.06,1.06,0,0,1-.88-.5,1,1,0,0,1-.1-.5,3.49,3.49,0,0,1,1-2.05,5.81,5.81,0,0,1,2.48-1.75.28.28,0,0,1,.2.06.23.23,0,0,0,.12.07.22.22,0,0,0,.14-.05.43.43,0,0,1,.23-.07.4.4,0,0,1,.3.16.52.52,0,0,1,.21.42A3.71,3.71,0,0,1,321.31,220.5ZM318.47,222a1.72,1.72,0,0,0,1-.55q.61-.55.64-.76a1.56,1.56,0,0,1-.33-.48,2.72,2.72,0,0,0-.19-.35,4.44,4.44,0,0,0-.71.87,3,3,0,0,0-.49,1.15C318.41,222,318.43,222,318.47,222Zm2.81-3.2q-.13,0-.54.4t-.41.56a.4.4,0,0,0,.08.16c.05.08.09.12.12.12s.31-.18.5-.53a2.83,2.83,0,0,0,.28-.62Q321.31,218.82,321.28,218.82Z"/><path class="cls-12" d="M324.84,218.27a1,1,0,0,1,.34.1c.16.07.24.15.24.23a.32.32,0,0,1-.06.18l-1,1.36a1.12,1.12,0,0,0-.17.24s0,0,0,0l.06,0q1.51-1.06,2.48-1.85a.57.57,0,0,1,.31-.13.32.32,0,0,1,.16,0l.36.1a.19.19,0,0,1,.13.17.26.26,0,0,1-.05.17l-.56.62-.47.52-.35.4-.28.34-.19.27a1.18,1.18,0,0,0-.14.25,2.13,2.13,0,0,0-.08.52c0,.08,0,.12.15.12a1.64,1.64,0,0,0,.55-.18,6.72,6.72,0,0,0,.95-.56q.55-.38,1.47-1.08t1.61-1.18a.27.27,0,0,1,.12.22.31.31,0,0,1-.12.23l-1.05,1q-.64.61-1.94,1.62a4,4,0,0,1-1.83,1q-1,0-1-1.07a1.49,1.49,0,0,1,.31-.85l.56-.77a.57.57,0,0,0,.08-.14s0,0-.08,0a24.74,24.74,0,0,1-2.89,2.22.48.48,0,0,1-.26.07q-.43,0-.43-.39a.43.43,0,0,1,.06-.23,9.82,9.82,0,0,0,1.35-1.45,4.84,4.84,0,0,0,.66-.87q.34-.56.58-.93T324.84,218.27Z"/><path class="cls-12" d="M331.4,221.43a35.18,35.18,0,0,0,4.26-2.78.27.27,0,0,1,.12.22.34.34,0,0,1-.13.25l-.37.34-.92.8-1.26,1a8.29,8.29,0,0,1-2.26,1.46,1.89,1.89,0,0,1-.51.07q-.44,0-.44-.69a1.22,1.22,0,0,1,.12-.43l.14-.33,0-.07,0,0a.08.08,0,0,0,0,0s0,0-.08,0-.19.12-.43.35l-.6.55a3.75,3.75,0,0,1-.55.39,1.05,1.05,0,0,1-.5.18q-.52,0-.52-.48a1.74,1.74,0,0,1,.19-.7,7.57,7.57,0,0,1,1.36-1.93q.91-1,1.3-1a.38.38,0,0,1,.26.1.31.31,0,0,1,.12.23c0,.09-.09.22-.26.39l-.66.67a4,4,0,0,0-.56.68,1,1,0,0,0-.16.37c0,.06,0,.09.1.09a.94.94,0,0,0,.38-.17q.74-.51,1.7-1.25a8.54,8.54,0,0,0,1.23-1.08c0-.16.17-.24.39-.24.42,0,.62.07.62.22s-.2.29-.61.68q-1.83,1.76-1.83,2.18s0,.07.06.07A.61.61,0,0,0,331.4,221.43Z"/><path class="cls-12" d="M339,221.78c0,.08,0,.12.15.12a1.64,1.64,0,0,0,.55-.18,6.72,6.72,0,0,0,.95-.56q.55-.38,1.47-1.08t1.6-1.18a.27.27,0,0,1,.12.22.31.31,0,0,1-.12.23l-1.05,1q-.64.61-1.94,1.62a4,4,0,0,1-1.83,1q-1,0-1-1.07a1.49,1.49,0,0,1,.31-.85l.56-.77a.55.55,0,0,0,.08-.14s0,0-.08,0a24.74,24.74,0,0,1-2.89,2.22.48.48,0,0,1-.26.07c-.29,0-.43-.13-.43-.39a.44.44,0,0,1,.07-.23,10.07,10.07,0,0,1,1.16-1.47l.22-.22a.07.07,0,0,0,0-.05,0,0,0,0,0,0,0s0,0-.08.05l-1.39,1.1q-1.21,1-1.32,1a.44.44,0,0,1-.2.06.69.69,0,0,1-.29-.11c-.13-.07-.19-.16-.19-.25a.23.23,0,0,1,0-.1,19.12,19.12,0,0,0,1.86-2.32l.43-.7a3.9,3.9,0,0,1,.3-.44.32.32,0,0,1,.24-.13.46.46,0,0,1,.29.15.43.43,0,0,1,.16.31.63.63,0,0,1-.1.33,4.93,4.93,0,0,1-.69,1,.11.11,0,0,0,0,.07s0,0,0,0h0l1.74-1.21a2.8,2.8,0,0,1,.79-.46.58.58,0,0,1,.28.08q.15.09.15.19a.4.4,0,0,1-.06.21l-.85,1.16a1.12,1.12,0,0,0-.17.24s0,0,0,0l.07,0q1.62-1.11,2.2-1.54t.69-.55a.57.57,0,0,1,.31-.13.33.33,0,0,1,.16,0l.29.22a.19.19,0,0,1,.13.17.26.26,0,0,1-.05.17l-1.23,1.33-.67.73a2.16,2.16,0,0,0-.42.65A.68.68,0,0,0,339,221.78Z"/><path class="cls-12" d="M344.62,218.87l1.47,0c.38,0,.75,0,1.12,0a.45.45,0,0,1,.18,0,.63.63,0,0,1,.57.4.42.42,0,0,1,.1.26.34.34,0,0,1-.27.38l-3.22-.07a.54.54,0,0,1-.19,0,.14.14,0,0,1-.11,0,.3.3,0,0,1,0-.16l.13-.74A.57.57,0,0,1,344.62,218.87Z"/><path class="cls-12" d="M175,237.44c0,.08,0,.12.15.12a1.64,1.64,0,0,0,.55-.18,6.78,6.78,0,0,0,.95-.56q.55-.38,1.47-1.08t1.61-1.18a.27.27,0,0,1,.12.22.31.31,0,0,1-.12.23l-1.05,1q-.64.61-1.94,1.62a4.05,4.05,0,0,1-1.83,1q-1,0-1-1.07a1.49,1.49,0,0,1,.31-.85l.56-.77a.55.55,0,0,0,.08-.14s0,0-.08,0a24.66,24.66,0,0,1-2.88,2.22.48.48,0,0,1-.26.07q-.43,0-.43-.39a.44.44,0,0,1,.07-.23,10.08,10.08,0,0,1,1.16-1.47l.22-.22a.07.07,0,0,0,0-.05,0,0,0,0,0,0,0s0,0-.08.05l-1.39,1.1q-1.21,1-1.32,1a.43.43,0,0,1-.2.06.69.69,0,0,1-.29-.11q-.2-.11-.2-.25a.22.22,0,0,1,0-.1,19.09,19.09,0,0,0,1.86-2.32l.44-.7a3.84,3.84,0,0,1,.3-.44.32.32,0,0,1,.24-.13.46.46,0,0,1,.29.15.43.43,0,0,1,.16.31.63.63,0,0,1-.1.33,4.89,4.89,0,0,1-.69,1,.11.11,0,0,0,0,.07s0,0,0,0h0l1.74-1.21a2.79,2.79,0,0,1,.79-.46.57.57,0,0,1,.28.08c.1.06.15.12.15.19a.39.39,0,0,1-.07.21l-.84,1.16a1.12,1.12,0,0,0-.17.24s0,0,0,0l.07,0q1.62-1.11,2.2-1.54t.7-.55a.57.57,0,0,1,.31-.13.34.34,0,0,1,.16,0l.29.22a.19.19,0,0,1,.13.17.26.26,0,0,1-.05.17l-1.23,1.33-.67.73a2.18,2.18,0,0,0-.42.65A.68.68,0,0,0,175,237.44Z"/><path class="cls-12" d="M182.54,234q.61.07.61.27a.34.34,0,0,1-.1.21q-1.83,2-4.21,5.22-.69.94-1.4,1.77a6,6,0,0,1-1.34,1.22,2.44,2.44,0,0,1-1.3.38,1,1,0,0,1-.6-.18.58.58,0,0,1-.26-.5,2.32,2.32,0,0,1,.7-1.51,6.15,6.15,0,0,1,1.57-1.27,4.28,4.28,0,0,1,1.51-.57l.27,0a4.68,4.68,0,0,0,1-1,11.38,11.38,0,0,0,.83-1s0-.06,0-.06l-.25.2a2.72,2.72,0,0,1-1.52.91q-.35,0-.35-.5a4.39,4.39,0,0,1,1.08-2.1q1.08-1.43,1.59-1.44l.09,0q.36.09.36.26a.13.13,0,0,1,0,.1l-.26.25-.45.46-.47.53a1.89,1.89,0,0,0-.56,1c0,.05,0,.08.08.08a.82.82,0,0,0,.32-.14,16.49,16.49,0,0,0,2.89-2.41A.28.28,0,0,1,182.54,234Zm-7.93,8.51a3.64,3.64,0,0,0,1.22-.89,17.81,17.81,0,0,0,1.31-1.42l.55-.68a.39.39,0,0,0,.08-.13s0,0,0,0a2.25,2.25,0,0,0-1.19.64,9.5,9.5,0,0,0-1.38,1.4,2.31,2.31,0,0,0-.6,1.07S174.58,242.54,174.61,242.54Z"/><path class="cls-12" d="M188,233.93a1,1,0,0,1,.34.1c.16.07.24.15.24.23a.31.31,0,0,1-.07.18l-1,1.36a1.14,1.14,0,0,0-.17.24s0,0,0,0l.07,0q1.51-1.06,2.48-1.85a.57.57,0,0,1,.31-.13.33.33,0,0,1,.16,0l.36.1a.2.2,0,0,1,.13.17.26.26,0,0,1-.05.17l-.57.62-.47.52-.35.4-.28.34-.19.27a1.23,1.23,0,0,0-.14.25,2.1,2.1,0,0,0-.08.52c0,.08,0,.12.15.12a1.64,1.64,0,0,0,.55-.18,6.75,6.75,0,0,0,.95-.56q.55-.38,1.47-1.08t1.61-1.18a.27.27,0,0,1,.12.22.31.31,0,0,1-.12.23l-1.05,1q-.64.61-1.94,1.62a4,4,0,0,1-1.83,1q-1,0-1-1.07a1.49,1.49,0,0,1,.31-.85l.56-.77a.56.56,0,0,0,.08-.14s0,0-.08,0a24.69,24.69,0,0,1-2.89,2.22.48.48,0,0,1-.26.07q-.43,0-.43-.39a.44.44,0,0,1,.07-.23,9.76,9.76,0,0,0,1.35-1.45,4.82,4.82,0,0,0,.66-.87q.34-.56.58-.93T188,233.93Z"/><path class="cls-12" d="M192.56,236.93a.68.68,0,0,0-.1.33c0,.1.05.14.16.14a1.13,1.13,0,0,0,.31-.08,35.94,35.94,0,0,0,4.76-3,.27.27,0,0,1,.12.22.34.34,0,0,1-.13.25l-.37.34-.92.8-1.26,1a8.27,8.27,0,0,1-2.26,1.46,1.88,1.88,0,0,1-.51.07q-1,0-1-1.07a2.68,2.68,0,0,1,.46-1.19,11.09,11.09,0,0,1,.94-1.37,2.83,2.83,0,0,1,.64-.66,1,1,0,0,1,.51-.14,1.32,1.32,0,0,1,.52.1.12.12,0,0,1,.08.1s0,.11-.12.2l-.38.4q-.25.27-.75.95A4.85,4.85,0,0,0,192.56,236.93Zm3.12-5.14a.21.21,0,0,1,.17.05.65.65,0,0,1,.18.36.36.36,0,0,1-.08.23l-.19.22a2.38,2.38,0,0,1-.44.34,1.18,1.18,0,0,1-.64.22.26.26,0,0,1-.23-.29,1,1,0,0,1,.47-.76A1.38,1.38,0,0,1,195.68,231.79Z"/><path class="cls-12" d="M201,229.36q.68,0,.68.37,0,.54-1,1.62a19,19,0,0,1-2,1.89l-1,.82a.26.26,0,0,0-.08.14s0,.05.06.05a3.72,3.72,0,0,1,1.85-.69.49.49,0,0,1,.29.09,1.08,1.08,0,0,1,.44.85,3.42,3.42,0,0,1-1,1.63,4.58,4.58,0,0,0,1.14-.54,13.31,13.31,0,0,0,1.23-.83l.51-.39a.27.27,0,0,1,.12.22.31.31,0,0,1-.12.23q-2.14,2-3.25,2l-.23,0,0,0A10,10,0,0,1,197,238a2.51,2.51,0,0,1-1.26.5q-1.22,0-1.22-.84a2.39,2.39,0,0,1,.27-1,6.54,6.54,0,0,1,.64-1.08q.38-.52.76-1t.65-.73l.27-.26q.92-1.07,1.61-2a15.1,15.1,0,0,0,.9-1.29,5,5,0,0,1,.44-.66.92.92,0,0,1,.37-.32A2.06,2.06,0,0,1,201,229.36Zm-5.22,8.43a2.4,2.4,0,0,0,1.38-.76,10.23,10.23,0,0,0,1.46-1.58,2.81,2.81,0,0,0,.6-1.07,0,0,0,0,0,0,0,2.51,2.51,0,0,0-1.53.73,8.07,8.07,0,0,0-1.41,1.53,2.6,2.6,0,0,0-.55,1.1A.08.08,0,0,0,195.77,237.79Z"/><path class="cls-12" d="M203.05,237.16a.63.63,0,0,0,.21-.08,35.27,35.27,0,0,0,4.26-2.78.27.27,0,0,1,.12.22.34.34,0,0,1-.13.25l-.37.34-.92.8L205,237a8.27,8.27,0,0,1-2.26,1.46,1.88,1.88,0,0,1-.51.07q-.44,0-.44-.69A2,2,0,0,1,202,237a2,2,0,0,0,.29-.79s0,0,0,0a.57.57,0,0,0-.2.12,13.37,13.37,0,0,0-2.2,2,.24.24,0,0,1-.21.12.34.34,0,0,1-.36-.27,6,6,0,0,1,1.1-2q1.1-1.59,2.58-3.35a17.41,17.41,0,0,1,2.42-2.47,2,2,0,0,1,1.27-.26c.1,0,.16.07.16.13a.26.26,0,0,1-.09.18,50.1,50.1,0,0,0-4.76,5,1.17,1.17,0,0,0-.14.19.51.51,0,0,0-.08.18h0a6.71,6.71,0,0,0,.82-.58q.77-.58,1.14-.83a.73.73,0,0,1,.49-.12c.22,0,.32.1.32.21a.16.16,0,0,1,0,.09q-1,1.37-1.16,1.75a2.18,2.18,0,0,0-.39.81S203,237.16,203.05,237.16Z"/><path class="cls-12" d="M209.67,238.48q-1,0-1-1.23a2.73,2.73,0,0,1,.67-1.64,5.8,5.8,0,0,1,1.58-1.42,3.2,3.2,0,0,1,1.61-.55.84.84,0,0,1,.58.25.69.69,0,0,1,.27.48,1.45,1.45,0,0,1-.61,1,5.85,5.85,0,0,1-1.28.87,2.73,2.73,0,0,1-.88.33.34.34,0,0,1-.32-.2.23.23,0,0,0-.14,0q-.09,0-.3.35a1.18,1.18,0,0,0-.21.56.25.25,0,0,0,.16.27,4.82,4.82,0,0,0,2.14-.58,26.36,26.36,0,0,0,3.2-2l.44-.31.34-.25a.27.27,0,0,1,.12.22.31.31,0,0,1-.12.23,18.49,18.49,0,0,1-1.68,1.46,16.84,16.84,0,0,1-2.37,1.53A4.93,4.93,0,0,1,209.67,238.48Zm2.77-4.17a2.4,2.4,0,0,0-1.14.7q-.81.7-.81.85s0,0,0,0a2.79,2.79,0,0,0,1.14-.64q.85-.64.85-.87S212.49,234.3,212.44,234.3Z"/><path class="cls-12" d="M216.57,237.08a35.27,35.27,0,0,0,4.26-2.78.27.27,0,0,1,.12.22.34.34,0,0,1-.13.25l-.37.34-.92.8-1.26,1a8.27,8.27,0,0,1-2.26,1.46,1.88,1.88,0,0,1-.51.07q-.44,0-.44-.69a1.23,1.23,0,0,1,.12-.43l.14-.33,0-.07,0,0a.08.08,0,0,0,0,0s0,0-.08,0a1.56,1.56,0,0,0-.43.35l-.6.55a3.81,3.81,0,0,1-.55.39,1.06,1.06,0,0,1-.5.18q-.52,0-.52-.48a1.74,1.74,0,0,1,.19-.7,7.56,7.56,0,0,1,1.36-1.93q.91-1,1.3-1a.38.38,0,0,1,.26.1.31.31,0,0,1,.12.23q0,.13-.26.39l-.66.67a4,4,0,0,0-.56.68,1,1,0,0,0-.16.37c0,.06,0,.09.1.09a.94.94,0,0,0,.38-.17q.74-.51,1.7-1.25a8.57,8.57,0,0,0,1.23-1.08q.07-.23.39-.24.62,0,.62.22t-.61.68q-1.83,1.76-1.83,2.18s0,.07.06.07A.62.62,0,0,0,216.57,237.08Z"/><path class="cls-12" d="M219.83,236.93a.68.68,0,0,0-.1.33c0,.1.05.14.16.14a1.13,1.13,0,0,0,.31-.08,35.94,35.94,0,0,0,4.76-3,.27.27,0,0,1,.12.22.34.34,0,0,1-.13.25l-.37.34-.92.8-1.26,1a8.27,8.27,0,0,1-2.26,1.46,1.88,1.88,0,0,1-.51.07q-1,0-1-1.07a2.68,2.68,0,0,1,.46-1.19,11.09,11.09,0,0,1,.94-1.37,2.83,2.83,0,0,1,.64-.66,1,1,0,0,1,.51-.14,1.32,1.32,0,0,1,.52.1.12.12,0,0,1,.08.1s0,.11-.12.2l-.38.4q-.25.27-.75.95A4.85,4.85,0,0,0,219.83,236.93Zm3.12-5.14a.21.21,0,0,1,.17.05.65.65,0,0,1,.18.36.36.36,0,0,1-.08.23l-.19.22a2.38,2.38,0,0,1-.44.34,1.18,1.18,0,0,1-.64.22.26.26,0,0,1-.23-.29,1,1,0,0,1,.47-.76A1.38,1.38,0,0,1,222.95,231.79Z"/><path class="cls-12" d="M223.94,237.29a1.05,1.05,0,0,0,.83-.55,3.7,3.7,0,0,0,.54-1.12,3.62,3.62,0,0,0,.16-.91c0-.06,0-.09-.14-.09a.55.55,0,0,0-.32.14l-1.7,1.32a.81.81,0,0,1-.42.1q-.23,0-.23-.17a.26.26,0,0,1,0-.16.88.88,0,0,1,.19-.13,28.61,28.61,0,0,0,2.63-2.17c.13-.17.25-.26.35-.26a2.32,2.32,0,0,1,.52.1c.24.07.36.14.36.23a6.54,6.54,0,0,1-.14,1.42,5.36,5.36,0,0,1-.29,1,3.12,3.12,0,0,0-.15.36,0,0,0,0,0,0,0l.1,0a18.45,18.45,0,0,0,2.48-1.62l.31-.24a.27.27,0,0,1,.12.22.31.31,0,0,1-.12.23s-.24.18-.67.55L227,236.71a13.65,13.65,0,0,1-1.68,1.18,3.06,3.06,0,0,1-1.39.54q-1.22,0-1.22-1.47a.3.3,0,0,1,.1-.22.34.34,0,0,1,.25-.1.51.51,0,0,0,.07.2,1.21,1.21,0,0,0,.15.23A1,1,0,0,0,223.94,237.29Z"/><path class="cls-12" d="M232.7,237.44c0,.08,0,.12.15.12a1.64,1.64,0,0,0,.55-.18,6.78,6.78,0,0,0,.95-.56q.55-.38,1.47-1.08t1.61-1.18a.27.27,0,0,1,.12.22.31.31,0,0,1-.12.23l-1.05,1q-.64.61-1.94,1.62a4.05,4.05,0,0,1-1.83,1q-1,0-1-1.07a1.49,1.49,0,0,1,.31-.85l.56-.77a.55.55,0,0,0,.08-.14s0,0-.08,0a24.66,24.66,0,0,1-2.88,2.22.48.48,0,0,1-.26.07q-.43,0-.43-.39a.44.44,0,0,1,.07-.23,10.08,10.08,0,0,1,1.16-1.47l.22-.22a.07.07,0,0,0,0-.05,0,0,0,0,0,0,0s0,0-.08.05l-1.39,1.1q-1.21,1-1.32,1a.43.43,0,0,1-.2.06.69.69,0,0,1-.29-.11q-.2-.11-.2-.25a.22.22,0,0,1,0-.1,19.09,19.09,0,0,0,1.86-2.32l.44-.7a3.84,3.84,0,0,1,.3-.44.32.32,0,0,1,.24-.13.46.46,0,0,1,.29.15.43.43,0,0,1,.16.31.63.63,0,0,1-.1.33,4.89,4.89,0,0,1-.69,1,.11.11,0,0,0,0,.07s0,0,0,0h0l1.74-1.21a2.79,2.79,0,0,1,.79-.46.57.57,0,0,1,.28.08c.1.06.15.12.15.19a.39.39,0,0,1-.07.21l-.84,1.16a1.12,1.12,0,0,0-.17.24s0,0,0,0l.07,0q1.62-1.11,2.2-1.54t.7-.55a.57.57,0,0,1,.31-.13.34.34,0,0,1,.16,0l.29.22a.19.19,0,0,1,.13.17.26.26,0,0,1-.05.17l-1.23,1.33-.67.73a2.18,2.18,0,0,0-.42.65A.68.68,0,0,0,232.7,237.44Z"/><path class="cls-12" d="M238.86,236.16a2.72,2.72,0,0,0,1.14-.44,12.78,12.78,0,0,0,1.36-.89l.58-.46a.27.27,0,0,1,.12.22.31.31,0,0,1-.12.23q-2.14,2-3.25,2l-.23,0q-1.47,1.71-2.52,1.71a.93.93,0,0,1-1-1,3.49,3.49,0,0,1,1-2.05,5.81,5.81,0,0,1,2.48-1.75.28.28,0,0,1,.19.06.23.23,0,0,0,.12.07.22.22,0,0,0,.14-.05.42.42,0,0,1,.23-.07.4.4,0,0,1,.3.16.52.52,0,0,1,.21.42A3.71,3.71,0,0,1,238.86,236.16ZM236,237.67a1.72,1.72,0,0,0,1-.55q.61-.55.64-.76a1.54,1.54,0,0,1-.33-.48,2.64,2.64,0,0,0-.19-.35,4.4,4.4,0,0,0-.71.87,3,3,0,0,0-.49,1.15C236,237.64,236,237.67,236,237.67Zm2.81-3.2q-.13,0-.54.4t-.41.56a.4.4,0,0,0,.08.16c.05.08.09.12.12.12s.31-.18.5-.53a2.83,2.83,0,0,0,.28-.62C238.86,234.5,238.85,234.47,238.83,234.47Z"/><path class="cls-12" d="M242.82,237.34s0,0,.08,0a4,4,0,0,0,.76-.39q1.77-1,4.16-2.69a.27.27,0,0,1,.12.22.34.34,0,0,1-.13.25l-.37.34-.92.8-1.26,1a8.27,8.27,0,0,1-2.26,1.46,1.88,1.88,0,0,1-.51.07,1.06,1.06,0,0,1-.47-.2.45.45,0,0,1-.21-.37,3,3,0,0,1,.1-.62c.06-.27.1-.42.1-.44s0,0,0,0l-.07.05-.43.45a7,7,0,0,1-.89.72,2,2,0,0,1-1,.45l-.16,0a.7.7,0,0,1-.25-.22.78.78,0,0,1-.16-.52,2.15,2.15,0,0,1,.51-1,9.36,9.36,0,0,1,1.23-1.37,8.64,8.64,0,0,1,1.6-1.17,3.18,3.18,0,0,1,1.52-.5q.23,0,.39.35a6.58,6.58,0,0,1,.84-1.18,19.91,19.91,0,0,1,2-2.19,3.29,3.29,0,0,1,1.83-1.1c.15,0,.22.07.22.21a1.67,1.67,0,0,1-.44.89,9.79,9.79,0,0,1-.94,1l-1.29,1.21a25.66,25.66,0,0,0-2.76,2.84A3.64,3.64,0,0,0,242.82,237.34Zm-2.25-.2a3.28,3.28,0,0,0,1-.64q.8-.64,1.53-1.28l.71-.64s.05-.06.05-.07,0,0,0,0a2.45,2.45,0,0,0-1.29.57,8.69,8.69,0,0,0-1.37,1.2q-.58.63-.58.85A0,0,0,0,0,240.57,237.15Z"/><path class="cls-12" d="M254.57,232.22h.66a3.66,3.66,0,0,1,1.87.37q.29.09.29.24t-.25.14l-1.75.2q-1.5.16-2.06.19-.25,0-1.14.86a18,18,0,0,0-1.7,1.87,3.13,3.13,0,0,0-.81,1.42.13.13,0,0,0,.07.11.27.27,0,0,0,.16,0,1,1,0,0,0,.31-.08,54.36,54.36,0,0,0,4.8-3.2.27.27,0,0,1,.12.22.36.36,0,0,1-.13.25l-.38.36-.94.85q-.69.61-1.3,1.1a9.4,9.4,0,0,1-2.29,1.54,2.1,2.1,0,0,1-.55.06.76.76,0,0,1-.58-.33,1.36,1.36,0,0,1-.27-.89,3.35,3.35,0,0,1,.72-1.62,12.1,12.1,0,0,1,2-2.17c.08-.06.12-.12.12-.17s-.09-.08-.27-.08l-.82,0q-1.73,0-1.78-.39-.4-.08-.4-.24a.05.05,0,0,1,.05-.06h.09l.13,0,1.44-.21q1.35-.2,3.06-.33l.9-1.2q.08-.16.55-.16c.31,0,.47.07.47.2a.58.58,0,0,1-.1.23l-.32.46a1.87,1.87,0,0,0-.08.31C254.39,232.19,254.45,232.22,254.57,232.22Z"/><path class="cls-12" d="M254.11,236.93a.67.67,0,0,0-.1.33c0,.1.05.14.16.14a1.13,1.13,0,0,0,.31-.08,35.93,35.93,0,0,0,4.76-3,.27.27,0,0,1,.12.22.34.34,0,0,1-.13.25l-.37.34-.92.8-1.26,1a8.28,8.28,0,0,1-2.26,1.46,1.89,1.89,0,0,1-.51.07q-1,0-1-1.07a2.68,2.68,0,0,1,.45-1.19,11.15,11.15,0,0,1,.94-1.37,2.83,2.83,0,0,1,.64-.66,1,1,0,0,1,.51-.14,1.33,1.33,0,0,1,.52.1.12.12,0,0,1,.08.1s0,.11-.12.2l-.38.4q-.25.27-.75.95A4.81,4.81,0,0,0,254.11,236.93Zm3.12-5.14a.21.21,0,0,1,.17.05.65.65,0,0,1,.18.36.36.36,0,0,1-.08.23l-.19.22a2.4,2.4,0,0,1-.44.34,1.18,1.18,0,0,1-.64.22.26.26,0,0,1-.23-.29,1,1,0,0,1,.47-.76A1.38,1.38,0,0,1,257.23,231.79Z"/><path class="cls-12" d="M259.42,233.93a1,1,0,0,1,.34.1c.16.07.24.15.24.23a.32.32,0,0,1-.06.18l-1,1.36a1.12,1.12,0,0,0-.17.24s0,0,0,0l.06,0q1.51-1.06,2.48-1.85a.57.57,0,0,1,.31-.13.32.32,0,0,1,.16,0l.36.1a.19.19,0,0,1,.13.17.26.26,0,0,1-.05.17l-.56.62-.47.52-.35.4-.28.34-.19.27a1.18,1.18,0,0,0-.14.25,2.13,2.13,0,0,0-.08.52c0,.08,0,.12.15.12a1.64,1.64,0,0,0,.55-.18,6.72,6.72,0,0,0,.95-.56q.55-.38,1.47-1.08t1.61-1.18a.27.27,0,0,1,.12.22.31.31,0,0,1-.12.23l-1.05,1q-.64.61-1.94,1.62a4,4,0,0,1-1.83,1q-1,0-1-1.07a1.49,1.49,0,0,1,.31-.85l.56-.77a.57.57,0,0,0,.08-.14s0,0-.08,0a24.74,24.74,0,0,1-2.89,2.22.48.48,0,0,1-.26.07q-.43,0-.43-.39a.43.43,0,0,1,.06-.23,9.82,9.82,0,0,0,1.35-1.45,4.84,4.84,0,0,0,.66-.87q.34-.56.58-.93T259.42,233.93Z"/><path class="cls-12" d="M268,234.21a1.29,1.29,0,0,1-.58.93,2.11,2.11,0,0,1-1.37.46c-.23,0-.34-.07-.34-.2s0-.09.12-.12a3.51,3.51,0,0,0,1-.74.26.26,0,0,0,0-.12.06.06,0,0,0-.06-.07,3.64,3.64,0,0,0-2.11,1.21,2.94,2.94,0,0,0-1,1.64c0,.18.07.27.21.27a4.37,4.37,0,0,0,2-.56,31.37,31.37,0,0,0,3.17-2.06l.44-.31.34-.25a.27.27,0,0,1,.12.22.31.31,0,0,1-.12.23,18.57,18.57,0,0,1-1.68,1.46,16.78,16.78,0,0,1-2.37,1.53,4.93,4.93,0,0,1-2.18.72q-1,0-1-1.07a2.52,2.52,0,0,1,.49-1.45,4.59,4.59,0,0,1,1.21-1.19,7.21,7.21,0,0,1,1.5-.78,3.78,3.78,0,0,1,1.25-.29,1.34,1.34,0,0,1,.68.13c.14.09.21.17.22.26Z"/><path class="cls-12" d="M268.94,236.93a.67.67,0,0,0-.1.33c0,.1.05.14.16.14a1.13,1.13,0,0,0,.31-.08,35.9,35.9,0,0,0,4.76-3,.27.27,0,0,1,.12.22.34.34,0,0,1-.13.25l-.37.34-.92.8-1.26,1a8.29,8.29,0,0,1-2.26,1.46,1.89,1.89,0,0,1-.51.07q-1,0-1-1.07a2.68,2.68,0,0,1,.45-1.19,11.15,11.15,0,0,1,.94-1.37,2.83,2.83,0,0,1,.64-.66,1,1,0,0,1,.51-.14,1.33,1.33,0,0,1,.52.1.12.12,0,0,1,.08.1s0,.11-.12.2l-.38.4q-.25.27-.75.95A4.81,4.81,0,0,0,268.94,236.93Zm3.12-5.14a.21.21,0,0,1,.17.05.65.65,0,0,1,.18.36.36.36,0,0,1-.08.23l-.19.22a2.4,2.4,0,0,1-.44.34,1.18,1.18,0,0,1-.64.22.26.26,0,0,1-.23-.29,1,1,0,0,1,.47-.76A1.38,1.38,0,0,1,272.06,231.79Z"/><path class="cls-12" d="M274.67,237.34s0,0,.08,0a3.93,3.93,0,0,0,.76-.39q1.77-1,4.16-2.69a.27.27,0,0,1,.12.22.34.34,0,0,1-.13.25l-.37.34-.92.8-1.26,1a8.29,8.29,0,0,1-2.26,1.46,1.89,1.89,0,0,1-.51.07,1.06,1.06,0,0,1-.47-.2.45.45,0,0,1-.21-.37,3,3,0,0,1,.1-.62c.07-.27.1-.42.1-.44s0,0,0,0l-.07.05-.43.45a7.06,7.06,0,0,1-.89.72,2,2,0,0,1-1,.45l-.16,0a.71.71,0,0,1-.25-.22.78.78,0,0,1-.16-.52,2.16,2.16,0,0,1,.51-1,9.44,9.44,0,0,1,1.23-1.37,8.66,8.66,0,0,1,1.6-1.17,3.18,3.18,0,0,1,1.52-.5q.23,0,.39.35a6.61,6.61,0,0,1,.85-1.18,20,20,0,0,1,2-2.19,3.29,3.29,0,0,1,1.83-1.1c.15,0,.22.07.22.21a1.67,1.67,0,0,1-.43.89,9.85,9.85,0,0,1-.94,1l-1.29,1.21a25.65,25.65,0,0,0-2.76,2.84A3.63,3.63,0,0,0,274.67,237.34Zm-2.25-.2a3.28,3.28,0,0,0,1-.64q.8-.64,1.53-1.28l.71-.64s.05-.06.05-.07,0,0,0,0a2.45,2.45,0,0,0-1.29.57,8.71,8.71,0,0,0-1.37,1.2q-.58.63-.58.85A0,0,0,0,0,272.43,237.15Z"/><path class="cls-12" d="M280.64,237.08a35.18,35.18,0,0,0,4.26-2.78.27.27,0,0,1,.12.22.34.34,0,0,1-.13.25l-.37.34-.92.8-1.26,1a8.29,8.29,0,0,1-2.26,1.46,1.89,1.89,0,0,1-.51.07q-.44,0-.44-.69a1.22,1.22,0,0,1,.12-.43l.14-.33,0-.07,0,0a.08.08,0,0,0,0,0s0,0-.08,0-.19.12-.43.35l-.6.55a3.75,3.75,0,0,1-.55.39,1.05,1.05,0,0,1-.5.18q-.52,0-.52-.48a1.74,1.74,0,0,1,.19-.7,7.57,7.57,0,0,1,1.36-1.93q.91-1,1.3-1a.38.38,0,0,1,.26.1.31.31,0,0,1,.12.23c0,.09-.09.22-.26.39l-.66.67a4,4,0,0,0-.56.68,1,1,0,0,0-.16.37c0,.06,0,.09.1.09a.94.94,0,0,0,.38-.17q.74-.51,1.7-1.25a8.54,8.54,0,0,0,1.23-1.08c0-.16.17-.24.39-.24.42,0,.62.07.62.22s-.2.29-.61.68q-1.83,1.76-1.83,2.18s0,.07.06.07A.61.61,0,0,0,280.64,237.08Z"/><path class="cls-12" d="M285.31,233.93a1,1,0,0,1,.34.1c.16.07.24.15.24.23a.32.32,0,0,1-.06.18l-1,1.36a1.12,1.12,0,0,0-.17.24s0,0,0,0l.06,0q1.51-1.06,2.48-1.85a.57.57,0,0,1,.31-.13.32.32,0,0,1,.16,0l.36.1a.19.19,0,0,1,.13.17.26.26,0,0,1-.05.17l-.56.62-.47.52-.35.4-.28.34-.19.27a1.18,1.18,0,0,0-.14.25,2.13,2.13,0,0,0-.08.52c0,.08,0,.12.15.12a1.64,1.64,0,0,0,.55-.18,6.72,6.72,0,0,0,.95-.56q.55-.38,1.47-1.08t1.61-1.18a.27.27,0,0,1,.12.22.31.31,0,0,1-.12.23l-1.05,1q-.64.61-1.94,1.62a4,4,0,0,1-1.83,1q-1,0-1-1.07a1.49,1.49,0,0,1,.31-.85l.56-.77a.57.57,0,0,0,.08-.14s0,0-.08,0A24.74,24.74,0,0,1,283,238.1a.48.48,0,0,1-.26.07q-.43,0-.43-.39a.43.43,0,0,1,.06-.23,9.82,9.82,0,0,0,1.35-1.45,4.84,4.84,0,0,0,.66-.87q.34-.56.58-.93T285.31,233.93Z"/><path class="cls-12" d="M294.4,232.22h.66a3.66,3.66,0,0,1,1.87.37c.19.06.29.14.29.24s-.08.12-.25.14l-1.75.2q-1.5.16-2.06.19-.25,0-1.14.86a18.1,18.1,0,0,0-1.7,1.87,3.14,3.14,0,0,0-.81,1.42.13.13,0,0,0,.06.11.28.28,0,0,0,.16,0,1,1,0,0,0,.31-.08,54.27,54.27,0,0,0,4.8-3.2.27.27,0,0,1,.12.22.36.36,0,0,1-.13.25l-.38.36-.94.85q-.69.61-1.3,1.1a9.43,9.43,0,0,1-2.29,1.54,2.1,2.1,0,0,1-.55.06.76.76,0,0,1-.58-.33,1.36,1.36,0,0,1-.27-.89,3.34,3.34,0,0,1,.72-1.62,12.07,12.07,0,0,1,2-2.17c.08-.06.12-.12.12-.17s-.09-.08-.27-.08l-.82,0q-1.73,0-1.78-.39-.4-.08-.4-.24a.05.05,0,0,1,.05-.06h.09l.13,0,1.44-.21q1.35-.2,3.06-.33l.9-1.2q.08-.16.55-.16t.47.2a.58.58,0,0,1-.1.23l-.32.46a2,2,0,0,0-.08.31C294.22,232.19,294.28,232.22,294.4,232.22Z"/><path class="cls-12" d="M299.19,237.08a35.18,35.18,0,0,0,4.26-2.78.27.27,0,0,1,.12.22.34.34,0,0,1-.13.25l-.37.34-.92.8-1.26,1a8.29,8.29,0,0,1-2.26,1.46,1.89,1.89,0,0,1-.51.07q-.44,0-.44-.69a1.22,1.22,0,0,1,.12-.43l.14-.33,0-.07,0,0a.08.08,0,0,0,0,0s0,0-.08,0-.19.12-.43.35l-.6.55a3.75,3.75,0,0,1-.55.39,1.05,1.05,0,0,1-.5.18q-.52,0-.52-.48a1.74,1.74,0,0,1,.19-.7,7.57,7.57,0,0,1,1.36-1.93q.91-1,1.3-1a.38.38,0,0,1,.26.1.31.31,0,0,1,.12.23c0,.09-.09.22-.26.39l-.66.67a4,4,0,0,0-.56.68,1,1,0,0,0-.16.37c0,.06,0,.09.1.09a.94.94,0,0,0,.38-.17q.74-.51,1.7-1.25a8.54,8.54,0,0,0,1.23-1.08c0-.16.17-.24.39-.24.42,0,.62.07.62.22s-.2.29-.61.68q-1.83,1.76-1.83,2.18s0,.07.06.07A.61.61,0,0,0,299.19,237.08Z"/><path class="cls-12" d="M307,232.22h.66a3.66,3.66,0,0,1,1.87.37c.19.06.29.14.29.24s-.08.12-.25.14l-1.75.2q-1.5.16-2.06.19-.25,0-1.14.86a18.1,18.1,0,0,0-1.7,1.87,3.14,3.14,0,0,0-.81,1.42.13.13,0,0,0,.06.11.28.28,0,0,0,.16,0,1,1,0,0,0,.31-.08,54.27,54.27,0,0,0,4.8-3.2.27.27,0,0,1,.12.22.36.36,0,0,1-.13.25l-.38.36-.94.85q-.69.61-1.3,1.1a9.43,9.43,0,0,1-2.29,1.54,2.1,2.1,0,0,1-.55.06.76.76,0,0,1-.58-.33,1.36,1.36,0,0,1-.27-.89,3.34,3.34,0,0,1,.72-1.62,12.07,12.07,0,0,1,2-2.17c.08-.06.12-.12.12-.17s-.09-.08-.27-.08l-.82,0q-1.73,0-1.78-.39-.4-.08-.4-.24a.05.05,0,0,1,.05-.06h.09l.13,0,1.44-.21q1.35-.2,3.06-.33l.9-1.2q.08-.16.55-.16t.47.2a.58.58,0,0,1-.1.23l-.32.46a2,2,0,0,0-.08.31C306.79,232.19,306.85,232.22,307,232.22Z"/><path class="cls-12" d="M310.06,237.38a4.53,4.53,0,0,0,1.7-.77q1.27-.77,2.31-1.54l1.05-.77a.27.27,0,0,1,.12.22.34.34,0,0,1-.13.25l-.37.34-.92.8-1.26,1a8.29,8.29,0,0,1-2.26,1.46,1.78,1.78,0,0,1-.48.07,1.55,1.55,0,0,1-.39,0,.93.93,0,0,1-.31-.17,1.7,1.7,0,0,1-.34-1.28,2.47,2.47,0,0,1,.23-.84,8.13,8.13,0,0,1,.77-1.36,14.55,14.55,0,0,1,1.26-1.59,11.55,11.55,0,0,1,1.83-1.59,10.93,10.93,0,0,1,2.37-1.29,1.13,1.13,0,0,1,.35-.07.39.39,0,0,1,.29.14.84.84,0,0,1,.18.28l.06.13q0,.3-.92,1.32a16.45,16.45,0,0,1-2.19,2q-1.24,1-2.31,1.64-.87.57-.87,1.2C309.84,237.25,309.92,237.38,310.06,237.38Zm1.17-2.7q.32,0,2-1.6a9.63,9.63,0,0,0,1.64-1.79v0l-.22.1a14.18,14.18,0,0,0-1.8,1.51,13.32,13.32,0,0,0-1.55,1.67.19.19,0,0,0-.05.1S311.22,234.68,311.23,234.68Z"/><path class="cls-12" d="M314.91,237.7l.1-.84s0,0,0,0l-.07.05-.43.45a7,7,0,0,1-.89.72,2,2,0,0,1-1,.45l-.16,0a.71.71,0,0,1-.25-.22.78.78,0,0,1-.16-.52,2.15,2.15,0,0,1,.51-1,10.12,10.12,0,0,1,1.23-1.37,8.17,8.17,0,0,1,1.59-1.17,3.22,3.22,0,0,1,1.53-.5q.25,0,.39.35a.36.36,0,0,1,.23-.13.39.39,0,0,1,.25.16.32.32,0,0,1,.16.08.26.26,0,0,1,.08.2.42.42,0,0,1-.18.29l-.64.77-.52.62-.33.42a1.55,1.55,0,0,0-.31.65,30.45,30.45,0,0,0,4.17-2.75.27.27,0,0,1,.12.22.28.28,0,0,1-.1.22l-.25.22-.59.51-.85.72-.94.77q-.53.42-.94.72a3.72,3.72,0,0,1-1.25.72.39.39,0,0,1-.35-.16A1.08,1.08,0,0,1,314.91,237.7Zm-1.33-.55a3.28,3.28,0,0,0,1-.64q.8-.64,1.51-1.28l.73-.64s.05-.06.05-.07,0,0,0,0a2.45,2.45,0,0,0-1.29.57,8.72,8.72,0,0,0-1.37,1.2q-.58.63-.58.85A0,0,0,0,0,313.59,237.15Z"/><path class="cls-12" d="M321.24,236.16a2.72,2.72,0,0,0,1.14-.44,12.62,12.62,0,0,0,1.36-.89l.58-.46a.27.27,0,0,1,.12.22.31.31,0,0,1-.12.23q-2.14,2-3.25,2l-.23,0q-1.47,1.71-2.52,1.71a1.06,1.06,0,0,1-.88-.5,1,1,0,0,1-.1-.5,3.49,3.49,0,0,1,1-2.05,5.81,5.81,0,0,1,2.48-1.75.28.28,0,0,1,.2.06.23.23,0,0,0,.12.07.22.22,0,0,0,.14-.05.43.43,0,0,1,.23-.07.4.4,0,0,1,.3.16.52.52,0,0,1,.21.42A3.71,3.71,0,0,1,321.24,236.16Zm-2.83,1.51a1.72,1.72,0,0,0,1-.55q.61-.55.64-.76a1.56,1.56,0,0,1-.33-.48,2.72,2.72,0,0,0-.19-.35,4.44,4.44,0,0,0-.71.87,3,3,0,0,0-.49,1.15C318.34,237.64,318.36,237.67,318.41,237.67Zm2.81-3.2q-.13,0-.54.4t-.41.56a.4.4,0,0,0,.08.16c.05.08.09.12.12.12s.31-.18.5-.53a2.83,2.83,0,0,0,.28-.62Q321.24,234.47,321.22,234.47Z"/><path class="cls-12" d="M322.29,235.8q.71-.5,1.49-1.07a1.44,1.44,0,0,1-.53-.56.38.38,0,0,1,0-.13.35.35,0,0,1,.17-.35,1.3,1.3,0,0,1,.55-.08,3.36,3.36,0,0,1,.85.35,3,3,0,0,0,.89.35,1.83,1.83,0,0,0,.53-.11,1.85,1.85,0,0,1,.54-.11.4.4,0,0,1,.29.09,1.71,1.71,0,0,1,.33.52.18.18,0,0,1-.08.15l-.53.37-.88.64a6.34,6.34,0,0,0-.81.73,1.13,1.13,0,0,0-.38.65s0,0,.07,0q.7,0,4.73-2.86c.06,0,.09.05.09.16s-.34.48-1,1.12a22.4,22.4,0,0,1-2.32,1.88,4.05,4.05,0,0,1-1.88.92.81.81,0,0,1-.91-.91,1.63,1.63,0,0,1,.33-1,6.75,6.75,0,0,1,1.4-1.25,2.26,2.26,0,0,1-.6-.11.87.87,0,0,1-.48-.27l-1.17,1a.83.83,0,0,1-.51.14c-.21,0-.31,0-.31-.1S322.16,235.92,322.29,235.8Z"/><path class="cls-12" d="M328.47,238.48q-1,0-1-1.23a2.73,2.73,0,0,1,.67-1.64,5.77,5.77,0,0,1,1.58-1.42,3.2,3.2,0,0,1,1.61-.55.84.84,0,0,1,.58.25.69.69,0,0,1,.27.48,1.45,1.45,0,0,1-.61,1,5.85,5.85,0,0,1-1.28.87,2.73,2.73,0,0,1-.88.33.34.34,0,0,1-.32-.2.23.23,0,0,0-.14,0q-.09,0-.3.35a1.19,1.19,0,0,0-.21.56.25.25,0,0,0,.16.27,4.82,4.82,0,0,0,2.14-.58,26.32,26.32,0,0,0,3.2-2l.44-.31.34-.25a.27.27,0,0,1,.12.22.31.31,0,0,1-.12.23,18.57,18.57,0,0,1-1.68,1.46,16.78,16.78,0,0,1-2.37,1.53A4.93,4.93,0,0,1,328.47,238.48Zm2.77-4.17a2.4,2.4,0,0,0-1.14.7q-.81.7-.81.85s0,0,0,0a2.79,2.79,0,0,0,1.14-.64q.85-.64.85-.87S331.29,234.3,331.23,234.3Z"/><path class="cls-12" d="M333.2,238.48q-1,0-1-1.23a2.73,2.73,0,0,1,.67-1.64,5.77,5.77,0,0,1,1.58-1.42,3.2,3.2,0,0,1,1.61-.55.84.84,0,0,1,.58.25.69.69,0,0,1,.27.48,1.45,1.45,0,0,1-.61,1,5.85,5.85,0,0,1-1.28.87,2.73,2.73,0,0,1-.88.33.34.34,0,0,1-.32-.2.23.23,0,0,0-.14,0q-.09,0-.3.35a1.19,1.19,0,0,0-.21.56.25.25,0,0,0,.16.27,4.82,4.82,0,0,0,2.14-.58,26.32,26.32,0,0,0,3.2-2l.44-.31.34-.25a.27.27,0,0,1,.12.22.31.31,0,0,1-.12.23,18.57,18.57,0,0,1-1.68,1.46,16.78,16.78,0,0,1-2.37,1.53A4.93,4.93,0,0,1,333.2,238.48ZM336,234.3a2.4,2.4,0,0,0-1.14.7q-.81.7-.81.85s0,0,0,0a2.79,2.79,0,0,0,1.14-.64q.85-.64.85-.87S336,234.3,336,234.3Z"/><path class="cls-12" d="M342.63,232.22h.66a3.66,3.66,0,0,1,1.87.37c.19.06.29.14.29.24s-.08.12-.25.14l-1.75.2q-1.5.16-2.06.19-.25,0-1.14.86a18.1,18.1,0,0,0-1.7,1.87,3.14,3.14,0,0,0-.81,1.42.13.13,0,0,0,.06.11.28.28,0,0,0,.16,0,1,1,0,0,0,.31-.08,54.27,54.27,0,0,0,4.8-3.2.27.27,0,0,1,.12.22.36.36,0,0,1-.13.25l-.38.36-.94.85q-.69.61-1.3,1.1a9.43,9.43,0,0,1-2.29,1.54,2.1,2.1,0,0,1-.55.06.76.76,0,0,1-.58-.33,1.36,1.36,0,0,1-.27-.89,3.34,3.34,0,0,1,.72-1.62,12.07,12.07,0,0,1,2-2.17c.08-.06.12-.12.12-.17s-.09-.08-.27-.08l-.82,0q-1.73,0-1.78-.39-.4-.08-.4-.24a.05.05,0,0,1,.05-.06h.09l.13,0,1.44-.21q1.35-.2,3.06-.33l.9-1.2q.08-.16.55-.16t.47.2a.58.58,0,0,1-.1.23l-.32.46a2,2,0,0,0-.08.31C342.45,232.19,342.51,232.22,342.63,232.22Z"/></g><g id="Layer_2" data-name="Layer 2"><ellipse class="cls-9" cx="419.12" cy="422.78" rx="10.31" ry="3.06"/><path class="cls-9" d="M429.43,422.78V407.16c0-2.13-4.61-3.86-10.31-3.86s-10.31,1.73-10.31,3.86v15.62"/><path class="cls-20" d="M429.48,232.54c-7.12,0-13.45-.55-20.56-.55,3.51-11.28,6.7-23.16,10.21-34.44C420.93,203.19,427.68,226.9,429.48,232.54Z"/><polygon points="422.91 210.59 415.37 210.59 419.12 197.55 422.91 210.59"/><path class="cls-21" d="M408.86,232.54c0-3.12,4.61-5.64,10.31-5.64s10.31,2.53,10.31,5.64v179H408.77Z"/><path class="cls-22" d="M408.85,232.54c0-3.1,3.68-5.18,6.34-5.18a6.67,6.67,0,0,0,1-.23c1.39-.21,2.22-.58,2.66-.23.09.07.24-.13.27,0s0-.39,0,0c0,178.2.64,184.6.64,184.6-1.46.1-2.63-.07-3.72,0-7.28.5-7.32,0-7.32,0Z"/><rect class="cls-23" x="408.64" y="395.82" width="20.97" height="10.36" transform="translate(838.25 802) rotate(-180)"/><rect class="cls-24" x="408.64" y="401" width="20.97" height="2.17" transform="translate(838.25 804.16) rotate(-180)"/></g></svg>