<svg id="Layer_1" data-name="Layer 1" xmlns="http://www.w3.org/2000/svg" viewBox="0 0 512 512"><defs><style>.cls-1{fill:#fff;}.cls-1,.cls-8{stroke:#455a64;stroke-miterlimit:10;}.cls-2{fill:#37474f;}.cls-3{fill:#9ccc65;}.cls-4{fill:#7cb342;}.cls-5{fill:#455a64;}.cls-6{fill:#607d8b;}.cls-7{fill:#e53935;}.cls-8{fill:none;}.cls-9{fill:#cfd8dc;}.cls-10{fill:#212121;}.cls-11{fill:#757575;}.cls-12{fill:#90a4ae;}.cls-13{opacity:0.2;}.cls-14{opacity:0.1;}.cls-15{fill:#d32f2f;}.cls-16{fill:#424242;}.cls-17{font-size:0.1px;font-family:MyriadPro-Regular, Myriad Pro;letter-spacing:-0.01em;}.cls-18{fill:#b71c1c;}.cls-19{fill:#1565c0;}</style></defs><title>game</title><path class="cls-1" d="M116.31,58.62H384.44a5,5,0,0,1,5,5v348a30,30,0,0,1-30,30H116.31a5,5,0,0,1-5-5v-373A5,5,0,0,1,116.31,58.62Z"/><path class="cls-2" d="M143.37,89.66H363.09a5,5,0,0,1,5,5V230.6a20,20,0,0,1-20,20H143.37a5,5,0,0,1-5-5V94.66A5,5,0,0,1,143.37,89.66Z"/><rect class="cls-3" x="163.02" y="102.42" width="174.31" height="135.43"/><polyline class="cls-4" points="163.02 237.84 163.02 102.42 337.33 102.42"/><rect class="cls-5" x="145.76" y="94" width="30" height="5" rx="2.5" ry="2.5"/><rect class="cls-5" x="176.76" y="94" width="30" height="5" rx="2.5" ry="2.5"/><rect class="cls-6" x="207.76" y="94" width="30" height="5" rx="2.5" ry="2.5"/><rect class="cls-6" x="238.76" y="94" width="30" height="5" rx="2.5" ry="2.5"/><rect class="cls-6" x="270.76" y="94" width="30" height="5" rx="2.5" ry="2.5"/><rect class="cls-6" x="302.76" y="94" width="30" height="5" rx="2.5" ry="2.5"/><rect class="cls-5" x="334.76" y="94" width="30" height="5" rx="2.5" ry="2.5"/><circle class="cls-7" cx="149.8" cy="122.46" r="4.04"/><line class="cls-8" x1="110.94" y1="77.03" x2="389.06" y2="77.03"/><line class="cls-8" x1="130.36" y1="58.5" x2="130.36" y2="77.03"/><line class="cls-8" x1="370.64" y1="58.5" x2="370.64" y2="77.03"/><circle class="cls-9" cx="175.76" cy="310.42" r="30.67"/><path class="cls-10" d="M196.74,302.11H184.07V289.44a4.22,4.22,0,0,0-4.22-4.22h-8.17a4.22,4.22,0,0,0-4.22,4.22v12.67H154.78a4.22,4.22,0,0,0-4.22,4.22v8.17a4.22,4.22,0,0,0,4.22,4.22h12.67V331.4a4.22,4.22,0,0,0,4.22,4.22h8.17a4.22,4.22,0,0,0,4.22-4.22V318.73h12.67A4.22,4.22,0,0,0,201,314.5v-8.17A4.22,4.22,0,0,0,196.74,302.11Z"/><circle class="cls-11" cx="175.76" cy="310.42" r="3.35"/><rect class="cls-12" x="292.69" y="422.98" width="45.21" height="2.23" rx="1.11" ry="1.11" transform="translate(346.36 -103.45) rotate(40)"/><rect class="cls-12" x="301.52" y="411.9" width="45.21" height="2.23" rx="1.11" ry="1.11" transform="translate(341.31 -111.72) rotate(40)"/><rect class="cls-12" x="310.35" y="402.13" width="45.21" height="2.23" rx="1.11" ry="1.11" transform="translate(337.1 -119.68) rotate(40)"/><rect class="cls-12" x="319.19" y="392.18" width="45.21" height="2.23" rx="1.11" ry="1.11" transform="translate(332.77 -127.69) rotate(40)"/><rect class="cls-12" x="328.02" y="380.6" width="45.21" height="2.23" rx="1.11" ry="1.11" transform="translate(327.39 -136.07) rotate(40)"/><rect class="cls-12" x="336.85" y="370.34" width="45.21" height="2.23" rx="1.11" ry="1.11" transform="translate(322.87 -144.15) rotate(40)"/><path class="cls-9" d="M343.4,298.92l-40.15,33.69c-4.53,3.8-11.89,2.57-16.34-2.74l-.92-1.1-2.49-3c-4.46-5.31-4.39-12.77.14-16.57l40.15-33.69c4.53-3.8,11.89-2.57,16.34,2.74l2.56,3,.85,1C348,287.66,347.93,295.12,343.4,298.92Z"/><path class="cls-13" d="M330.53,283.59l-40.15,33.69"/><path class="cls-14" d="M283.85,327.48c-4.59-6.82-5.15-14.54-1-18l40.92-34.33c4-3.39,11.27-1.68,17.11,3.69"/><ellipse class="cls-15" cx="302.1" cy="313.65" rx="10.64" ry="11.42" transform="translate(-130.93 267.57) rotate(-40)"/><ellipse class="cls-15" cx="325.68" cy="293.87" rx="10.64" ry="11.42" transform="translate(-112.7 278.1) rotate(-40)"/><line x1="330.53" y1="283.59" x2="338.65" y2="276.78"/><circle class="cls-16" cx="338.71" cy="310.42" r="2.5"/><circle class="cls-16" cx="317.2" cy="331.65" r="2.5"/><rect class="cls-9" x="267.89" y="365.9" width="38.26" height="6.35" rx="2.71" ry="2.71" transform="translate(-170.09 270.84) rotate(-40)"/><rect class="cls-16" x="270.45" y="367.41" width="33.13" height="3.33" rx="1.67" ry="1.67" transform="translate(-170.09 270.84) rotate(-40)"/><rect class="cls-9" x="234.63" y="393.78" width="38.26" height="6.39" rx="2.71" ry="2.71" transform="translate(-195.8 255.99) rotate(-40)"/><rect class="cls-16" x="237.19" y="395.31" width="33.13" height="3.33" rx="1.67" ry="1.67" transform="translate(-195.8 255.99) rotate(-40)"/><path d="M253.79,408.35a2.06,2.06,0,0,0,.69-.37c.24-.2.3-.39.19-.52s-.27-.1-.62.06-.88.25-1.12,0-.16-.86.39-1.32a2.2,2.2,0,0,1,.68-.4l.18.45a1.69,1.69,0,0,0-.57.32c-.23.19-.27.37-.18.47s.28.07.66-.09.86-.2,1.09.07.2.85-.44,1.39a2.33,2.33,0,0,1-.76.44Z"/><path d="M256.4,406c.17.17.46.07.7-.13a2.31,2.31,0,0,0,.42-.45l.32.24a2.57,2.57,0,0,1-.54.6c-.57.48-1.13.48-1.5,0a1,1,0,0,1,.22-1.47.88.88,0,0,1,1.34.07,1.17,1.17,0,0,1,.13.19Zm.37-.82a.36.36,0,0,0-.54,0,.41.41,0,0,0-.09.56Z"/><path d="M257,402.93l.53-.44,1.71,2-.53.44Z"/><path d="M260.06,402.9c.17.17.46.07.7-.13a2.31,2.31,0,0,0,.42-.45l.32.24a2.57,2.57,0,0,1-.54.6c-.57.48-1.13.48-1.5,0a1,1,0,0,1,.22-1.47.88.88,0,0,1,1.34.07,1.17,1.17,0,0,1,.13.19Zm.37-.82a.36.36,0,0,0-.54,0,.41.41,0,0,0-.09.56Z"/><path d="M263.64,400.8a2,2,0,0,1-.42.46c-.55.46-1.13.48-1.5,0s-.29-1,.34-1.56a1.89,1.89,0,0,1,.45-.28l.19.39a1.13,1.13,0,0,0-.33.2.52.52,0,0,0-.12.77.53.53,0,0,0,.79,0,1.24,1.24,0,0,0,.26-.3Z"/><path d="M263.52,397.87l.34.4.38-.32.27.32-.38.32.43.51c.14.17.26.21.42.07l.15-.14.28.33a1.6,1.6,0,0,1-.31.32.8.8,0,0,1-.5.21.67.67,0,0,1-.5-.29l-.48-.58-.22.19-.27-.32.22-.19-.26-.3Z"/><path d="M287.33,380.79a2.06,2.06,0,0,0,.69-.37c.24-.2.3-.39.19-.52s-.27-.1-.62.06-.88.25-1.12,0-.16-.86.39-1.32a2.2,2.2,0,0,1,.68-.4l.18.45a1.69,1.69,0,0,0-.57.32c-.23.19-.27.37-.18.47s.28.07.66-.09.86-.2,1.09.07.2.85-.44,1.39a2.33,2.33,0,0,1-.76.44Z"/><path d="M289.94,378.41c.17.17.46.07.7-.13a2.31,2.31,0,0,0,.42-.45l.32.24a2.57,2.57,0,0,1-.54.6c-.57.48-1.13.48-1.5,0a1,1,0,0,1,.22-1.47.88.88,0,0,1,1.34.07,1.17,1.17,0,0,1,.13.19Zm.37-.82a.36.36,0,0,0-.54,0,.41.41,0,0,0-.09.56Z"/><path d="M290.57,375.36l.53-.44,1.71,2-.53.44Z"/><path d="M293.6,375.33c.17.17.46.07.7-.13a2.31,2.31,0,0,0,.42-.45l.32.24a2.57,2.57,0,0,1-.54.6c-.57.48-1.13.48-1.5,0a1,1,0,0,1,.22-1.47.88.88,0,0,1,1.34.07,1.17,1.17,0,0,1,.13.19Zm.37-.82a.36.36,0,0,0-.54,0,.41.41,0,0,0-.09.56Z"/><path d="M297.18,373.23a2,2,0,0,1-.42.46c-.55.46-1.13.48-1.5,0s-.29-1,.34-1.56a1.89,1.89,0,0,1,.45-.28l.19.39a1.13,1.13,0,0,0-.33.2.52.52,0,0,0-.12.77.53.53,0,0,0,.79,0,1.24,1.24,0,0,0,.26-.3Z"/><path d="M297.07,370.31l.34.4.38-.32.27.32-.38.32.43.51c.14.17.26.21.42.07l.15-.14.28.33a1.6,1.6,0,0,1-.31.32.8.8,0,0,1-.5.21.67.67,0,0,1-.5-.29l-.48-.58-.22.19-.27-.32.22-.19-.26-.3Z"/><text class="cls-17" transform="translate(264.09 409)">Lorem ipsum</text><path d="M320.41,337.18a7.38,7.38,0,0,1,.8-.77,2.27,2.27,0,0,1,1-.57.75.75,0,0,1,.79.23.8.8,0,0,1,0,1h0a.87.87,0,0,1,1.3,1,2.57,2.57,0,0,1-.94,1.2,7.27,7.27,0,0,1-.74.56Zm1.5.47.22-.18c.34-.29.42-.57.26-.77s-.43-.17-.72.08a2.51,2.51,0,0,0-.27.25Zm1,1.18a2.84,2.84,0,0,0,.26-.21c.3-.25.47-.57.24-.85s-.58-.15-.91.12l-.22.19Z"/><path d="M345.62,318.67l.32.8-.68.57-1.15-3.17.86-.73,2.94,1.67-.71.6-.75-.43Zm.4-1-.61-.36-.54-.34h0c.08.18.19.4.26.58l.26.66Z"/><rect class="cls-18" x="141.74" y="246" width="50.59" height="1.5" rx="0.75" ry="0.75"/><rect class="cls-19" x="141.74" y="241" width="50.59" height="1.5" rx="0.75" ry="0.75"/><circle class="cls-19" cx="357.89" cy="235.24" r="3.7"/><circle class="cls-18" cx="350.62" cy="242.5" r="3.56"/></svg>