<svg xmlns="http://www.w3.org/2000/svg" viewBox="0 0 400 400"><defs><style>.cls-1{fill:#f44336;}.cls-2{fill:#26c6da;}.cls-3,.cls-4{fill:#607d8b;}.cls-4{stroke:#767676;}.cls-16,.cls-4{stroke-miterlimit:10;}.cls-5{fill:#fdd835;}.cls-6{fill:#fbc02d;}.cls-7,.cls-8{opacity:0.7;}.cls-8{fill:#546e7a;}.cls-9{fill:#d7ccc8;}.cls-10{fill:#29b6f6;}.cls-11{fill:#039be5;}.cls-12{fill:#37474f;}.cls-13{fill:#eee;}.cls-14{fill:#b0bec5;}.cls-15{fill:#cfd8dc;}.cls-16{fill:none;stroke:#cfd8dc;stroke-width:4px;}</style></defs><title>Graphics</title><g id="Layer_7" data-name="Layer 7"><ellipse class="cls-1" cx="245.55" cy="320.26" rx="35.08" ry="38.69"/></g><g id="Layer_6" data-name="Layer 6"><rect class="cls-2" x="212.29" y="187.16" width="66.52" height="73.37"/></g><g id="Text"><path class="cls-3" d="M261.72,114.46v9.22h-.6a13.28,13.28,0,0,0-.7-3.14,5.87,5.87,0,0,0-1.27-2.09,4.66,4.66,0,0,0-1.92-1.16,8.63,8.63,0,0,0-2.63-.36h-5v30q0,3.62.71,4.52a3.7,3.7,0,0,0,3.07,1.22h1.23v1.07H239.49v-1.07h1.26a3.49,3.49,0,0,0,3.21-1.51q.58-.9.58-4.23v-30h-4.28a13.58,13.58,0,0,0-2.84.26,4.55,4.55,0,0,0-2,1,5.14,5.14,0,0,0-1.37,2.06,14.39,14.39,0,0,0-.79,3.45h-1v-9.22Z"/><rect class="cls-4" x="246.21" y="157.46" width="1.98" height="8.79" rx="0.83" ry="0.83" transform="translate(85.35 409.05) rotate(-90)"/><rect class="cls-4" x="276.4" y="150.11" width="1.79" height="9.7" rx="0.83" ry="0.83"/><rect class="cls-4" x="276.4" y="125.18" width="1.79" height="9.7" rx="0.83" ry="0.83"/><rect class="cls-4" x="219.3" y="157.46" width="1.98" height="8.79" rx="0.83" ry="0.83" transform="translate(58.44 382.14) rotate(-90)"/><rect class="cls-4" x="270.96" y="95.95" width="1.98" height="8.79" rx="0.83" ry="0.83" transform="translate(171.6 372.3) rotate(-90)"/><rect class="cls-4" x="212.9" y="101.44" width="1.79" height="9.7" rx="0.83" ry="0.83"/><ellipse class="cls-4" cx="213.8" cy="161.85" rx="3.87" ry="4.26"/><ellipse class="cls-4" cx="277.3" cy="161.85" rx="3.87" ry="4.26"/><ellipse class="cls-4" cx="213.8" cy="100.12" rx="3.87" ry="4.26"/><rect class="cls-4" x="212.9" y="126.37" width="1.79" height="9.7" rx="0.83" ry="0.83"/><rect class="cls-4" x="246.21" y="95.95" width="1.98" height="8.79" rx="0.83" ry="0.83" transform="translate(146.85 347.55) rotate(-90)"/><rect class="cls-4" x="270.96" y="157.46" width="1.98" height="8.79" rx="0.83" ry="0.83" transform="translate(110.1 433.8) rotate(-90)"/><rect class="cls-4" x="276.4" y="101.44" width="1.79" height="9.7" rx="0.83" ry="0.83"/><rect class="cls-4" x="212.9" y="151.3" width="1.79" height="9.7" rx="0.83" ry="0.83"/><ellipse class="cls-4" cx="277.3" cy="100.12" rx="3.87" ry="4.26"/><rect class="cls-4" x="218.23" y="95.95" width="1.98" height="8.79" rx="0.83" ry="0.83" transform="translate(118.87 319.56) rotate(-90)"/></g><g id="Layer_4" data-name="Layer 4"><rect class="cls-5" x="326.7" y="98.63" width="59.95" height="250.42" rx="3" ry="3"/><path class="cls-6" d="M356.68,98.63h26.75a3.41,3.41,0,0,1,3.23,3.56v243.3a3.41,3.41,0,0,1-3.23,3.56H356.68"/><rect class="cls-7" x="376.16" y="340.42" width="10.49" height="2.97" rx="1.25" ry="1.25"/><rect class="cls-7" x="376.16" y="322.61" width="10.49" height="2.97" rx="1.25" ry="1.25"/><rect class="cls-7" x="376.16" y="305.99" width="10.49" height="2.97" rx="1.25" ry="1.25"/><rect class="cls-7" x="376.16" y="289.37" width="10.49" height="2.97" rx="1.25" ry="1.25"/><rect class="cls-7" x="376.16" y="272.75" width="10.49" height="2.97" rx="1.25" ry="1.25"/><rect class="cls-7" x="376.16" y="256.13" width="10.49" height="2.97" rx="1.25" ry="1.25"/><rect class="cls-7" x="376.16" y="239.51" width="10.49" height="2.97" rx="1.25" ry="1.25"/><rect class="cls-7" x="376.16" y="222.89" width="10.49" height="2.97" rx="1.25" ry="1.25"/><rect class="cls-7" x="376.16" y="206.27" width="10.49" height="2.97" rx="1.25" ry="1.25"/><rect class="cls-7" x="376.16" y="189.65" width="10.49" height="2.97" rx="1.25" ry="1.25"/><rect class="cls-7" x="376.16" y="173.03" width="10.49" height="2.97" rx="1.25" ry="1.25"/><rect class="cls-7" x="376.16" y="156.41" width="10.49" height="2.97" rx="1.25" ry="1.25"/><rect class="cls-7" x="376.16" y="139.79" width="10.49" height="2.97" rx="1.25" ry="1.25"/><rect class="cls-7" x="376.16" y="123.17" width="10.49" height="2.97" rx="1.25" ry="1.25"/><rect class="cls-7" x="376.16" y="105.95" width="10.49" height="2.97" rx="1.25" ry="1.25"/><ellipse class="cls-8" cx="356.32" cy="340.43" rx="2.68" ry="2.95"/></g><g id="Layer_3" data-name="Layer 3"><path class="cls-9" d="M155.23,382.38c0,7.43-.66,14-.66,21.47-13.5-3.67-27.72-7-41.23-10.66C120.09,391.31,148.48,384.26,155.23,382.38Z"/><polygon points="128.96 389.24 128.96 397.12 113.34 393.19 128.96 389.24"/><path class="cls-10" d="M155.23,403.91c-3.73,0-6.75-4.82-6.75-10.76s3-10.76,6.75-10.76H369.49V404Z"/><path class="cls-11" d="M155.23,403.92c-3.71,0-6.2-3.84-6.2-6.63a6.21,6.21,0,0,0-.27-1.09c-.25-1.45-.7-2.32-.28-2.78.09-.09-.15-.25,0-.29s-.46,0,0,0c213.35,0,221-.67,221-.67.12,1.52-.09,2.74,0,3.89.59,7.6,0,7.64,0,7.64Z"/><ellipse class="cls-12" cx="382.99" cy="393.19" rx="3.66" ry="10.76"/><path class="cls-12" d="M383,382.24H364.3c-2.55,0-4.63,4.87-4.63,10.88S361.74,404,364.3,404H383"/><rect class="cls-13" x="345.97" y="386.99" width="21.9" height="12.41" transform="translate(750.11 36.28) rotate(90)"/><rect class="cls-14" x="347.26" y="391.9" width="21.9" height="2.59" transform="translate(751.41 34.98) rotate(90)"/></g><g id="Layer_2" data-name="Layer 2"><rect class="cls-15" x="113.34" y="219.29" width="71.93" height="120.1" rx="20" ry="20"/><rect class="cls-3" x="146.3" y="236.97" width="6.02" height="23.78" rx="0.99" ry="0.99"/><path class="cls-16" d="M149.31,219.29A66.35,66.35,0,0,0,151.09,203c-.08-5.35-.14-10.08-2.18-15.24-3.29-8.34-7.73-7.67-10.18-14.44-2.68-7.39-.82-17.63,4.36-23.26,5.94-6.46,12.48-2.77,17.45-8,3.47-3.67,6.09-11.61,1-30.82"/></g></svg>