<svg xmlns="http://www.w3.org/2000/svg" xmlns:xlink="http://www.w3.org/1999/xlink" viewBox="0 0 512 512"><defs><style>.cls-1,.cls-39{fill:#9acd32;}.cls-2{fill:url(#linear-gradient);}.cls-3{fill:#fff;}.cls-27,.cls-37,.cls-4{fill:none;stroke-miterlimit:10;}.cls-37,.cls-4{stroke:#fff;}.cls-4{stroke-width:3px;}.cls-5{fill:#03a9f4;}.cls-6{fill:url(#linear-gradient-2);}.cls-7{fill:#37474f;}.cls-8{fill:url(#linear-gradient-3);}.cls-9{fill:url(#linear-gradient-4);}.cls-10{fill:url(#linear-gradient-5);}.cls-11{fill:url(#linear-gradient-6);}.cls-12{fill:#757575;}.cls-13{fill:url(#linear-gradient-7);}.cls-14{fill:url(#linear-gradient-8);}.cls-15,.cls-40{fill:#e53935;}.cls-16{fill:#c62828;}.cls-17{fill:url(#linear-gradient-9);}.cls-18{fill:#ffff8d;}.cls-19{fill:url(#linear-gradient-10);}.cls-20{fill:url(#linear-gradient-11);}.cls-21{fill:url(#linear-gradient-12);}.cls-22{fill:url(#linear-gradient-13);}.cls-23{fill:url(#linear-gradient-14);}.cls-24{fill:#263238;}.cls-25{fill:#e0e0e0;}.cls-26{fill:#fafafa;}.cls-27{stroke:#9e9e9e;}.cls-28{fill:#607d8b;}.cls-29{fill:url(#linear-gradient-15);}.cls-30{fill:url(#linear-gradient-16);}.cls-31{fill:url(#linear-gradient-17);}.cls-32{fill:url(#linear-gradient-18);}.cls-33{fill:#cfd8dc;}.cls-34{fill:url(#linear-gradient-19);}.cls-35{fill:url(#linear-gradient-20);}.cls-36{fill:url(#linear-gradient-21);}.cls-37{stroke-width:5px;}.cls-38{fill:#fdd835;}.cls-38,.cls-39,.cls-40{opacity:0.8;}</style><linearGradient id="linear-gradient" x1="329.39" y1="124.14" x2="448.43" y2="243.18" gradientUnits="userSpaceOnUse"><stop offset="0" stop-opacity="0.1"/><stop offset="1" stop-color="#fff"/></linearGradient><linearGradient id="linear-gradient-2" x1="122.97" y1="123.09" x2="248.2" y2="248.32" gradientUnits="userSpaceOnUse"><stop offset="0" stop-opacity="0.2"/><stop offset="1" stop-opacity="0"/></linearGradient><linearGradient id="linear-gradient-3" x1="207.26" y1="243.19" x2="232.61" y2="243.19" gradientTransform="matrix(0.37, 1.57, -0.87, 0.21, 382.12, -169.55)" gradientUnits="userSpaceOnUse"><stop offset="0" stop-color="#fdd835"/><stop offset="0.5" stop-color="#9acd32"/><stop offset="1" stop-color="#e53935"/></linearGradient><linearGradient id="linear-gradient-4" x1="232.49" y1="243.33" x2="239.47" y2="243.33" xlink:href="#linear-gradient-3"/><linearGradient id="linear-gradient-5" x1="236" y1="249" x2="236" y2="249" xlink:href="#linear-gradient-3"/><linearGradient id="linear-gradient-6" x1="239.38" y1="243.47" x2="264.7" y2="243.47" xlink:href="#linear-gradient-3"/><linearGradient id="linear-gradient-7" x1="131.07" y1="335.55" x2="235.04" y2="439.51" xlink:href="#linear-gradient-2"/><linearGradient id="linear-gradient-8" x1="134.85" y1="345.97" x2="152.9" y2="364.02" xlink:href="#linear-gradient-2"/><linearGradient id="linear-gradient-9" x1="383.52" y1="-261.04" x2="351.98" y2="-261.04" gradientTransform="matrix(-0.27, -0.91, 0.93, -0.28, 476.39, 647.21)" gradientUnits="userSpaceOnUse"><stop offset="0" stop-color="#ffea00"/><stop offset="0.45" stop-color="#ffd600"/></linearGradient><linearGradient id="linear-gradient-10" x1="127.44" y1="389.68" x2="143.63" y2="389.68" gradientTransform="translate(222.65 -41.99) rotate(30)" gradientUnits="userSpaceOnUse"><stop offset="0" stop-color="#455a64"/><stop offset="0.45" stop-color="#90a4ae"/></linearGradient><linearGradient id="linear-gradient-11" x1="124.92" y1="400.91" x2="146.19" y2="400.91" xlink:href="#linear-gradient-10"/><linearGradient id="linear-gradient-12" x1="124.92" y1="395.3" x2="146.19" y2="395.3" xlink:href="#linear-gradient-10"/><linearGradient id="linear-gradient-13" x1="123.45" y1="358.01" x2="147.53" y2="358.01" gradientTransform="translate(222.65 -41.99) rotate(30)" gradientUnits="userSpaceOnUse"><stop offset="0" stop-color="#78909c"/><stop offset="0.45" stop-color="#cfd8dc"/></linearGradient><linearGradient id="linear-gradient-14" x1="123.46" y1="349.69" x2="147.48" y2="349.69" gradientTransform="translate(222.65 -41.99) rotate(30)" gradientUnits="userSpaceOnUse"><stop offset="0" stop-color="#c62828"/><stop offset="0.45" stop-color="#ef5350"/></linearGradient><linearGradient id="linear-gradient-15" x1="161.47" y1="404.68" x2="159.24" y2="404.68" gradientTransform="translate(222.65 -41.99) rotate(30)" xlink:href="#linear-gradient-9"/><linearGradient id="linear-gradient-16" x1="112.68" y1="405.34" x2="110.46" y2="405.34" gradientTransform="translate(222.65 -41.99) rotate(30)" xlink:href="#linear-gradient-9"/><linearGradient id="linear-gradient-17" x1="153.42" y1="397.19" x2="151.22" y2="397.19" gradientTransform="translate(222.65 -41.99) rotate(30)" xlink:href="#linear-gradient-9"/><linearGradient id="linear-gradient-18" x1="119.88" y1="397.13" x2="117.68" y2="397.13" gradientTransform="translate(222.65 -41.99) rotate(30)" xlink:href="#linear-gradient-9"/><linearGradient id="linear-gradient-19" x1="96.67" y1="358.85" x2="114.73" y2="376.9" xlink:href="#linear-gradient-2"/><linearGradient id="linear-gradient-20" x1="124.09" y1="304.82" x2="142.14" y2="322.88" xlink:href="#linear-gradient-2"/><linearGradient id="linear-gradient-21" x1="320.42" y1="369.39" x2="423.91" y2="369.39" xlink:href="#linear-gradient-2"/></defs><title>logo</title><g id="Layer_1" data-name="Layer 1"><ellipse class="cls-1" cx="355.28" cy="145" rx="69.72" ry="70"/><path class="cls-2" d="M420.83,164a8151.51,8151.51,0,0,0-2-2,16290,16290,0,0,1-2-2,16285.76,16285.76,0,0,1-2-2,16299.91,16299.91,0,0,0-2-2,16310.36,16310.36,0,0,1-2-2,16292.34,16292.34,0,0,0-2-2,16309.07,16309.07,0,0,1-2-2,16295.29,16295.29,0,0,1-2-2,8149.12,8149.12,0,0,0-2-2,16299.53,16299.53,0,0,1-2-2,16295.29,16295.29,0,0,1-2-2,8153.89,8153.89,0,0,0-2-2,16290,16290,0,0,1-2-2,16295.29,16295.29,0,0,1-2-2,8151.51,8151.51,0,0,0-2-2,16299.53,16299.53,0,0,1-2-2,4.8,4.8,0,0,0-3.58-1.94l-.58-.56c-.32-.34-.64-.67-1-1s-.64-.67-1-1-.64-.67-1-1-.64-.67-1-1-.64-.67-1-1-.64-.67-1-1-.64-.67-1-1-.64-.67-1-1-.64-.67-1-1-.64-.67-1-1-.64-.67-1-1-.64-.67-1-1c-4.05-4.33-10.54-7.14-17.88-7.14-12.28,0-22.24,7.85-22.24,17.54h1.05c0,.33-.06.66-.06,1h1.05c0,.33-.06.66-.06,1H336v.17h-1.63a1.4,1.4,0,0,0-1.39,1.4V136a45.27,45.27,0,0,1-1.78-1.74,16272.16,16272.16,0,0,1-2-2,4.8,4.8,0,0,0-3.85-2h-.16a4.85,4.85,0,0,0-4.82,4.84v18.72a9.18,9.18,0,0,0,2.95,4.86,16291.2,16291.2,0,0,1,2,2,32630.32,32630.32,0,0,0,2,2,32648.12,32648.12,0,0,0,2,2,16295.29,16295.29,0,0,1,2,2,8153.89,8153.89,0,0,0,2,2,16299.53,16299.53,0,0,1,2,2,16304.87,16304.87,0,0,1,2,2,4.88,4.88,0,0,0,.55.63v9A9.15,9.15,0,0,0,340.7,187a32615,32615,0,0,0,2,2,59913606.12,59913606.12,0,0,0,2,2,22968317.37,22968317.37,0,0,0,2,2,11968808.86,11968808.86,0,0,0,2,2,17289519.63,17289519.63,0,0,0,2,2,32290420.38,32290420.38,0,0,0,2,2,51607685.39,51607685.39,0,0,0,2,2,32578.22,32578.22,0,0,1,3,3,32578.17,32578.17,0,0,1,3,3,32616.49,32616.49,0,0,1,3,3,32578.22,32578.22,0,0,1,3,3,4.84,4.84,0,0,0,1,1l.06.06A69.89,69.89,0,0,0,422,165.24c-.08-.07-.13-.16-.22-.22A4.87,4.87,0,0,0,420.83,164Z"/><rect class="cls-3" x="333.02" y="130.37" width="44.48" height="37.24" rx="1" ry="1"/><rect class="cls-3" x="337.77" y="163.61" width="9.74" height="23.39" rx="3.43" ry="3.43"/><rect class="cls-3" x="363.26" y="163.61" width="9.31" height="23.39" rx="3.28" ry="3.28"/><rect class="cls-3" x="320.42" y="130.27" width="9.81" height="28.4" rx="3.46" ry="3.46"/><rect class="cls-3" x="380.33" y="130.27" width="9.81" height="28.4" rx="3.46" ry="3.46"/><path class="cls-3" d="M355.26,110.67c-12.28,0-22.24,7.85-22.24,17.54H377.5C377.5,118.53,367.54,110.67,355.26,110.67ZM348,124.5a3,3,0,1,1,3.22-3A3.13,3.13,0,0,1,348,124.5Zm15.27,0a3,3,0,1,1,3.22-3A3.13,3.13,0,0,1,363.26,124.5Z"/><line class="cls-4" x1="366.47" y1="113.56" x2="371.9" y2="103"/><line class="cls-4" x1="346.26" y1="115.03" x2="339.01" y2="104.08"/></g><g id="Layer_2" data-name="Layer 2"><ellipse class="cls-5" cx="144.72" cy="145" rx="69.72" ry="70"/><path class="cls-6" d="M213.87,149c-.21,0-.41.11-.62.15-.11-.38-.22-.78-.36-1.14-.21,0-.41.11-.62.15-.11-.38-.22-.78-.36-1.14-.21,0-.41.11-.62.15-.11-.38-.22-.78-.36-1.14-.21,0-.41.11-.62.15-.11-.38-.22-.77-.36-1.14-.21,0-.41.11-.62.15-.11-.38-.22-.78-.36-1.14-.21,0-.41.11-.62.15-.11-.38-.22-.78-.36-1.14-.21,0-.41.11-.62.15-.11-.38-.22-.77-.36-1.14-.21,0-.41.11-.62.15-.11-.38-.22-.77-.36-1.14-.21,0-.41.11-.62.15-.11-.38-.22-.78-.36-1.14-.21,0-.41.11-.62.15-.11-.38-.22-.78-.36-1.14-.21,0-.41.11-.62.15-.11-.38-.22-.77-.36-1.14-.21,0-.41.11-.62.15-.11-.38-.22-.78-.36-1.14-.21,0-.41.11-.62.15-.11-.38-.22-.78-.36-1.14-.21,0-.41.11-.62.15-.11-.38-.22-.78-.36-1.14-.21,0-.41.11-.62.15-.11-.38-.22-.77-.36-1.14-.21,0-.41.11-.62.15-.11-.38-.22-.78-.36-1.14-.21,0-.41.11-.62.15-.11-.38-.22-.78-.36-1.14-.21,0-.41.11-.62.15-.11-.38-.22-.77-.36-1.14-.21,0-.41.11-.62.15-.11-.38-.22-.77-.36-1.14-.21,0-.41.11-.62.15-.11-.38-.22-.78-.36-1.14-.21,0-.41.11-.62.15-.11-.38-.22-.78-.36-1.14-.21,0-.41.11-.62.15-.11-.38-.22-.77-.36-1.14-.21,0-.41.11-.62.15-.11-.38-.22-.78-.36-1.14-.21,0-.41.11-.62.15-.11-.38-.22-.78-.36-1.14-.21,0-.41.11-.62.15-.11-.38-.22-.78-.36-1.14-.21,0-.41.11-.62.15-.11-.38-.22-.77-.36-1.14-.21,0-.41.11-.62.15-.11-.38-.22-.78-.36-1.14-.21,0-.41.11-.62.15-.11-.38-.22-.78-.36-1.14-.21,0-.41.11-.62.15-.11-.38-.22-.77-.36-1.14-.21,0-.41.11-.62.15-.11-.38-.22-.77-.36-1.14-.21,0-.41.11-.62.15-.11-.38-.22-.78-.36-1.14-.21,0-.41.11-.62.15-.11-.38-.22-.78-.36-1.14-.21,0-.41.11-.62.15-.11-.38-.22-.77-.36-1.14-.21,0-.41.11-.62.15-.11-.38-.22-.78-.36-1.14-.21,0-.41.11-.62.15-.11-.38-.22-.78-.36-1.14-.21,0-.41.11-.62.15-.11-.38-.22-.78-.36-1.14-.21,0-.41.11-.62.15-.11-.38-.22-.77-.36-1.14-.21,0-.41.11-.62.15-.11-.38-.22-.78-.36-1.14-.21,0-.41.11-.62.15-.11-.38-.22-.78-.36-1.14-.21,0-.41.11-.62.15-.11-.38-.22-.77-.36-1.14-.21,0-.41.11-.62.15-.11-.38-.22-.77-.36-1.14-.21,0-.41.11-.62.15-.11-.38-.22-.78-.36-1.14-.21,0-.41.11-.62.15-.11-.38-.22-.78-.36-1.14-.21,0-.41.11-.62.15-.11-.38-.22-.77-.36-1.14-.21,0-.41.11-.62.15-.11-.38-.22-.78-.36-1.14-.21,0-.41.11-.62.15-.11-.38-.22-.78-.36-1.14-.21,0-.41.11-.62.15-.11-.38-.22-.78-.36-1.14-.21,0-.41.11-.62.15-.11-.38-.22-.77-.36-1.14-.21,0-.41.11-.62.15-.11-.38-.22-.78-.36-1.14-.21,0-.41.11-.62.15-.11-.38-.22-.78-.36-1.14-.21,0-.41.11-.62.15-.11-.38-.22-.77-.36-1.14-.21,0-.41.11-.62.15-.11-.38-.22-.77-.36-1.14-.21,0-.41.11-.62.15-.11-.38-.22-.78-.36-1.14-5,.88-10.28,4.77-13.65,10.69s-4,12.36-2.13,17c.21,0,.41-.11.62-.15.11.38.22.78.36,1.14.21,0,.41-.11.62-.15.11.38.22.77.36,1.13a10.05,10.05,0,0,1-5.63-.31,27.78,27.78,0,0,0-9.51-1.66c-14.32,0-25.93,10.71-25.93,23.92,0,10.13,6.83,31.05,16.47,40.27.32.34.65.67,1,1s.65.67,1,1,.65.67,1,1,.65.67,1,1,.65.67,1,1,.65.67,1,1,.65.67,1,1,.65.67,1,1,.65.67,1,1,.65.67,1,1,.65.67,1,1,.65.67,1,1,.65.67,1,1,.65.67,1,1,.65.67,1,1,.65.67,1,1,.65.67,1,1,.65.67,1,1,.65.67,1,1,.65.67,1,1,.65.67,1,1,.65.67,1,1,.65.67,1,1,.65.67,1,1,.65.67,1,1,.65.67,1,1l.53.54a69.85,69.85,0,0,0,64.74-64.72h0C214.12,149.73,214,149.34,213.87,149Zm-65.69-22.54.5-.12v0C148.52,126.38,148.35,126.4,148.18,126.44Z"/><path class="cls-7" d="M172,145.52a16.27,16.27,0,0,1,6.33-12.74,26.83,26.83,0,0,0-19.63-8.29,27.78,27.78,0,0,0-9.51,1.66,10.16,10.16,0,0,1-6.92,0,27.78,27.78,0,0,0-9.51-1.66c-14.32,0-25.93,10.71-25.93,23.92s11.61,44.81,25.93,44.81a27.78,27.78,0,0,0,9.51-1.66,10.16,10.16,0,0,1,6.92,0,27.78,27.78,0,0,0,9.51,1.66c10.78,0,20-17.92,23.94-32.41C176.34,158.16,172,152.31,172,145.52Z"/><path class="cls-7" d="M161.72,96.78c-5,.88-10.28,4.77-13.65,10.69s-4,12.36-2.13,17c5-.88,10.28-4.77,13.65-10.69S163.58,101.44,161.72,96.78Z"/></g><g id="Layer_6" data-name="Layer 6"><path class="cls-8" d="M250.8,240.8c-4.08-3.23-7.77-7.12-9-12.34-1.56-6.71,1.75-12.72,7.89-14.22,5.66-1.38,11.81,2.62,13.41,9.47,1.22,5.24-.52,10.13-2.74,14.68l6.26,4.33c3.07-6.31,5.46-13.24,3.74-20.64-2.81-12-13.16-18.79-22.68-16.47-10.36,2.52-15.92,12.56-13.24,24.06,1.94,8.32,7.17,13.56,12.95,18l2-4Z"/><path class="cls-9" d="M259.46,256.14h0l1.49-2.72,2.17-3.95-6.21-4.29h0l-1.67,3-2,3.64h0Z"/><polygon class="cls-10" points="253.25 251.87 253.25 251.87 253.25 251.87 253.25 251.87"/><path class="cls-11" d="M281.91,271.66c-1.93-8.3-7.15-13.54-12.9-17.94l-3.65,6.65c4.16,3.26,8,7.2,9.2,12.5,1.56,6.71-1.75,12.72-7.89,14.22-5.66,1.38-11.81-2.62-13.41-9.47-1.23-5.28.55-10.2,2.79-14.79l-6.27-4.31c-3.09,6.33-5.51,13.29-3.78,20.72,2.81,12,13.16,18.79,22.68,16.47C279,293.19,284.62,283.3,281.91,271.66Z"/></g><g id="Layer_3" data-name="Layer 3"><ellipse class="cls-12" cx="144.72" cy="355" rx="69.72" ry="70"/><path class="cls-13" d="M212.19,340.72c-.15-.49-34.72-34.95-35.57-34.55l-16.69,7.89a3.06,3.06,0,0,0-1.34,1.24l.35.2a3.11,3.11,0,0,0-.38.48l-3.37,5.85-5.33,9.26L144,341.26l-16.42-1.5a1.52,1.52,0,0,0-1.44.76l-2,3.44h0l-.46.79,0,0-.39.68.12.07a2.74,2.74,0,0,0,1.29,3h0l0,0-2.82,4.91h0L109.24,375.5a.82.82,0,0,0,.3,1.12l.47.27.12,0a.81.81,0,0,0,.39.68l.47.27.12,0c0,.27,11,11.41,11.23,11.56l.21.12c-1.23,7.11-1,13.58.94,14.34h.09c.24.5,19.26,19.64,19.62,19.78h.09a1.85,1.85,0,0,0,.9,1h.09a2.91,2.91,0,0,0,.17.27h.27a69.86,69.86,0,0,0,69.72-70,70.59,70.59,0,0,0-1.27-13.31A1.49,1.49,0,0,0,212.19,340.72Z"/><polygon class="cls-14" points="143.58 349.27 143.56 349.27 142.55 348.27 140.53 346.24 140.27 344.45 137.87 346.94 134.47 346.35 136.07 349.42 134.47 352.48 136.16 352.19 145.58 363.64 148.93 363.06 149.37 363.51 149.37 363.48 150.38 364.52 150.38 364.5 151.39 365.54 151.88 362.11 154.98 360.57 143.58 349.27"/><polygon class="cls-3" points="149.42 355 146.33 356.53 145.83 359.96 143.42 357.48 140.02 358.06 141.63 355 140.02 351.93 143.42 352.51 145.83 350.03 146.33 353.46 149.42 355"/><path class="cls-15" d="M144.63,341.25l-17-1.55a1.52,1.52,0,0,0-1.44.76l-2.87,4.94,14.1,8.28Z"/><path class="cls-15" d="M164.58,352.81l9.77,14.08a1.53,1.53,0,0,1,.05,1.63l-2.85,5-14.15-8.2Z"/><path class="cls-16" d="M136.35,355.18l-11.64-6.75a2.75,2.75,0,0,1-1-3.75l.46-.79,14,8.12Z"/><path class="cls-17" d="M123.5,403.87c1,.39,7.91-4.38,8.51-5,9.46-9.61,16-15.82,15.26-20.66s-9.72-9.36-14.2-8.31C123.4,372.16,119.15,402.2,123.5,403.87Z"/><path class="cls-18" d="M128.82,393.57c.7.26,5.49-3,5.91-3.42,6.59-6.56,11.15-10.79,10.65-14.07s-6.68-6.29-9.79-5.56C128.9,372.09,125.83,392.46,128.82,393.57Z"/><path class="cls-19" d="M152.19,367.31c-.67,1.16-4.35.28-8.22-2s-6.47-5-5.8-6.16,4.35-.28,8.22,2S152.86,366.15,152.19,367.31Z"/><path class="cls-20" d="M148.78,378.32c-1.23,2.14-6.34,1.49-11.42-1.46s-8.2-7.07-7-9.2,6.34-1.49,11.42,1.46S150,376.18,148.78,378.32Z"/><polyline class="cls-21" points="138.18 359.19 130.39 367.66 148.78 378.32 152.19 367.31"/><path class="cls-22" d="M179.73,326.18a3.13,3.13,0,0,1-.41,1.78l-23.63,41.1a1.75,1.75,0,0,1-2.42.35l-17.43-10.1a1.77,1.77,0,0,1-.91-2.28l23.63-41.1a3.11,3.11,0,0,1,1.33-1.25l16.46-8c.94-.46,3.35,19.16,3.35,19.16Z"/><path class="cls-23" d="M170.63,343.07l-20.76-12,8.35-14.53a2.78,2.78,0,0,1,3.81-1L178,324.72a2.81,2.81,0,0,1,1,3.83Z"/><path class="cls-24" d="M158.59,315.24a3.06,3.06,0,0,1,1.34-1.24l16.69-7.89c.95-.45,3.64,19.33,3.64,19.33l0,.37a3.08,3.08,0,0,1-.4,1.79"/><path class="cls-16" d="M168.54,373.23,157.1,366.6l1.82-3.17,13.81,8-.46.79A2.72,2.72,0,0,1,168.54,373.23Z"/><path class="cls-25" d="M168,331.85a4.22,4.22,0,1,1-1.47-5.91A4.28,4.28,0,0,1,168,331.85Z"/><polygon class="cls-26" points="160.03 330.75 160.77 332.08 168.16 327.64 167.42 326.31 160.03 330.75"/><polygon class="cls-26" points="161.1 333 161.38 333.5 168.78 329.07 168.5 328.57 161.1 333"/><path class="cls-27" d="M168.46,332.06a4.63,4.63,0,1,1-1.61-6.48A4.69,4.69,0,0,1,168.46,332.06Z"/><path class="cls-28" d="M142.28,356.5l-.73-.42a1.27,1.27,0,0,1-.46-1.73l5-8.7a1.26,1.26,0,0,1,1.72-.46l.73.42a1.27,1.27,0,0,1,.46,1.73l-5,8.7A1.26,1.26,0,0,1,142.28,356.5Z"/><path class="cls-28" d="M147.8,359.7l-.73-.42a1.27,1.27,0,0,1-.46-1.73l5-8.7a1.26,1.26,0,0,1,1.72-.46l.73.42a1.27,1.27,0,0,1,.46,1.73l-5,8.7A1.26,1.26,0,0,1,147.8,359.7Z"/><path class="cls-28" d="M153,362.72l-.73-.42a1.27,1.27,0,0,1-.46-1.73l5-8.7a1.26,1.26,0,0,1,1.72-.46l.73.42a1.27,1.27,0,0,1,.46,1.73l-5,8.7A1.26,1.26,0,0,1,153,362.72Z"/><path class="cls-29" d="M152.59,400.65l-.47-.27a.82.82,0,0,1-.3-1.12L164.65,377a.82.82,0,0,1,1.12-.3l.47.27a.82.82,0,0,1,.3,1.12l-12.83,22.31A.82.82,0,0,1,152.59,400.65Z"/><path class="cls-30" d="M110,376.83l-.47-.27a.82.82,0,0,1-.3-1.12l12.83-22.31a.82.82,0,0,1,1.12-.3l.47.27a.82.82,0,0,1,.3,1.12l-12.83,22.31A.82.82,0,0,1,110,376.83Z"/><path class="cls-31" d="M152.47,384.77l-.47-.27a.82.82,0,0,1-.3-1.12l6.64-11.55a.82.82,0,0,1,1.12-.3l.47.27a.82.82,0,0,1,.3,1.12l-6.64,11.55A.82.82,0,0,1,152.47,384.77Z"/><path class="cls-32" d="M123.46,367.95l-.47-.27a.82.82,0,0,1-.3-1.12L129.33,355a.82.82,0,0,1,1.12-.3l.47.27a.82.82,0,0,1,.3,1.12l-6.64,11.55A.82.82,0,0,1,123.46,367.95Z"/><path class="cls-33" d="M158.29,374.65l-.47-.27a.82.82,0,0,1-.3-1.12l5.54-9.63a.82.82,0,0,1,1.12-.3l.47.27a.82.82,0,0,1,.3,1.12l-5.54,9.63A.82.82,0,0,1,158.29,374.65Z"/><path class="cls-33" d="M129.08,358.17l-.47-.27a.82.82,0,0,1-.3-1.12l5.54-9.63a.82.82,0,0,1,1.12-.3l.47.27a.82.82,0,0,1,.3,1.12l-5.54,9.63A.82.82,0,0,1,129.08,358.17Z"/><path class="cls-33" d="M165.23,378.68l-.47-.27a.82.82,0,0,1-.3-1.12l5.54-9.63a.82.82,0,0,1,1.12-.3l.47.27a.82.82,0,0,1,.3,1.12l-5.54,9.63A.82.82,0,0,1,165.23,378.68Z"/><path class="cls-33" d="M122.69,354.78l-.47-.27a.82.82,0,0,1-.3-1.12l5.54-9.63a.82.82,0,0,1,1.12-.3l.47.27a.82.82,0,0,1,.3,1.12l-5.54,9.63A.82.82,0,0,1,122.69,354.78Z"/><path class="cls-28" d="M172.68,369a1.92,1.92,0,1,1-.67-2.69A1.95,1.95,0,0,1,172.68,369Z"/><path class="cls-28" d="M165.74,365a1.92,1.92,0,1,1-.67-2.69A1.95,1.95,0,0,1,165.74,365Z"/><path class="cls-28" d="M136.72,348.17a1.92,1.92,0,1,1-.67-2.69A1.95,1.95,0,0,1,136.72,348.17Z"/><path class="cls-28" d="M130.47,344.55a1.92,1.92,0,1,1-.67-2.69A1.95,1.95,0,0,1,130.47,344.55Z"/><polygon class="cls-34" points="105.4 362.16 105.39 362.15 104.38 361.15 102.36 359.13 102.1 357.34 99.69 359.82 96.29 359.23 97.9 362.3 96.29 365.37 97.98 365.07 107.4 376.52 110.76 375.94 111.19 376.39 111.19 376.37 112.2 377.4 112.2 377.38 113.21 378.42 113.71 374.99 116.8 373.46 105.4 362.16"/><polygon class="cls-3" points="105.69 362.25 102.6 363.78 102.1 367.21 99.69 364.73 96.29 365.32 97.9 362.25 96.29 359.18 99.69 359.77 102.1 357.29 102.6 360.72 105.69 362.25"/><polygon class="cls-35" points="132.82 308.13 132.8 308.12 131.8 307.13 129.78 305.1 129.52 303.31 127.11 305.79 123.71 305.2 125.31 308.27 123.71 311.34 125.4 311.05 134.82 322.5 138.18 321.92 138.61 322.36 138.61 322.34 139.62 323.38 139.62 323.35 140.63 324.39 141.13 320.96 144.22 319.43 132.82 308.13"/><polygon class="cls-3" points="133.15 308.27 130.05 309.8 129.56 313.23 127.15 310.75 123.75 311.34 125.36 308.27 123.75 305.2 127.15 305.79 129.56 303.31 130.05 306.74 133.15 308.27"/></g><g id="Layer_4" data-name="Layer 4"><ellipse class="cls-15" cx="355.28" cy="355" rx="69.72" ry="70"/><path class="cls-36" d="M423.91,367.25l0,0-.17-.19c-.26-.29-29.22-29.33-29.49-29.6l-.17-.19c-.26-.29-.54-.54-.82-.8l-.17-.19c-.26-.29-.54-.54-.82-.8l-.17-.19c-.26-.29-.54-.54-.82-.8l-.17-.19c-.26-.29-.54-.54-.82-.8l-.17-.19c-.26-.29-.54-.54-.82-.8l-.17-.19c-.26-.29-.54-.54-.82-.8l-.17-.19c-.26-.29-.54-.54-.82-.8l-.17-.19c-.26-.29-.54-.54-.82-.81l-.17-.19c-.26-.29-.54-.54-.82-.8l-.17-.19c-.26-.29-.54-.54-.82-.8l-.17-.19c-.26-.29-.54-.54-.82-.8l-.17-.19a18.8,18.8,0,0,0-27.88-.28,18.8,18.8,0,0,0-27.88.28l-1.17,1.28A23.2,23.2,0,0,0,326,358c.09.11.17.22.27.32L355.28,390l0,0,.95,1,0,0,.95,1,0,0,.95,1,0,0L383,417.8l0,0,.95,1,0,0,0,0A70,70,0,0,0,423.91,367.25Z"/><path class="cls-37" d="M355.28,326a18.8,18.8,0,0,0-27.88.28l-1.17,1.28A23.2,23.2,0,0,0,326,358l29-31.67Z"/><path class="cls-37" d="M384.6,358a23.2,23.2,0,0,0-.27-30.39l-1.17-1.28a18.8,18.8,0,0,0-27.88-.28l.28.28Z"/><path class="cls-37" d="M384.6,358l-29-31.67-.28-.28-.28.28L326,358c.09.11.17.22.27.32L355.28,390l29.06-31.69C384.43,358.21,384.51,358.09,384.6,358Z"/></g><g id="Layer_5" data-name="Layer 5"><path class="cls-38" d="M255.65,254.28c-5.85-5.18-29.89,4.29-32.76,23-2,13,7,25.44,14.49,24.31C249.6,299.71,263.16,260.94,255.65,254.28Z"/><path class="cls-39" d="M256.78,253.88c-1.65-7.65-26.6-14.35-39.94-1-9.27,9.26-9.39,24.65-2.69,28.2C225.07,286.86,258.9,263.71,256.78,253.88Z"/><path class="cls-40" d="M257.13,256.32c4.16-9.74-16.63-38.93-40.72-36.23C199.67,222,187.74,238.53,192,248.27,198.88,264.15,251.78,268.84,257.13,256.32Z"/><path class="cls-38" d="M261.61,254.06c2.9-7.27,28.61-9.68,39.55,5.71,7.6,10.69,5.15,25.88-2,28.26C287.37,291.9,257.88,263.4,261.61,254.06Z"/><path class="cls-39" d="M260.41,254.21c-2-7.58,17.32-24.83,35.21-19,12.43,4.08,19.43,17.77,15,24C303.51,269.33,262.93,264,260.41,254.21Z"/><path class="cls-40" d="M261.2,256.55c-8.08-6.82-2.6-42.28,20.13-50.75,15.79-5.89,33.86,3.51,34.45,14.12C316.73,237.22,271.58,265.31,261.2,256.55Z"/></g></svg>