<svg xmlns="http://www.w3.org/2000/svg" xmlns:xlink="http://www.w3.org/1999/xlink" viewBox="0 0 512 512"><defs><style>.cls-1,.cls-3,.cls-6{fill:#fff;}.cls-1{stroke:#000;stroke-width:7px;}.cls-1,.cls-10,.cls-11,.cls-15,.cls-21,.cls-24{stroke-miterlimit:10;}.cls-2{fill:#455a64;}.cls-4{fill:#5c6bc0;}.cls-5{fill:#37474f;}.cls-17,.cls-5,.cls-6{opacity:0.1;}.cls-11,.cls-21,.cls-7{fill:none;}.cls-8{fill:url(#linear-gradient);}.cls-9{fill:#fb8c00;}.cls-10{fill:#ffd600;stroke:#ffd600;}.cls-11,.cls-15{stroke:#ffa000;}.cls-11{stroke-width:3px;}.cls-12{fill:#9c27b0;}.cls-13{fill:url(#linear-gradient-2);}.cls-14{fill:#ffc107;}.cls-15{fill:#ff6d00;}.cls-15,.cls-21,.cls-24{stroke-width:2px;}.cls-16{fill:#4fc3f7;}.cls-17{fill:#4b595e;}.cls-18{fill:url(#linear-gradient-3);}.cls-19,.cls-24{fill:#9ccc65;}.cls-20{fill:url(#linear-gradient-4);}.cls-21{stroke:#f44336;}.cls-22{fill:#009688;}.cls-23{fill:#f44336;}.cls-24{stroke:#d50000;}</style><linearGradient id="linear-gradient" x1="290.55" y1="309.38" x2="290.55" y2="268.08" gradientUnits="userSpaceOnUse"><stop offset="0" stop-opacity="0.2"/><stop offset="1" stop-opacity="0"/></linearGradient><linearGradient id="linear-gradient-2" x1="203.22" y1="353.91" x2="253.87" y2="353.91" xlink:href="#linear-gradient"/><linearGradient id="linear-gradient-3" x1="270.18" y1="355.1" x2="321.3" y2="355.1" xlink:href="#linear-gradient"/><linearGradient id="linear-gradient-4" x1="204.81" y1="284.76" x2="249.85" y2="284.76" xlink:href="#linear-gradient"/></defs><title>Mobile Development</title><g id="mobile"><rect class="cls-1" x="168.82" y="95.92" width="162.36" height="310.5" rx="10" ry="10"/><path d="M211,95.92h73.26a0,0,0,0,1,0,0v9.14a3,3,0,0,1-3,3H214a3,3,0,0,1-3-3V95.92A0,0,0,0,1,211,95.92Z"/><rect class="cls-2" x="231.33" y="95.92" width="32.6" height="2.87" rx="0.5" ry="0.5"/><g id="Camera"><ellipse class="cls-2" cx="274.43" cy="98.21" rx="4.66" ry="4.63"/><ellipse cx="274.43" cy="98.21" rx="2.33" ry="2.32"/><ellipse class="cls-3" cx="273.42" cy="97.27" rx="0.78" ry="0.77"/></g></g><g id="Layer_5" data-name="Layer 5"><ellipse class="cls-4" cx="284.27" cy="282.63" rx="25.32" ry="26.98"/><path class="cls-5" d="M284.27,308.25c-13.77,0-25-11.72-25.29-26.3,0,.23,0,.45,0,.67,0,14.9,11.34,27,25.32,27s25.32-12.08,25.32-27c0-.23,0-.45,0-.67C309.22,296.53,298,308.25,284.27,308.25Z"/><path class="cls-6" d="M284.27,257c13.77,0,25,11.72,25.29,26.3,0-.23,0-.45,0-.67,0-14.9-11.34-27-25.32-27s-25.32,12.08-25.32,27c0,.23,0,.45,0,.67C259.32,268.72,270.49,257,284.27,257Z"/><path class="cls-7" d="M288.48,309.16l-1.24.21a.17.17,0,0,1-.16-.25l-.74-.71c-.13,0-12.32-14.66-12.32-14.66l-1.24.21a.17.17,0,0,1-.16-.25l3.79-7,1.08-2-.07-.06a2.33,2.33,0,0,1-.6-2.47,9,9,0,0,1-.83-2.05s0-.11-.06-.16a2.27,2.27,0,0,1-1.17-2.18,2.3,2.3,0,0,1,1.13-2.16,9,9,0,0,1,.89-2.36,2.39,2.39,0,0,1,.65-2.35,2.09,2.09,0,0,1,2.16-.71,7.89,7.89,0,0,1,2.28-1,2.34,2.34,0,0,1,4,0,7.89,7.89,0,0,1,2.28,1,2.09,2.09,0,0,1,2.16.71,2.92,2.92,0,0,1,.39.53,2.8,2.8,0,0,1,.51.43,2.92,2.92,0,0,1,.39.53,2.8,2.8,0,0,1,.51.43l16.28,17.34c.05.06.09.12.13.18a28.58,28.58,0,0,0,1.07-7.75c0-14.9-11.34-27-25.32-27s-25.32,12.08-25.32,27,11.34,27,25.32,27a23.86,23.86,0,0,0,4.2-.4Z"/><path class="cls-8" d="M292.1,272.85a2.8,2.8,0,0,0-.51-.43,2.92,2.92,0,0,0-.39-.53,2.8,2.8,0,0,0-.51-.43,2.92,2.92,0,0,0-.39-.53,2.09,2.09,0,0,0-2.16-.71,7.89,7.89,0,0,0-2.28-1,2.34,2.34,0,0,0-4,0,7.89,7.89,0,0,0-2.28,1,2.09,2.09,0,0,0-2.16.71,2.39,2.39,0,0,0-.65,2.35,9,9,0,0,0-.89,2.36,2.3,2.3,0,0,0-1.13,2.16,2.27,2.27,0,0,0,1.17,2.18c0,.05,0,.11.06.16a9,9,0,0,0,.83,2.05,2.33,2.33,0,0,0,.6,2.47l.07.06-1.08,2-3.79,7a.17.17,0,0,0,.16.25l1.24-.21s12.19,14.69,12.32,14.66l.74.71a.17.17,0,0,0,.16.25l1.24-.21,0,0c9.57-1.7,17.32-9.1,20.05-18.83,0-.06-.08-.13-.13-.18Z"/><path class="cls-9" d="M277.81,297.06l-1.34-3.73-3.7.63a.17.17,0,0,1-.16-.25l6.17-11.39,5.49,3.38-6.17,11.39A.15.15,0,0,1,277.81,297.06Z"/><path class="cls-9" d="M295.76,294l-3.7-.63-1.34,3.73a.15.15,0,0,1-.29,0l-6.17-11.39,5.49-3.38,6.17,11.39A.17.17,0,0,1,295.76,294Z"/><polygon class="cls-5" points="284.27 285.7 287.37 291.43 292.86 288.05 289.75 282.32 284.27 285.7"/><polygon class="cls-5" points="278.78 282.32 275.67 288.05 281.16 291.43 284.27 285.7 278.78 282.32"/><path class="cls-10" d="M293,277.79a2.3,2.3,0,0,0-1.13-2.16,9,9,0,0,0-.89-2.36,2.39,2.39,0,0,0-.65-2.35,2.09,2.09,0,0,0-2.16-.71,7.89,7.89,0,0,0-2.28-1,2.34,2.34,0,0,0-4,0,7.89,7.89,0,0,0-2.28,1,2.09,2.09,0,0,0-2.16.71,2.39,2.39,0,0,0-.65,2.35,9,9,0,0,0-.89,2.36,2.3,2.3,0,0,0-1.13,2.16,2.27,2.27,0,0,0,1.19,2.19,9,9,0,0,0,.88,2.2,2.33,2.33,0,0,0,.6,2.47,2,2,0,0,0,2.36.62,7.88,7.88,0,0,0,2,.87,2.29,2.29,0,0,0,4.17,0,7.88,7.88,0,0,0,2-.87,2,2,0,0,0,2.36-.62,2.33,2.33,0,0,0,.6-2.47,9,9,0,0,0,.88-2.2A2.27,2.27,0,0,0,293,277.79Z"/><ellipse class="cls-11" cx="283.85" cy="277.79" rx="4.26" ry="4.54"/></g><g id="Settings"><ellipse class="cls-12" cx="215.88" cy="347.65" rx="25.32" ry="26.98"/><path class="cls-5" d="M215.88,373.28c-13.77,0-25-11.72-25.29-26.3,0,.23,0,.45,0,.67,0,14.9,11.34,27,25.32,27s25.32-12.08,25.32-27c0-.23,0-.45,0-.67C240.84,361.56,229.66,373.28,215.88,373.28Z"/><path class="cls-6" d="M215.88,322c13.77,0,25,11.72,25.29,26.3,0-.23,0-.45,0-.67,0-14.9-11.34-27-25.32-27s-25.32,12.08-25.32,27c0,.23,0,.45,0,.67C190.93,333.74,202.11,322,215.88,322Z"/><path class="cls-7" d="M222.36,373.56h0l0,0-.18-.12.07-.08c-.08-.13-12.35-13.15-12.53-13.28h0l0,0-.18-.12.07-.08-.22-.39-.55-.36h0l0,0-.18-.12.07-.08c-.19-.32-3.06-3.46-3.26-3.88l-.23.25a14.19,14.19,0,0,1-1.95-5.15h1a2.5,2.5,0,0,0,2.41-2.32s-2.32-2.56-2.24-2.87l-.17,0h-1a14.16,14.16,0,0,1,2-5l.64.68a2.34,2.34,0,0,0,3.45,0h0a2.74,2.74,0,0,0,0-3.68l-.62-.66a12.36,12.36,0,0,1,4.69-2.05v.91a2.69,2.69,0,0,0,0,.29c.29-.08,2.69,2.29,2.69,2.29a2.55,2.55,0,0,0,2.16-2.57v-.91a12.36,12.36,0,0,1,4.69,2.05l-.23.25c.39.22,3.34,3.27,3.64,3.48l.06-.07.1.17,0,0,0,0c.11.19.22.38.33.57s12.92,13.65,13,13.73l.06-.07.1.17,0,0,0,0,.11.2a28.58,28.58,0,0,0,.91-7.08c0-14.9-11.34-27-25.32-27s-25.32,12.08-25.32,27,11.34,27,25.32,27a23.83,23.83,0,0,0,6.64-1Z"/><path class="cls-13" d="M240.2,354.52l0,0-.1-.17-.06.07c-.13-.09-12.92-13.65-13-13.73s-.21-.38-.33-.57l0,0,0,0-.1-.17-.06.07c-.3-.21-3.25-3.26-3.64-3.48l.23-.25a12.36,12.36,0,0,0-4.69-2.05v.91a2.55,2.55,0,0,1-2.16,2.57s-2.4-2.37-2.69-2.29a2.69,2.69,0,0,1,0-.29v-.91a12.36,12.36,0,0,0-4.69,2.05l.62.66a2.74,2.74,0,0,1,0,3.68h0a2.34,2.34,0,0,1-3.45,0l-.64-.68a14.16,14.16,0,0,0-2,5h1l.17,0c-.08.31,2.24,2.87,2.24,2.87a2.5,2.5,0,0,1-2.41,2.32h-1a14.19,14.19,0,0,0,1.95,5.15l.23-.25c.21.42,3.07,3.56,3.26,3.88l-.07.08.18.12,0,0h0l.55.36.22.39-.07.08.18.12,0,0h0c.18.13,12.45,13.15,12.53,13.28l-.07.08.18.12,0,0h0l.16.1a26.21,26.21,0,0,0,17.77-18.93l-.11-.2Z"/><path class="cls-14" d="M227.54,344.9h1a14.16,14.16,0,0,0-2-5l-.64.68a2.34,2.34,0,0,1-3.45,0h0a2.74,2.74,0,0,1,0-3.68l.62-.66a12.36,12.36,0,0,0-4.69-2.05v.91a2.44,2.44,0,1,1-4.88,0v-.91a12.36,12.36,0,0,0-4.69,2.05l.62.66a2.74,2.74,0,0,1,0,3.68h0a2.34,2.34,0,0,1-3.45,0l-.64-.68a14.16,14.16,0,0,0-2,5h1a2.61,2.61,0,0,1,0,5.21h-1a14.19,14.19,0,0,0,1.95,5.15l.75-.8a2.34,2.34,0,0,1,3.45,0h0a2.74,2.74,0,0,1,0,3.68l-.78.83a12.38,12.38,0,0,0,4.85,2.17v-1.2a2.44,2.44,0,1,1,4.88,0v1.2a12.38,12.38,0,0,0,4.85-2.17l-.78-.83a2.74,2.74,0,0,1,0-3.68h0a2.34,2.34,0,0,1,3.45,0l.75.8a14.19,14.19,0,0,0,1.95-5.15h-1a2.61,2.61,0,0,1,0-5.21Z"/><ellipse class="cls-15" cx="215.88" cy="347.65" rx="4.22" ry="4.5"/></g><g id="Cloud"><ellipse class="cls-16" cx="284.27" cy="346.47" rx="25.32" ry="26.98"/><path class="cls-17" d="M284.27,372.1c-13.77,0-25-11.72-25.29-26.3,0,.23,0,.45,0,.67,0,14.9,11.34,27,25.32,27s25.32-12.08,25.32-27c0-.23,0-.45,0-.67C309.22,360.38,298,372.1,284.27,372.1Z"/><path class="cls-6" d="M284.27,320.84c13.77,0,25,11.72,25.29,26.3,0-.23,0-.45,0-.67,0-14.9-11.34-27-25.32-27s-25.32,12.08-25.32,27c0,.23,0,.45,0,.67C259.32,332.56,270.49,320.84,284.27,320.84Z"/><path class="cls-7" d="M288.57,372.82c-.34-.26-16.52-17.5-16.77-17.87a4.21,4.21,0,0,1-1.62-3.34v-.84a4.22,4.22,0,0,1,1.36-3.11,4.61,4.61,0,0,1-.1-.81c0-3,2.87-5.44,6.41-5.44a7.37,7.37,0,0,1,2.21.35A7.25,7.25,0,0,1,287,337.2a7.45,7.45,0,0,1,5.9,2.81,7,7,0,0,1,.88.94c.32.29,13.86,14.71,14.12,15l.05.05a28.41,28.41,0,0,0,1.67-9.58c0-14.9-11.34-27-25.32-27s-25.32,12.08-25.32,27,11.34,27,25.32,27a23.88,23.88,0,0,0,4.45-.44Z"/><path class="cls-18" d="M293.74,340.95a7,7,0,0,0-.88-.94,7.45,7.45,0,0,0-5.9-2.81,7.25,7.25,0,0,0-6.89,4.57,7.37,7.37,0,0,0-2.21-.35c-3.54,0-6.41,2.43-6.41,5.44a4.61,4.61,0,0,0,.1.81,4.22,4.22,0,0,0-1.36,3.11v.84A4.21,4.21,0,0,0,271.8,355c.25.36,16.43,17.6,16.77,17.87l.15.18a25.79,25.79,0,0,0,19.2-17l-.05-.05C307.6,355.65,294.07,341.23,293.74,340.95Z"/><path class="cls-3" d="M294.47,346.64h-.85a6.3,6.3,0,0,0,.61-2.7A7,7,0,0,0,287,337.2a7.25,7.25,0,0,0-6.89,4.57,7.37,7.37,0,0,0-2.21-.35c-3.54,0-6.41,2.43-6.41,5.44a4.61,4.61,0,0,0,.1.81,4.22,4.22,0,0,0-1.36,3.11v.84a4,4,0,0,0,3.88,4.13h20.42a4,4,0,0,0,3.88-4.13v-.84A4,4,0,0,0,294.47,346.64Z"/></g><g id="Location"><ellipse class="cls-19" cx="215.57" cy="278.15" rx="25.32" ry="26.98"/><path class="cls-5" d="M215.57,303.77c-13.77,0-25-11.72-25.29-26.3,0,.23,0,.45,0,.67,0,14.9,11.34,27,25.32,27s25.32-12.08,25.32-27c0-.23,0-.45,0-.67C240.52,292.05,229.34,303.77,215.57,303.77Z"/><path class="cls-6" d="M215.57,252.52c13.77,0,25,11.72,25.29,26.3,0-.23,0-.45,0-.67,0-14.9-11.34-27-25.32-27s-25.32,12.08-25.32,27c0,.23,0,.45,0,.67C190.62,264.24,201.8,252.52,215.57,252.52Z"/><path class="cls-7" d="M218.57,304.34c-.42-.3-11.58-12.19-11.76-12.53a2.92,2.92,0,0,1-.9-1,2.17,2.17,0,0,1-1.09-1.65c0-1.76,3.43-3.24,8.08-3.66l-4-9.77h1.25a7.24,7.24,0,0,1-1.25-4.08,6.86,6.86,0,0,1,6.66-7,6.5,6.5,0,0,1,5.14,2.61,30989.18,30989.18,0,0,0,1.81,1.93,6.86,6.86,0,0,1,.9,1c.33.29,15.11,16,15.38,16.38a6.84,6.84,0,0,1,.6.64,28.44,28.44,0,0,0,1.49-9c0-14.9-11.34-27-25.32-27s-25.32,12.08-25.32,27,11.34,27,25.32,27a23.88,23.88,0,0,0,3.38-.27A2.28,2.28,0,0,1,218.57,304.34Z"/><path class="cls-20" d="M223.43,270.16a92959.76,92959.76,0,0,1-2.71-2.89,6.5,6.5,0,0,0-5.14-2.61,6.86,6.86,0,0,0-6.66,7,7.24,7.24,0,0,0,1.25,4.08h-1.25l4,9.77c-4.64.42-8.08,1.9-8.08,3.66a2.17,2.17,0,0,0,1.09,1.65,2.92,2.92,0,0,0,.9,1c.18.34,11.34,12.23,11.76,12.53a2.28,2.28,0,0,0,.38.51c9.51-1.35,17.33-8.32,20.46-17.67a6.84,6.84,0,0,0-.6-.64C238.54,286.19,223.76,270.45,223.43,270.16Z"/><ellipse class="cls-21" cx="215.57" cy="271.69" rx="6.66" ry="7.03"/><ellipse class="cls-22" cx="215.57" cy="289.2" rx="10.76" ry="3.78"/><path class="cls-23" d="M208.91,275.76,214,288.24a1.63,1.63,0,0,0,3.17,0l5.08-12.48Z"/><ellipse class="cls-24" cx="215.57" cy="271.64" rx="4.43" ry="4.72"/></g></svg>