<svg xmlns="http://www.w3.org/2000/svg" viewBox="0 0 512 512"><defs><style>.cls-1{fill:#ef5350;}.cls-2{fill:#37474f;opacity:0.1;}.cls-3{fill:silver;stroke:silver;stroke-width:2px;}.cls-3,.cls-4{stroke-miterlimit:10;}.cls-4{fill:#a9a9a9;stroke:#a9a9a9;stroke-width:10px;}</style></defs><title>Silver</title><g id="Silver"><path class="cls-1" d="M397.38,368.26,345.64,354,332.8,403.53a2.08,2.08,0,0,1-3.75.51L250,274.5l70.66-38.59,79.06,129.54A2,2,0,0,1,397.38,368.26Z"/><path class="cls-2" d="M323.87,244.45l-33,16.5-31.59,18.78a2.06,2.06,0,0,1-3.81.4l36.78,60.26a2.06,2.06,0,0,0,3.81-.4l11-52.47,53.55,17.2a1.94,1.94,0,0,0,2.27-2.92l-36.78-60.26A1.94,1.94,0,0,1,323.87,244.45Z"/><path class="cls-1" d="M167.2,403.53,154.36,354l-51.75,14.24a2,2,0,0,1-2.34-2.82L179.34,235.9,250,274.5,170.94,404A2.08,2.08,0,0,1,167.2,403.53Z"/><path class="cls-2" d="M239.67,284.69l-31.55-18.84-33-16.43a1.94,1.94,0,0,1-2.23-3L134,310.09a1.94,1.94,0,0,0,2.23,3L191,293.92l9.83,54.44c.34,1.86,2.8,2.07,3.86.33L243.53,285C242.47,286.75,240,286.54,239.67,284.69Z"/><path class="cls-3" d="M349.43,193.25c0-9.29-7.51-17.15-17.84-19.76a81,81,0,0,0-10.52-23.67c5.45-8.78,4.92-19.44-2.07-26s-18.37-7.11-27.69-1.86a91,91,0,0,0-24.77-9.64c-2.64-10-11-17.28-21-17.28s-18.34,7.3-21,17.28a91,91,0,0,0-24.77,9.64c-9.31-5.25-20.66-4.79-27.69,1.86s-7.51,17.26-2.07,26a81,81,0,0,0-10.52,23.67c-10.33,2.61-17.84,10.47-17.84,19.76s7.38,17,17.58,19.69a80.89,80.89,0,0,0,10.47,24.28c-5.1,8.68-4.46,19,2.38,25.51s17.66,7.07,26.8,2.33a90.92,90.92,0,0,0,26,10.23c2.94,9.43,11.07,16.21,20.67,16.21s17.73-6.79,20.67-16.21a90.92,90.92,0,0,0,26-10.23c9.14,4.73,20,4.1,26.8-2.33s7.48-16.83,2.38-25.51a80.89,80.89,0,0,0,10.47-24.28C342.05,210.27,349.43,202.47,349.43,193.25Z"/><ellipse class="cls-4" cx="245.57" cy="193.25" rx="44.68" ry="42.27"/></g></svg>