<svg xmlns="http://www.w3.org/2000/svg" viewBox="0 0 512 512"><defs><style>.cls-1,.cls-3{fill:#b0bec5;}.cls-15,.cls-2{fill:#37474f;}.cls-2{opacity:0.2;}.cls-3{stroke:#b0bec5;stroke-width:2px;}.cls-3,.cls-4,.cls-7,.cls-8,.cls-9{stroke-miterlimit:10;}.cls-10,.cls-14,.cls-4,.cls-8{fill:#fff;}.cls-4{stroke:#000;stroke-width:8px;}.cls-13,.cls-5,.cls-9{fill:#9e9e9e;}.cls-10,.cls-11,.cls-12,.cls-5,.cls-6,.cls-7,.cls-8,.cls-9{opacity:0.61;}.cls-6{fill:#fdd835;}.cls-7{fill:none;}.cls-7,.cls-8,.cls-9{stroke:#424242;}.cls-9{stroke-width:0.5px;}.cls-11,.cls-17{fill:#8bc34a;}.cls-12,.cls-16{fill:#f44336;}.cls-14{font-size:77.68px;font-family:MyriadPro-Regular, Myriad Pro;letter-spacing:0.05em;}</style></defs><title>Web Development</title><g id="Layer_2" data-name="Layer 2"><polygon class="cls-1" points="282.01 389.94 217.99 389.94 224.17 335.06 277.16 335.06 282.01 389.94"/><polyline class="cls-2" points="278.53 355.25 276.74 335.06 223.75 335.06 221.47 355.36"/><path class="cls-3" d="M87.5,284.3h325a0,0,0,0,1,0,0v43.34a12,12,0,0,1-12,12H99.5a12,12,0,0,1-12-12V284.3a0,0,0,0,1,0,0Z"/><path class="cls-4" d="M101.47,100H398.53a10,10,0,0,1,10,10V298.48a0,0,0,0,1,0,0H91.47a0,0,0,0,1,0,0V110A10,10,0,0,1,101.47,100Z"/><line class="cls-2" x1="221.47" y1="355.36" x2="278.53" y2="355.25"/><rect class="cls-1" x="199.66" y="389.94" width="100.68" height="10.06" rx="3.69" ry="3.69"/><rect x="223.51" y="316.08" width="52.99" height="8.23"/></g><g id="Layer_1" data-name="Layer 1"><rect class="cls-5" x="108.1" y="135.43" width="168.39" height="10.98"/><rect class="cls-6" x="108.1" y="254.41" width="168.39" height="8.03"/><rect class="cls-6" x="108.1" y="199.24" width="168.39" height="34.39"/><path class="cls-7" d="M114.1,122.45H270.49a6,6,0,0,1,6,6v133a1,1,0,0,1-1,1H109.1a1,1,0,0,1-1-1v-133a6,6,0,0,1,6-6Z"/><path class="cls-8" d="M113.1,122.45H271.49a5,5,0,0,1,5,5v8a0,0,0,0,1,0,0H108.1a0,0,0,0,1,0,0v-8A5,5,0,0,1,113.1,122.45Z"/><rect class="cls-9" x="177.22" y="188.83" width="33.56" height="0.68" rx="0.25" ry="0.25"/><rect class="cls-9" x="177.22" y="201.1" width="33.56" height="0.68" rx="0.25" ry="0.25"/><rect class="cls-9" x="177.22" y="192.42" width="33.56" height="0.68" rx="0.25" ry="0.25"/><rect class="cls-9" x="173.27" y="196.38" width="39.53" height="0.68" rx="0.25" ry="0.25"/><rect class="cls-9" x="182.98" y="185.25" width="22.04" height="0.68" rx="0.25" ry="0.25"/><rect class="cls-6" x="180.67" y="153.9" width="24.34" height="27.6" rx="3" ry="3"/><rect class="cls-9" x="181.71" y="242.48" width="21.17" height="0.68" rx="0.25" ry="0.25"/><rect class="cls-9" x="167.91" y="245.89" width="48.62" height="0.68" rx="0.25" ry="0.25"/><rect class="cls-9" x="173.87" y="249.98" width="39.47" height="0.68" rx="0.25" ry="0.25"/><rect class="cls-9" x="168.81" y="252.71" width="49.58" height="0.68" rx="0.25" ry="0.25"/><rect class="cls-9" x="186.27" y="234.99" width="13.16" height="0.68" rx="0.25" ry="0.25"/><rect class="cls-9" x="178.56" y="239.08" width="28.95" height="0.68" rx="0.25" ry="0.25"/><rect class="cls-10" x="121.13" y="205.01" width="23.03" height="23.85"/><rect class="cls-10" x="159.29" y="205.01" width="23.03" height="23.85"/><rect class="cls-10" x="200.08" y="205.01" width="23.03" height="23.85"/><rect class="cls-10" x="240.88" y="205.01" width="23.03" height="23.85"/><ellipse class="cls-11" cx="122.44" cy="128.94" rx="2.33" ry="2.41"/><ellipse class="cls-12" cx="115.87" cy="128.94" rx="2.33" ry="2.41"/><path class="cls-13" d="M287,122.45H390a5,5,0,0,1,5,5v134a1,1,0,0,1-1,1H283a1,1,0,0,1-1-1v-134A5,5,0,0,1,287,122.45Z"/><text class="cls-14" transform="translate(305.51 220.43) scale(0.97 1)">{ }</text><path class="cls-15" d="M284.14,122.45H392.88a2.12,2.12,0,0,1,2.12,2.12v6.84a0,0,0,0,1,0,0H282a0,0,0,0,1,0,0v-6.84A2.12,2.12,0,0,1,284.14,122.45Z"/><ellipse class="cls-16" cx="289.02" cy="126.93" rx="2.33" ry="2.41"/><ellipse class="cls-17" cx="296.58" cy="126.93" rx="2.33" ry="2.41"/></g></svg>