<svg xmlns="http://www.w3.org/2000/svg" viewBox="0 0 512 512"><defs><style>.cls-1,.cls-3{fill:#b0bec5;}.cls-2,.cls-24{fill:#37474f;}.cls-15,.cls-2{opacity:0.2;}.cls-3{stroke:#b0bec5;}.cls-21,.cls-23,.cls-3,.cls-4,.cls-7,.cls-8,.cls-9{stroke-miterlimit:10;}.cls-23,.cls-3{stroke-width:2px;}.cls-10,.cls-4,.cls-8{fill:#fff;}.cls-4{stroke:#000;stroke-width:8px;}.cls-5,.cls-9{fill:#9e9e9e;}.cls-10,.cls-11,.cls-12,.cls-5,.cls-6,.cls-7,.cls-8,.cls-9{opacity:0.61;}.cls-6{fill:#fdd835;}.cls-21,.cls-23,.cls-7{fill:none;}.cls-7,.cls-8,.cls-9{stroke:#424242;}.cls-9{stroke-width:0.5px;}.cls-11{fill:#8bc34a;}.cls-12,.cls-22{fill:#f44336;}.cls-13{fill:#ff5722;}.cls-14,.cls-15{fill:#424242;}.cls-16{fill:#ef5350;}.cls-17{fill:#d7ccc8;}.cls-18{fill:#29b6f6;}.cls-19{fill:#42a5f5;}.cls-20{fill:#eee;}.cls-21,.cls-23{stroke:#37474f;}.cls-25{fill:#d32f2f;}.cls-26{fill:#ffeb3b;}.cls-27{fill:#fbc02d;}</style></defs><title>web design</title><g id="Layer_1" data-name="Layer 1"><polygon class="cls-1" points="286.33 357.77 233.66 357.77 238.75 309.23 282.34 309.23 286.33 357.77"/><polyline class="cls-2" points="283.47 327.09 282 309.23 238.41 309.23 236.53 327.19"/><path class="cls-3" d="M126.33,264.32H393.67a0,0,0,0,1,0,0v36.95a12,12,0,0,1-12,12H138.33a12,12,0,0,1-12-12V264.32a0,0,0,0,1,0,0Z"/><path class="cls-4" d="M139.6,101.29H380.4a10,10,0,0,1,10,10V276.87a0,0,0,0,1,0,0H129.6a0,0,0,0,1,0,0V111.29A10,10,0,0,1,139.6,101.29Z"/><line class="cls-2" x1="236.53" y1="327.19" x2="283.47" y2="327.09"/><rect class="cls-1" x="218.59" y="357.77" width="82.82" height="8.9" rx="3.69" ry="3.69"/><rect x="238.2" y="292.44" width="43.59" height="7.28"/><rect class="cls-5" x="143.28" y="132.63" width="138.52" height="9.71"/><rect class="cls-6" x="143.28" y="237.88" width="138.52" height="7.1"/><rect class="cls-6" x="143.28" y="189.08" width="138.52" height="30.42"/><path class="cls-7" d="M149.28,121.15H275.79a6,6,0,0,1,6,6V244a1,1,0,0,1-1,1H144.28a1,1,0,0,1-1-1V127.15A6,6,0,0,1,149.28,121.15Z"/><path class="cls-8" d="M148.28,121.15H276.79a5,5,0,0,1,5,5v6.48a0,0,0,0,1,0,0H143.28a0,0,0,0,1,0,0v-6.48A5,5,0,0,1,148.28,121.15Z"/><rect class="cls-9" x="200.13" y="179.88" width="27.6" height="0.6" rx="0.25" ry="0.25"/><rect class="cls-9" x="200.13" y="190.73" width="27.6" height="0.6" rx="0.25" ry="0.25"/><rect class="cls-9" x="200.13" y="183.05" width="27.6" height="0.6" rx="0.25" ry="0.25"/><rect class="cls-9" x="196.88" y="186.55" width="32.52" height="0.6" rx="0.25" ry="0.25"/><rect class="cls-9" x="204.86" y="176.7" width="18.13" height="0.6" rx="0.25" ry="0.25"/><rect class="cls-6" x="202.97" y="148.98" width="20.03" height="24.41" rx="3" ry="3"/><rect class="cls-9" x="203.83" y="227.34" width="17.42" height="0.6" rx="0.25" ry="0.25"/><rect class="cls-9" x="192.47" y="230.35" width="40" height="0.6" rx="0.25" ry="0.25"/><rect class="cls-9" x="197.38" y="233.97" width="32.47" height="0.6" rx="0.25" ry="0.25"/><rect class="cls-9" x="193.22" y="236.38" width="40.79" height="0.6" rx="0.25" ry="0.25"/><rect class="cls-9" x="207.57" y="220.7" width="10.82" height="0.6" rx="0.25" ry="0.25"/><rect class="cls-9" x="201.23" y="224.32" width="23.81" height="0.6" rx="0.25" ry="0.25"/><rect class="cls-10" x="153.99" y="194.18" width="18.94" height="21.1"/><rect class="cls-10" x="185.38" y="194.18" width="18.94" height="21.1"/><rect class="cls-10" x="218.94" y="194.18" width="18.94" height="21.1"/><rect class="cls-10" x="252.49" y="194.18" width="18.94" height="21.1"/><ellipse class="cls-11" cx="155.07" cy="126.89" rx="1.91" ry="2.13"/><ellipse class="cls-12" cx="149.66" cy="126.89" rx="1.91" ry="2.13"/></g><g id="Layer_2" data-name="Layer 2"><path class="cls-13" d="M98.08,96.63H64.26a5.63,5.63,0,0,0-5.42,5.83v211.6a5.63,5.63,0,0,0,5.42,5.83H98.08a5.63,5.63,0,0,0,5.42-5.83V102.46A5.63,5.63,0,0,0,98.08,96.63ZM81.9,117.79a4.67,4.67,0,1,1,4.34-4.66A4.51,4.51,0,0,1,81.9,117.79Z"/><rect class="cls-14" x="90.36" y="308.13" width="13.13" height="1.78" rx="0.69" ry="0.69"/><rect class="cls-14" x="90.36" y="287.88" width="13.13" height="1.78" rx="0.69" ry="0.69"/><rect class="cls-14" x="90.36" y="265.39" width="13.13" height="1.78" rx="0.69" ry="0.69"/><rect class="cls-14" x="90.36" y="244.02" width="13.13" height="1.78" rx="0.69" ry="0.69"/><rect class="cls-14" x="90.36" y="221.02" width="13.13" height="1.78" rx="0.69" ry="0.69"/><rect class="cls-14" x="90.36" y="198.03" width="13.13" height="1.78" rx="0.69" ry="0.69"/><rect class="cls-14" x="90.36" y="175.03" width="13.13" height="1.78" rx="0.69" ry="0.69"/><rect class="cls-14" x="90.36" y="152.03" width="13.13" height="1.78" rx="0.69" ry="0.69"/><rect class="cls-14" x="90.36" y="129.03" width="13.13" height="1.78" rx="0.69" ry="0.69"/><path class="cls-15" d="M64.3,96.63h2a0,0,0,0,1,0,0V319.89a0,0,0,0,1,0,0H63.39a4.55,4.55,0,0,1-4.55-4.55V102.09a5.46,5.46,0,0,1,5.46-5.46Z"/></g><g id="Layer_3" data-name="Layer 3"><ellipse class="cls-16" cx="379.39" cy="396.26" rx="3.49" ry="11.09"/><path class="cls-16" d="M379.39,385.17H361.55c-2.44,0-4.41,5-4.41,11.09s2,11.09,4.41,11.09h17.84"/><path class="cls-17" d="M162.06,385.12c0,7.66-.63,14.47-.63,22.13-12.88-3.78-26.45-7.21-39.34-11C128.54,394.32,155.62,387.06,162.06,385.12Z"/><polygon points="136.99 392.18 136.99 400.3 122.09 396.26 136.99 392.18"/><path class="cls-18" d="M162.06,407.3c-3.56,0-6.45-5-6.45-11.09s2.89-11.09,6.45-11.09H366.5V407.4Z"/><path class="cls-19" d="M162.06,407.32c-3.54,0-5.92-4-5.92-6.83a6.82,6.82,0,0,0-.26-1.13c-.24-1.49-.67-2.39-.26-2.86.08-.1-.15-.25,0-.3s-.44,0,0,0c203.58,0,210.89-.69,210.89-.69.11,1.57-.09,2.83,0,4,.57,7.83,0,7.87,0,7.87Z"/><rect class="cls-20" x="343.23" y="390.34" width="22.57" height="11.84" transform="translate(750.77 41.75) rotate(90)"/><rect class="cls-1" x="344.46" y="395.02" width="22.57" height="2.48" transform="translate(752.01 40.51) rotate(90)"/></g><g id="Layer_5" data-name="Layer 5"><line class="cls-21" x1="343.85" y1="144.05" x2="317.52" y2="173.19"/><polygon class="cls-18" points="321.63 132.66 321.63 168.08 354.57 168.08 354.57 161.11 329.07 161.11 329.07 132.66 321.63 132.66"/><polygon class="cls-22" points="350.46 172.51 350.46 137.09 317.51 137.09 317.51 144.06 343.02 144.06 343.02 172.51 350.46 172.51"/></g><g id="Layer_6" data-name="Layer 6"><rect class="cls-23" x="323.49" y="205.14" width="26.5" height="21.47" rx="3" ry="3"/><rect class="cls-24" x="335.58" y="188.68" width="2.33" height="17.6" rx="0.71" ry="0.71" transform="matrix(0, -1, 1, 0, 139.26, 534.22)"/><rect class="cls-24" x="335.66" y="179.93" width="2.17" height="23.31" rx="0.75" ry="0.75"/><path class="cls-24" d="M339.64,188.75l-.51.2a.9.9,0,0,0-.49,1.12l4.26,12.59a.8.8,0,0,0,1,.52l.51-.2a.9.9,0,0,0,.49-1.12l-4.26-12.59A.8.8,0,0,0,339.64,188.75Z"/><path class="cls-24" d="M334.23,189l-.51-.2a.8.8,0,0,0-1,.52l-4.26,12.59a.9.9,0,0,0,.49,1.12l.51.2a.8.8,0,0,0,1-.52l4.26-12.59A.9.9,0,0,0,334.23,189Z"/><rect class="cls-24" x="335.66" y="233.13" width="2.17" height="11.89" rx="0.75" ry="0.75"/><path class="cls-24" d="M326.73,232.89l-.51-.2a.8.8,0,0,0-1,.52l-6.86,20.26a.9.9,0,0,0,.49,1.12l.51.2a.8.8,0,0,0,1-.52L327.22,234A.9.9,0,0,0,326.73,232.89Z"/><path class="cls-24" d="M347.5,232.69l-.51.2a.9.9,0,0,0-.49,1.12l6.86,20.26a.8.8,0,0,0,1,.52l.51-.2a.9.9,0,0,0,.49-1.12l-6.86-20.26A.8.8,0,0,0,347.5,232.69Z"/><rect class="cls-24" x="335.58" y="216.8" width="2.33" height="26.5" rx="0.64" ry="0.64" transform="translate(106.69 566.79) rotate(-90)"/><rect class="cls-24" x="333.81" y="183.18" width="5.87" height="1.17" rx="0.48" ry="0.48"/></g><g id="Layer_4" data-name="Layer 4"><path class="cls-14" d="M426.89,92.46c-1.46.18-6.43,12.45-6.74,13.81-4.83,21.41-8.48,35.58-4.43,42.22s17.52,6.63,22.1,1.7C447.7,139.58,433.08,91.69,426.89,92.46Z"/><path class="cls-22" d="M438.1,178.71c.55,12.24.85,25.62.85,39.64C439,276.68,433.73,324,427.3,324s-11.66-47.29-11.66-105.62c0-14,.3-27.39.85-39.63"/><path class="cls-25" d="M427.3,178.71H438.1c.55,12.24.85,25.62.85,39.64C439,276.68,433.73,324,427.3,324"/><polygon class="cls-26" points="435.08 151.11 438.18 178.71 427.3 178.71 416.5 178.71 419.6 151.11 427.3 151.11 435.08 151.11"/><polyline class="cls-27" points="427.3 151.11 435.08 151.11 438.18 178.71 427.3 178.71"/></g></svg>